{"glyphs":{"0":{"ha":694,"x_min":57,"x_max":639,"o":"m 349 -18 q 208 27 275 -18 q 99 174 140 72 q 57 447 57 276 q 99 722 57 619 q 208 871 140 825 q 349 917 275 917 q 488 871 422 917 q 597 722 554 825 q 639 447 639 619 q 597 174 639 276 q 488 27 554 72 q 349 -18 422 -18 m 349 44 q 409 63 381 44 q 460 126 438 81 q 497 249 483 171 q 510 447 510 326 q 497 647 510 568 q 460 772 483 726 q 409 835 438 817 q 349 854 381 854 q 287 836 317 854 q 234 773 257 818 q 198 649 211 728 q 185 447 185 569 q 198 248 185 326 q 234 125 211 169 q 287 63 257 81 q 349 44 317 44 z "},"1":{"ha":694,"x_min":103,"x_max":618,"o":"m 103 0 l 103 50 l 301 83 l 418 83 l 618 50 l 618 0 l 103 0 m 297 0 q 299 97 299 49 q 301 195 300 146 q 301 293 301 244 l 301 794 l 118 779 l 118 836 l 404 910 l 424 896 l 418 697 l 418 293 q 419 195 418 244 q 420 97 419 146 q 422 0 421 49 l 297 0 z "},"2":{"ha":694,"x_min":61,"x_max":639,"o":"m 68 0 l 68 90 q 176 198 124 144 q 272 299 228 251 q 386 435 342 372 q 452 556 431 499 q 474 668 474 614 q 428 804 474 754 q 307 854 383 854 q 244 848 282 854 q 167 824 206 842 l 246 874 l 213 751 q 192 697 204 718 q 166 665 181 675 q 132 656 151 656 q 91 668 110 656 q 61 701 72 681 q 110 823 69 775 q 211 894 150 871 q 342 917 272 917 q 488 887 432 917 q 572 803 544 857 q 599 681 599 750 q 574 562 599 619 q 490 432 550 504 q 324 257 431 360 q 273 207 301 235 q 212 149 244 179 q 144 88 179 119 l 161 147 l 161 114 l 639 114 l 639 0 l 68 0 z "},"3":{"ha":694,"x_min":61,"x_max":639,"o":"m 328 -18 q 153 28 226 -18 q 61 179 81 75 q 92 214 74 203 q 132 225 110 225 q 184 201 168 225 q 214 125 200 178 l 242 18 l 186 68 q 254 49 222 54 q 310 44 286 44 q 424 68 378 44 q 492 137 469 92 q 515 244 515 182 q 492 349 515 306 q 421 415 468 392 q 303 438 374 438 l 236 438 l 236 507 l 292 507 q 399 529 354 507 q 467 594 443 551 q 490 694 490 636 q 471 781 490 746 q 413 835 451 817 q 321 854 375 854 q 269 850 299 854 q 203 835 239 846 l 264 874 l 239 779 q 211 715 228 736 q 158 693 194 693 q 118 704 136 693 q 92 742 100 715 q 140 839 104 800 q 228 897 175 878 q 344 917 281 917 q 486 889 426 917 q 578 813 546 861 q 611 699 611 764 q 583 592 611 642 q 501 508 554 543 q 374 458 449 474 l 374 482 q 523 442 464 474 q 610 362 582 411 q 639 247 639 313 q 600 113 639 172 q 492 17 561 53 q 328 -18 422 -18 z "},"4":{"ha":694,"x_min":33,"x_max":672,"o":"m 411 -21 l 411 256 l 411 282 l 411 792 l 389 792 l 450 821 l 271 550 l 92 279 l 107 340 l 107 314 l 672 314 l 672 226 l 33 226 l 33 300 l 446 911 l 526 911 l 526 -21 l 411 -21 z "},"5":{"ha":694,"x_min":53,"x_max":636,"o":"m 313 -18 q 141 31 207 -18 q 53 178 75 81 q 81 213 63 201 q 124 225 100 225 q 173 206 156 225 q 204 131 190 186 l 231 29 l 176 72 q 243 51 213 57 q 303 44 274 44 q 417 72 371 44 q 488 149 464 100 q 511 265 511 199 q 485 383 511 335 q 410 455 458 431 q 294 479 361 479 q 231 475 264 479 q 167 464 199 471 l 128 475 l 157 899 l 611 899 l 611 785 l 185 785 l 222 850 l 199 497 l 138 518 q 234 553 188 543 q 332 564 281 564 q 491 531 422 564 q 598 435 560 499 q 636 279 636 372 q 596 124 636 190 q 483 19 556 57 q 313 -18 410 -18 z "},"6":{"ha":694,"x_min":56,"x_max":635,"o":"m 356 -18 q 195 28 263 -18 q 92 160 128 74 q 56 364 56 246 q 91 562 56 468 q 194 730 126 656 q 361 853 263 804 q 588 917 460 903 l 596 872 q 404 793 483 843 q 276 676 325 743 q 205 526 228 608 q 182 347 182 443 q 203 175 182 242 q 263 76 225 108 q 353 44 301 44 q 435 72 400 44 q 491 150 471 99 q 511 274 511 201 q 467 419 511 371 q 351 467 424 467 q 256 449 304 467 q 163 386 207 431 l 133 406 l 140 406 q 255 513 190 475 q 393 551 319 551 q 523 515 469 551 q 606 417 576 479 q 635 276 635 356 q 611 156 635 210 q 548 63 588 101 q 458 3 508 24 q 356 -18 408 -18 z "},"7":{"ha":694,"x_min":71,"x_max":644,"o":"m 199 0 l 185 14 l 571 826 l 571 765 l 563 785 l 71 785 l 71 899 l 644 899 l 644 828 l 314 0 l 199 0 z "},"8":{"ha":694,"x_min":61,"x_max":632,"o":"m 349 -18 q 200 7 265 -18 q 98 83 135 32 q 61 207 61 133 q 87 304 61 261 q 162 383 113 347 q 283 453 211 419 l 283 461 l 342 433 q 251 372 288 403 q 195 304 214 342 q 176 215 176 267 q 199 127 176 167 q 260 65 221 88 q 351 43 300 43 q 470 92 425 43 q 515 210 515 140 q 496 283 515 250 q 429 348 476 315 q 300 418 382 381 q 181 494 226 453 q 113 584 135 536 q 92 685 92 632 q 126 810 92 758 q 220 889 161 861 q 351 917 279 917 q 478 890 425 917 q 561 814 532 863 q 590 703 590 765 q 573 626 590 668 q 512 543 556 585 q 389 461 468 501 l 389 453 l 338 481 q 453 587 421 538 q 486 700 486 636 q 470 777 486 742 q 424 833 454 813 q 349 854 393 854 q 276 837 310 854 q 222 789 242 819 q 201 715 201 758 q 218 641 201 678 q 278 568 235 604 q 400 494 321 532 q 529 419 478 458 q 606 333 581 381 q 632 219 632 285 q 594 96 632 150 q 493 12 557 42 q 349 -18 429 -18 z "},"9":{"ha":694,"x_min":40,"x_max":625,"o":"m 119 -21 l 106 32 q 292 115 217 68 q 413 223 367 163 q 480 359 460 283 q 500 531 500 435 q 478 715 500 643 q 419 820 457 786 q 331 854 382 854 q 248 830 286 854 q 187 758 210 806 q 164 640 164 711 q 188 525 164 569 q 254 460 213 481 q 347 439 296 439 q 452 463 407 439 q 538 535 497 486 l 571 525 l 563 525 q 460 398 524 440 q 310 356 396 356 q 174 388 236 356 q 76 482 113 421 q 40 628 40 543 q 62 746 40 693 q 123 837 83 799 q 217 896 163 875 q 336 917 271 917 q 492 872 428 917 q 591 747 557 828 q 625 554 625 665 q 597 364 625 454 q 508 198 568 274 q 351 67 447 122 q 119 -21 256 11 z "}," ":{"ha":324,"x_min":0,"x_max":0,"o":""}," ":{"ha":324,"x_min":0,"x_max":0,"o":""},"A":{"ha":922,"x_min":7,"x_max":907,"o":"m 7 0 l 7 57 l 146 78 l 174 78 l 325 57 l 325 0 l 7 0 m 99 0 l 419 938 l 507 938 l 826 0 l 690 0 l 415 821 l 443 821 l 436 800 l 164 0 l 99 0 m 246 301 l 246 367 l 643 367 l 643 301 l 246 301 m 529 0 l 529 57 l 704 78 l 735 78 l 907 57 l 907 0 l 529 0 z "},"B":{"ha":874,"x_min":61,"x_max":814,"o":"m 61 0 l 61 57 l 243 78 l 257 78 l 257 0 l 61 0 m 188 0 q 191 142 190 71 q 192 285 192 213 q 192 431 192 358 l 192 499 q 192 643 192 571 q 191 788 192 715 q 188 931 190 860 l 328 931 q 325 789 326 861 q 324 644 324 717 q 324 499 324 572 l 324 451 q 324 293 324 369 q 325 144 324 217 q 328 0 326 72 l 188 0 m 257 0 l 257 65 l 411 65 q 610 114 544 65 q 675 254 675 163 q 610 400 675 351 q 400 449 544 449 l 257 449 l 257 513 l 396 513 q 533 532 481 513 q 611 592 586 551 q 636 694 636 632 q 613 796 636 758 q 541 850 589 833 q 422 867 493 867 l 257 867 l 257 931 l 464 931 q 628 901 561 931 q 731 822 696 872 q 767 704 767 771 q 740 602 767 650 q 657 521 714 554 q 506 476 600 488 l 506 489 q 683 447 615 481 q 782 365 750 414 q 814 254 814 315 q 793 162 814 207 q 728 80 772 117 q 614 22 685 43 q 443 0 543 0 l 257 0 m 61 874 l 61 931 l 257 931 l 257 853 l 243 853 l 61 874 z "},"C":{"ha":876,"x_min":65,"x_max":822,"o":"m 536 -21 q 344 15 431 -21 q 196 115 258 50 q 99 269 133 179 q 65 465 65 358 q 101 660 65 571 q 199 814 136 749 q 348 915 263 879 q 535 951 433 951 q 663 938 592 951 q 803 885 733 925 l 808 683 l 722 683 l 688 889 l 774 869 l 774 786 q 659 861 715 840 q 553 882 603 882 q 383 834 460 882 q 262 694 307 786 q 217 465 217 601 q 258 236 217 329 q 374 96 300 143 q 543 49 449 49 q 666 69 603 49 q 788 138 729 89 l 788 61 l 701 42 l 736 247 l 822 247 l 817 46 q 681 -5 753 11 q 536 -21 610 -21 z "},"D":{"ha":986,"x_min":61,"x_max":921,"o":"m 61 0 l 61 57 l 243 78 l 257 78 l 257 0 l 61 0 m 188 0 q 191 142 190 71 q 192 290 192 214 q 192 447 192 367 l 192 499 q 192 643 192 571 q 191 788 192 715 q 188 931 190 860 l 328 931 q 325 789 326 861 q 324 644 324 717 q 324 499 324 572 l 324 447 q 324 292 324 368 q 325 144 324 217 q 328 0 326 72 l 188 0 m 257 0 l 257 65 l 436 65 q 617 113 543 65 q 731 249 692 160 q 769 464 769 338 q 685 763 769 660 q 449 867 600 867 l 257 867 l 257 931 l 471 931 q 706 876 604 931 q 864 719 807 822 q 921 464 921 615 q 858 210 921 314 q 688 53 796 107 q 444 0 581 0 l 257 0 m 61 874 l 61 931 l 257 931 l 257 853 l 243 853 l 61 874 z "},"E":{"ha":838,"x_min":61,"x_max":790,"o":"m 61 0 l 61 57 l 243 78 l 257 78 l 257 0 l 61 0 m 188 0 q 191 142 190 71 q 192 285 192 213 q 192 431 192 358 l 192 499 q 192 643 192 571 q 191 788 192 715 q 188 931 190 860 l 328 931 q 325 789 326 861 q 324 644 324 717 q 324 499 324 572 l 324 447 q 324 292 324 368 q 325 144 324 217 q 328 0 326 72 l 188 0 m 257 0 l 257 69 l 722 69 l 674 28 l 711 247 l 790 247 l 781 0 l 257 0 m 257 442 l 257 507 l 571 507 l 571 442 l 257 442 m 547 311 l 526 465 l 526 493 l 547 639 l 611 639 l 611 311 l 547 311 m 61 874 l 61 931 l 257 931 l 257 853 l 243 853 l 61 874 m 683 685 l 646 903 l 694 861 l 257 861 l 257 931 l 753 931 l 763 685 l 683 685 z "},"F":{"ha":804,"x_min":61,"x_max":763,"o":"m 61 0 l 61 57 l 243 78 l 274 78 l 456 57 l 456 0 l 61 0 m 188 0 q 191 142 190 71 q 192 285 192 213 q 192 431 192 358 l 192 499 q 192 643 192 571 q 191 788 192 715 q 188 931 190 860 l 328 931 q 325 789 326 861 q 324 644 324 717 q 324 499 324 572 l 324 447 q 324 292 324 368 q 325 144 324 217 q 328 0 326 72 l 188 0 m 257 442 l 257 507 l 582 507 l 582 442 l 257 442 m 558 297 l 538 451 l 538 493 l 558 639 l 622 639 l 622 297 l 558 297 m 61 874 l 61 931 l 257 931 l 257 853 l 243 853 l 61 874 m 683 685 l 646 903 l 694 861 l 257 861 l 257 931 l 753 931 l 763 685 l 683 685 z "},"G":{"ha":947,"x_min":65,"x_max":926,"o":"m 533 -21 q 343 15 429 -21 q 194 117 257 51 q 99 271 132 182 q 65 465 65 360 q 99 658 65 569 q 196 813 133 747 q 346 915 258 879 q 539 951 433 951 q 644 944 596 951 q 736 923 693 938 q 818 886 779 908 l 824 683 l 738 683 l 701 890 l 789 863 l 789 783 q 675 859 733 836 q 551 882 617 882 q 380 833 456 882 q 260 692 304 785 q 217 465 217 599 q 258 240 217 332 q 377 99 300 147 q 560 50 454 50 q 667 64 619 50 q 774 107 715 78 l 708 40 l 708 122 q 708 282 708 201 q 704 442 707 363 l 843 442 q 840 284 842 364 q 839 122 839 204 l 839 61 q 693 1 767 24 q 533 -21 619 -21 m 561 386 l 561 442 l 926 442 l 926 386 l 772 371 l 742 371 l 561 386 z "},"H":{"ha":1094,"x_min":61,"x_max":1033,"o":"m 61 0 l 61 57 l 243 78 l 271 78 l 453 57 l 453 0 l 61 0 m 188 0 q 191 142 190 71 q 192 285 192 213 q 192 431 192 358 l 192 499 q 192 643 192 571 q 191 788 192 715 q 188 931 190 860 l 328 931 q 325 789 326 861 q 324 644 324 717 q 324 499 324 572 l 324 457 q 324 295 324 372 q 325 145 324 218 q 328 0 326 72 l 188 0 m 257 443 l 257 508 l 838 508 l 838 443 l 257 443 m 642 0 l 642 57 l 824 78 l 853 78 l 1033 57 l 1033 0 l 642 0 m 768 0 q 772 143 771 71 q 772 293 772 215 q 772 457 772 371 l 772 499 q 772 643 772 571 q 772 788 772 715 q 768 931 771 860 l 907 931 q 904 789 906 861 q 903 644 903 717 q 903 499 903 572 l 903 431 q 903 288 903 360 q 904 144 903 215 q 907 0 906 72 l 768 0 m 61 874 l 61 931 l 453 931 l 453 874 l 271 853 l 243 853 l 61 874 m 642 874 l 642 931 l 1033 931 l 1033 874 l 853 853 l 824 853 l 642 874 z "},"I":{"ha":515,"x_min":61,"x_max":454,"o":"m 61 0 l 61 57 l 243 78 l 272 78 l 454 57 l 454 0 l 61 0 m 188 0 q 191 142 190 71 q 192 285 192 213 q 192 431 192 358 l 192 499 q 192 643 192 571 q 191 788 192 715 q 188 931 190 860 l 328 931 q 325 789 326 861 q 324 644 324 717 q 324 499 324 572 l 324 431 q 324 288 324 360 q 325 144 324 215 q 328 0 326 72 l 188 0 m 61 874 l 61 931 l 454 931 l 454 874 l 272 853 l 243 853 l 61 874 z "},"J":{"ha":519,"x_min":-24,"x_max":472,"o":"m 97 -185 q 22 -170 57 -185 q -24 -117 -14 -156 q 6 -63 -17 -78 q 60 -49 28 -49 q 111 -58 88 -49 q 164 -89 135 -67 l 211 -125 l 211 -136 l 174 -136 l 174 -131 q 195 -86 186 -110 q 209 -28 204 -62 q 216 53 214 6 q 218 169 218 101 q 218 219 218 199 q 218 267 218 240 q 217 337 218 293 q 216 455 217 381 q 214 644 215 529 q 211 931 213 760 l 346 931 q 342 717 343 825 q 342 500 342 610 l 342 299 q 339 145 342 208 q 327 37 336 82 q 303 -41 318 -8 q 263 -104 288 -74 q 187 -166 228 -147 q 97 -185 146 -185 m 65 874 l 65 931 l 472 931 l 472 874 l 290 853 l 261 853 l 65 874 z "},"K":{"ha":926,"x_min":61,"x_max":919,"o":"m 188 0 q 191 142 190 71 q 192 285 192 213 q 192 431 192 358 l 192 499 q 192 643 192 571 q 191 788 192 715 q 188 931 190 860 l 322 931 q 319 789 321 861 q 318 644 318 717 q 318 499 318 572 l 318 396 q 318 277 318 342 q 319 142 318 213 q 322 0 321 72 l 188 0 m 61 0 l 61 57 l 243 78 l 272 78 l 453 57 l 453 0 l 61 0 m 61 874 l 61 931 l 453 931 l 453 874 l 272 853 l 243 853 l 61 874 m 563 0 l 563 57 l 731 78 l 751 78 l 919 57 l 919 0 l 563 0 m 579 874 l 579 931 l 899 931 l 899 874 l 744 853 l 717 847 l 579 874 m 256 243 l 250 335 l 256 335 l 293 381 l 742 931 l 826 931 l 256 243 m 714 0 l 439 515 l 515 606 l 851 0 l 714 0 z "},"L":{"ha":828,"x_min":61,"x_max":767,"o":"m 61 0 l 61 57 l 243 78 l 257 78 l 257 0 l 61 0 m 188 0 q 191 144 190 72 q 192 287 192 215 q 192 429 192 358 l 192 499 q 192 644 192 572 q 191 789 192 717 q 188 931 190 861 l 328 931 q 325 788 326 860 q 324 643 324 715 q 324 499 324 571 l 324 403 q 324 278 324 344 q 325 141 324 211 q 328 0 326 71 l 188 0 m 257 0 l 257 69 l 683 69 l 633 29 l 682 261 l 767 261 l 753 0 l 257 0 m 61 874 l 61 931 l 454 931 l 454 874 l 272 853 l 243 853 l 61 874 z "},"M":{"ha":1253,"x_min":54,"x_max":1190,"o":"m 54 0 l 54 57 l 200 78 l 229 78 l 365 57 l 365 0 l 54 0 m 68 874 l 68 931 l 239 931 l 239 853 l 222 853 l 68 874 m 179 0 l 179 931 l 239 931 l 251 513 l 251 0 l 179 0 m 561 0 l 201 886 l 193 886 l 193 931 l 311 931 l 646 106 l 599 106 l 610 135 l 917 931 l 983 931 l 983 886 l 972 886 l 954 840 l 631 0 l 561 0 m 813 0 l 813 57 l 979 78 l 1010 78 l 1190 57 l 1190 0 l 813 0 m 928 0 q 931 142 931 71 q 932 285 932 213 q 932 429 932 357 l 932 931 l 1064 931 q 1061 789 1063 861 q 1060 644 1060 717 q 1060 499 1060 572 l 1060 431 q 1060 288 1060 360 q 1061 144 1060 215 q 1064 0 1063 72 l 928 0 m 994 853 l 994 931 l 1190 931 l 1190 874 l 1010 853 l 994 853 z "},"N":{"ha":1021,"x_min":54,"x_max":965,"o":"m 54 0 l 54 57 l 200 78 l 229 78 l 390 57 l 390 0 l 54 0 m 172 0 l 172 899 l 243 899 l 243 465 l 243 0 l 172 0 m 631 874 l 631 931 l 965 931 l 965 874 l 826 853 l 799 853 l 631 874 m 799 -10 l 231 793 l 228 793 l 181 863 l 61 874 l 61 931 l 290 931 l 800 206 l 776 199 l 776 465 l 776 931 l 847 931 l 847 -10 l 799 -10 z "},"O":{"ha":982,"x_min":65,"x_max":917,"o":"m 492 -21 q 335 10 411 -21 q 197 103 258 42 q 101 255 136 164 q 65 465 65 346 q 101 669 65 579 q 198 822 138 760 q 335 918 258 885 q 492 951 411 951 q 648 920 572 951 q 784 827 724 889 q 881 675 844 765 q 917 465 917 585 q 881 261 917 351 q 785 108 846 171 q 649 12 725 44 q 492 -21 572 -21 m 492 49 q 616 84 564 49 q 701 178 668 119 q 749 312 733 238 q 764 465 764 386 q 749 617 764 543 q 701 751 733 692 q 616 847 668 811 q 492 882 564 882 q 367 847 419 882 q 282 751 315 811 q 233 617 249 692 q 217 465 217 543 q 233 312 217 386 q 282 178 249 238 q 367 84 315 119 q 492 49 419 49 z "},"P":{"ha":818,"x_min":61,"x_max":788,"o":"m 61 0 l 61 57 l 243 78 l 274 78 l 456 57 l 456 0 l 61 0 m 188 0 q 191 142 190 71 q 192 285 192 213 q 192 431 192 358 l 192 499 q 192 643 192 571 q 191 788 192 715 q 188 931 190 860 l 328 931 q 325 789 326 861 q 324 644 324 717 q 324 499 324 572 l 324 414 q 324 276 324 343 q 325 140 324 208 q 328 0 326 72 l 188 0 m 257 367 l 257 432 l 415 432 q 551 460 500 432 q 626 538 603 488 q 650 653 650 588 q 592 810 650 754 q 410 867 535 867 l 257 867 l 257 931 l 435 931 q 631 895 553 931 q 748 797 708 860 q 788 653 788 735 q 749 510 788 575 q 624 406 710 444 q 396 367 539 367 l 257 367 m 61 874 l 61 931 l 257 931 l 257 853 l 243 853 l 61 874 z "},"Q":{"ha":982,"x_min":65,"x_max":917,"o":"m 694 -300 q 545 -260 607 -300 q 451 -152 483 -219 q 419 -7 419 -85 l 419 24 l 550 24 q 567 -110 546 -56 q 634 -194 589 -165 q 742 -222 679 -222 q 790 -219 763 -222 q 850 -206 817 -215 l 865 -256 q 784 -289 831 -278 q 694 -300 738 -300 m 492 -21 q 335 10 411 -21 q 197 103 258 42 q 101 255 136 164 q 65 465 65 346 q 101 669 65 579 q 198 822 138 760 q 335 918 258 885 q 492 951 411 951 q 648 920 572 951 q 784 827 724 889 q 881 675 844 765 q 917 465 917 585 q 881 261 917 351 q 785 108 846 171 q 649 12 725 44 q 492 -21 572 -21 m 492 49 q 616 84 564 49 q 701 178 668 119 q 749 312 733 238 q 764 465 764 386 q 749 617 764 543 q 701 751 733 692 q 616 847 668 811 q 492 882 564 882 q 367 847 419 882 q 282 751 315 811 q 233 617 249 692 q 217 465 217 543 q 233 312 217 386 q 282 178 249 238 q 367 84 315 119 q 492 49 419 49 z "},"R":{"ha":904,"x_min":61,"x_max":885,"o":"m 61 0 l 61 57 l 243 78 l 272 78 l 454 57 l 454 0 l 61 0 m 188 0 q 191 142 190 71 q 192 285 192 213 q 192 431 192 358 l 192 499 q 192 643 192 571 q 191 788 192 715 q 188 931 190 860 l 328 931 q 325 787 326 858 q 324 642 324 715 q 324 486 324 568 l 324 444 q 324 292 324 367 q 325 144 324 217 q 328 0 326 72 l 188 0 m 781 -14 q 683 6 715 -14 q 638 75 650 25 l 582 297 q 546 383 569 354 q 485 421 522 411 q 392 431 449 431 l 258 431 l 258 493 l 431 493 q 554 518 506 493 q 626 587 603 543 q 650 686 650 631 q 601 820 650 774 q 446 867 553 867 l 257 867 l 257 931 l 450 931 q 699 867 610 931 q 788 688 788 803 q 757 576 788 629 q 665 489 726 524 q 510 446 603 454 l 510 457 q 585 443 551 454 q 643 410 618 432 q 686 356 668 389 q 718 275 704 322 l 785 44 l 738 74 l 885 57 l 885 0 q 855 -7 871 -4 q 821 -12 839 -10 q 781 -14 803 -14 m 61 874 l 61 931 l 257 931 l 257 853 l 243 853 l 61 874 z "},"S":{"ha":711,"x_min":56,"x_max":656,"o":"m 326 -21 q 176 1 249 -21 q 56 53 104 22 l 64 247 l 150 247 l 186 33 l 94 72 l 94 139 q 172 88 138 108 q 240 58 206 68 q 322 49 275 49 q 436 68 388 49 q 511 126 485 88 q 538 217 538 164 q 519 292 538 261 q 464 346 501 322 q 367 392 426 369 l 313 414 q 188 480 242 442 q 103 571 133 518 q 74 694 74 624 q 115 832 74 775 q 226 920 156 889 q 386 951 297 951 q 513 932 456 951 q 614 879 569 913 l 606 697 l 521 697 l 482 907 l 572 861 l 572 792 q 477 862 521 842 q 378 882 433 882 q 283 864 325 882 q 215 811 240 846 q 190 725 190 776 q 209 649 190 682 q 263 592 228 617 q 347 547 297 567 l 403 526 q 550 451 494 492 q 631 360 606 410 q 656 243 656 310 q 613 102 656 161 q 497 11 571 43 q 326 -21 424 -21 z "},"T":{"ha":839,"x_min":28,"x_max":811,"o":"m 210 0 l 210 57 l 404 78 l 435 78 l 629 57 l 629 0 l 210 0 m 350 0 q 353 142 353 71 q 354 285 354 213 q 354 431 354 358 l 354 499 q 354 643 354 571 q 353 788 354 715 q 350 931 353 860 l 489 931 q 486 789 488 861 q 485 644 485 717 q 485 499 485 572 l 485 431 q 485 288 485 360 q 486 144 485 215 q 489 0 488 72 l 350 0 m 28 683 l 39 931 l 800 931 l 811 683 l 731 683 l 688 931 l 751 861 l 88 861 l 151 931 l 108 683 l 28 683 z "},"U":{"ha":1010,"x_min":54,"x_max":963,"o":"m 510 -21 q 333 18 410 -21 q 215 139 257 57 q 172 350 172 221 l 172 500 q 172 644 172 572 q 172 788 172 715 q 168 931 171 860 l 307 931 q 304 790 306 861 q 303 646 303 718 q 303 500 303 574 l 303 390 q 331 203 303 272 q 411 106 360 135 q 533 78 463 78 q 665 110 613 78 q 744 217 718 143 q 771 414 771 292 l 771 931 l 842 931 l 842 381 q 799 147 842 235 q 681 19 756 58 q 510 -21 606 -21 m 54 874 l 54 931 l 447 931 l 447 874 l 265 853 l 236 853 l 54 874 m 629 874 l 629 931 l 963 931 l 963 874 l 810 854 l 782 854 l 629 874 z "},"V":{"ha":936,"x_min":21,"x_max":924,"o":"m 449 -10 l 100 931 l 240 931 l 514 149 l 486 149 l 493 169 l 751 931 l 828 931 l 510 -10 l 449 -10 m 21 874 l 21 931 l 400 931 l 400 868 l 231 853 l 201 853 l 21 874 m 603 868 l 603 931 l 924 931 l 924 874 l 771 853 l 743 853 l 603 868 z "},"W":{"ha":1336,"x_min":21,"x_max":1324,"o":"m 386 -10 l 115 931 l 251 931 l 453 178 l 428 178 l 435 200 l 678 931 l 728 931 l 971 172 l 947 172 l 953 194 l 1156 931 l 1226 931 l 972 -10 l 913 -10 l 658 753 l 685 753 l 678 732 l 446 -10 l 386 -10 m 21 874 l 21 931 l 399 931 l 399 874 l 231 853 l 201 853 l 21 874 m 514 874 l 514 931 l 892 931 l 892 874 l 722 853 l 692 853 l 514 874 m 1008 874 l 1008 931 l 1324 931 l 1324 874 l 1181 853 l 1153 853 l 1008 874 z "},"X":{"ha":900,"x_min":14,"x_max":888,"o":"m 14 0 l 14 57 l 165 76 l 193 76 l 332 57 l 332 0 l 14 0 m 97 0 l 421 492 l 476 456 l 467 456 l 444 421 l 178 0 l 97 0 m 494 0 l 494 57 l 675 78 l 706 78 l 888 57 l 888 0 l 494 0 m 492 481 l 439 518 l 446 518 l 461 542 l 703 931 l 782 931 l 492 481 m 665 0 l 106 931 l 251 931 l 811 0 l 665 0 m 26 874 l 26 931 l 417 931 l 417 874 l 236 853 l 206 853 l 26 874 m 539 874 l 539 931 l 857 931 l 857 874 l 706 854 l 678 854 l 539 874 z "},"Y":{"ha":879,"x_min":35,"x_max":865,"o":"m 232 0 l 232 57 l 426 78 l 456 78 l 651 57 l 651 0 l 232 0 m 372 0 q 374 94 374 46 q 376 193 375 142 q 376 301 376 244 q 376 418 376 357 l 507 418 q 507 301 507 357 q 508 194 507 246 q 509 94 508 143 q 511 0 510 46 l 372 0 m 400 311 l 96 931 l 247 931 l 497 386 l 450 386 l 461 408 l 707 931 l 779 931 l 481 311 l 400 311 m 35 874 l 35 931 l 413 931 l 413 874 l 232 853 l 203 853 l 35 874 m 547 874 l 547 931 l 865 931 l 865 874 l 728 853 l 700 853 l 547 874 z "},"Z":{"ha":765,"x_min":28,"x_max":738,"o":"m 28 0 l 28 50 l 575 896 l 561 840 l 561 861 l 342 861 l 122 861 l 172 901 l 126 683 l 42 683 l 53 931 l 707 931 l 707 882 l 161 35 l 175 86 l 175 69 l 414 69 l 657 69 l 607 29 l 653 247 l 738 247 l 726 0 l 28 0 z "},"a":{"ha":707,"x_min":63,"x_max":699,"o":"m 249 -18 q 117 26 172 -18 q 63 156 63 69 q 80 232 63 196 q 147 301 97 268 q 293 361 197 333 q 365 383 329 372 q 437 403 401 393 q 508 424 472 414 l 508 374 q 415 344 461 360 q 324 314 369 329 q 232 270 261 294 q 194 222 203 246 q 186 175 186 197 q 218 97 186 121 q 297 74 250 74 q 342 81 321 74 q 397 110 364 89 q 486 174 431 132 l 506 104 l 464 104 q 390 35 422 63 q 324 -5 357 8 q 249 -18 292 -18 m 578 -14 q 485 24 519 -14 q 450 126 450 63 l 450 133 l 450 446 q 437 550 450 514 q 394 600 424 586 q 319 614 365 614 q 265 609 296 614 q 194 589 235 604 l 253 633 l 218 515 q 191 466 208 483 q 146 449 174 449 q 100 464 117 449 q 81 506 83 479 q 173 631 100 585 q 351 678 246 678 q 472 653 425 678 q 543 576 519 629 q 567 436 567 524 l 567 140 q 581 77 567 96 q 617 58 594 58 q 647 67 635 58 q 671 89 660 75 l 699 58 q 644 2 674 18 q 578 -14 614 -14 z "},"b":{"ha":801,"x_min":35,"x_max":739,"o":"m 42 0 l 42 50 l 146 68 q 147 143 147 103 q 148 222 147 183 q 149 292 149 261 l 149 901 l 35 915 l 35 965 l 247 1028 l 267 1017 l 261 818 l 261 554 l 265 536 l 265 113 l 265 110 l 250 -14 l 42 0 m 453 -18 q 376 -6 414 -18 q 300 39 338 7 q 228 129 263 71 l 208 129 l 221 188 q 328 90 274 119 q 431 61 382 61 q 522 90 481 61 q 589 177 564 118 q 614 325 614 236 q 565 528 614 458 q 438 599 515 599 q 381 588 413 599 q 309 551 349 578 q 219 475 269 525 l 207 532 l 229 532 q 308 615 268 583 q 389 663 347 647 q 475 678 431 678 q 608 638 549 678 q 703 521 668 597 q 739 336 739 444 q 701 149 739 229 q 599 26 664 69 q 453 -18 535 -18 z "},"c":{"ha":678,"x_min":63,"x_max":635,"o":"m 378 -18 q 208 23 279 -18 q 100 140 138 64 q 63 322 63 217 q 108 514 63 435 q 226 635 153 593 q 383 678 300 678 q 499 654 446 678 q 586 590 551 631 q 629 497 621 549 q 608 458 624 471 q 565 444 592 444 q 513 463 531 444 q 489 511 496 482 l 456 632 l 522 579 q 453 606 488 599 q 389 614 418 614 q 284 583 331 614 q 211 490 238 551 q 185 336 185 428 q 215 185 185 243 q 297 99 246 126 q 410 72 347 72 q 477 80 444 72 q 542 108 510 88 q 604 164 574 128 l 635 139 q 573 54 608 89 q 490 1 538 19 q 378 -18 443 -18 z "},"d":{"ha":788,"x_min":63,"x_max":765,"o":"m 346 -18 q 197 25 261 -18 q 98 145 133 68 q 63 324 63 222 q 101 510 63 431 q 207 633 140 589 q 358 678 274 678 q 428 667 394 678 q 494 633 461 657 q 558 565 526 608 l 579 565 l 565 499 q 463 578 506 557 q 379 599 419 599 q 284 570 328 599 q 214 481 240 542 q 188 326 188 421 q 213 177 188 236 q 281 90 238 118 q 381 61 325 61 q 474 87 433 61 q 563 174 515 113 l 575 108 l 558 108 q 502 40 533 68 q 433 -3 471 11 q 346 -18 394 -18 m 550 -14 l 536 126 l 536 129 l 536 536 l 540 554 l 540 901 l 422 915 l 422 965 l 639 1028 l 658 1017 l 653 818 l 653 67 l 765 50 l 765 0 l 550 -14 z "},"e":{"ha":708,"x_min":63,"x_max":651,"o":"m 385 -18 q 215 22 288 -18 q 102 139 142 63 q 63 322 63 215 q 106 509 63 429 q 222 633 149 589 q 381 678 294 678 q 513 646 454 678 q 606 555 571 614 q 640 411 640 496 q 638 367 640 388 q 631 333 635 347 l 117 333 l 117 392 l 435 392 q 508 413 492 392 q 525 464 525 433 q 508 546 525 513 q 458 597 490 579 q 381 614 425 614 q 288 587 333 614 q 214 500 243 560 q 185 339 185 440 q 213 193 185 253 q 292 103 240 133 q 417 72 344 72 q 531 94 482 72 q 622 163 581 115 l 651 139 q 588 56 624 92 q 504 1 553 21 q 385 -18 456 -18 z "},"f":{"ha":492,"x_min":47,"x_max":592,"o":"m 50 0 l 50 50 l 206 78 l 239 78 l 408 50 l 408 0 l 50 0 m 158 0 q 160 97 160 49 q 162 194 161 146 q 163 292 163 243 l 163 586 l 47 586 l 47 647 l 206 668 l 163 646 l 164 654 q 182 788 171 731 q 215 889 193 844 q 278 971 238 933 q 365 1026 319 1011 q 458 1042 411 1042 q 544 1024 507 1042 q 592 967 582 1007 q 568 922 590 940 q 507 903 546 903 q 457 914 481 903 q 407 946 433 925 l 342 997 l 342 1010 l 442 1010 l 442 1001 q 377 981 403 996 q 328 929 351 965 q 303 879 314 907 q 285 814 292 851 q 278 725 279 776 q 281 604 276 674 l 281 292 q 281 194 281 243 q 283 97 282 146 q 285 0 283 49 l 158 0 m 221 586 l 221 660 l 469 660 l 469 586 l 221 586 z "},"g":{"ha":719,"x_min":50,"x_max":688,"o":"m 322 -333 q 167 -312 228 -333 q 78 -251 107 -290 q 50 -164 50 -212 q 67 -100 50 -129 q 124 -42 83 -71 q 233 14 164 -14 l 242 6 q 197 -44 214 -21 q 172 -91 179 -68 q 164 -142 164 -114 q 186 -215 164 -186 q 249 -256 208 -243 q 343 -268 289 -268 q 472 -249 419 -268 q 550 -199 524 -231 q 576 -128 576 -167 q 544 -50 576 -81 q 438 -19 513 -19 l 275 -19 q 238 -18 257 -19 q 201 -14 218 -17 l 201 -10 q 122 29 149 1 q 94 101 94 57 q 119 176 94 136 q 206 269 144 215 l 206 285 l 253 264 q 208 208 222 232 q 194 160 194 183 q 218 103 194 121 q 292 85 242 85 l 457 85 q 583 64 533 85 q 656 3 632 43 q 681 -92 681 -36 q 658 -181 681 -137 q 590 -258 635 -224 q 478 -313 546 -293 q 322 -333 411 -333 m 332 222 q 203 248 260 222 q 114 324 146 274 q 82 450 82 375 q 115 574 82 524 q 204 651 147 625 q 333 678 261 678 q 410 669 375 678 q 476 645 446 661 q 528 606 506 629 l 531 603 q 569 537 556 575 q 583 450 583 499 q 551 326 583 378 q 461 249 518 275 q 332 222 404 222 m 329 278 q 406 301 374 278 q 454 363 438 324 q 471 454 471 403 q 455 542 471 504 q 408 600 439 579 q 335 621 378 621 q 260 599 292 621 q 211 538 228 576 q 194 449 194 500 q 210 360 194 399 q 256 299 226 321 q 329 278 286 278 m 476 576 l 476 614 l 485 614 l 667 678 l 688 664 l 688 576 l 476 576 z "},"h":{"ha":835,"x_min":35,"x_max":793,"o":"m 42 0 l 42 50 l 193 78 l 225 78 l 364 50 l 364 0 l 42 0 m 144 0 q 147 84 146 32 q 148 192 147 136 q 149 292 149 249 l 149 901 l 35 915 l 35 965 l 247 1028 l 267 1017 l 261 818 l 261 525 l 265 507 l 265 292 q 266 192 265 249 q 267 84 267 136 q 269 0 268 32 l 144 0 m 471 0 l 471 50 l 622 78 l 654 78 l 793 50 l 793 0 l 471 0 m 571 0 q 573 83 572 32 q 574 191 574 135 q 575 292 575 247 l 575 410 q 549 542 575 506 q 461 578 522 578 q 396 568 428 578 q 331 538 364 558 q 258 481 297 517 l 232 533 l 247 533 q 326 608 282 575 q 419 659 371 640 q 515 678 468 678 q 649 617 606 678 q 693 421 693 557 l 693 292 q 694 191 693 247 q 695 83 694 135 q 697 0 696 32 l 571 0 z "},"i":{"ha":414,"x_min":40,"x_max":371,"o":"m 49 0 l 49 50 l 200 78 l 232 78 l 371 50 l 371 0 l 49 0 m 150 0 q 152 84 151 32 q 153 192 153 136 q 154 292 154 249 l 154 357 q 153 452 154 414 q 150 532 153 490 l 40 544 l 40 593 l 256 678 l 276 664 l 272 475 l 272 292 q 273 192 272 249 q 274 84 274 136 q 276 0 275 32 l 150 0 m 206 818 q 140 843 167 818 q 113 907 113 868 q 140 971 113 946 q 206 996 167 996 q 272 971 244 996 q 299 907 299 946 q 272 843 299 868 q 206 818 244 818 z "},"j":{"ha":385,"x_min":-115,"x_max":299,"o":"m 8 -347 q -60 -335 -33 -347 q -101 -303 -87 -322 q -115 -267 -114 -285 q -85 -224 -106 -237 q -33 -210 -64 -210 q 19 -220 -6 -210 q 71 -251 44 -231 l 133 -299 l 133 -306 l 78 -306 l 78 -293 q 104 -274 93 -286 q 125 -237 115 -261 q 142 -159 136 -208 q 151 -36 149 -110 q 154 142 154 38 l 154 357 q 153 452 154 414 q 150 532 153 490 l 40 544 l 40 593 l 250 678 l 271 664 l 267 475 l 267 139 q 261 -51 267 26 q 237 -181 256 -129 q 181 -271 218 -233 q 107 -327 144 -307 q 8 -347 69 -347 m 206 818 q 140 843 167 818 q 113 907 113 868 q 140 971 113 946 q 206 996 167 996 q 272 971 246 996 q 299 907 299 946 q 272 843 299 868 q 206 818 246 818 z "},"k":{"ha":760,"x_min":35,"x_max":760,"o":"m 35 0 l 35 50 l 190 78 l 222 78 l 379 50 l 379 0 l 35 0 m 144 0 q 147 72 146 36 q 148 145 147 108 q 149 219 149 182 q 149 292 149 256 l 149 901 l 35 915 l 35 965 l 251 1028 l 271 1017 l 265 818 l 265 292 q 265 219 265 256 q 266 145 265 182 q 267 72 267 108 q 269 0 268 36 l 144 0 m 207 190 l 207 276 l 211 276 l 394 468 l 579 660 l 665 660 l 207 190 m 571 0 l 342 369 l 425 453 l 668 67 l 760 50 l 760 0 l 571 0 m 400 606 l 400 660 l 724 660 l 724 606 l 569 582 l 528 574 l 400 606 z "},"l":{"ha":414,"x_min":35,"x_max":379,"o":"m 35 0 l 35 50 l 190 78 l 222 78 l 379 50 l 379 0 l 35 0 m 144 0 q 147 97 146 49 q 148 194 147 146 q 149 292 149 243 l 149 901 l 35 915 l 35 965 l 251 1028 l 271 1017 l 265 818 l 265 292 q 266 194 265 243 q 267 97 267 146 q 269 0 268 49 l 144 0 z "},"m":{"ha":1251,"x_min":47,"x_max":1211,"o":"m 56 0 l 56 50 l 207 78 l 239 78 l 378 50 l 378 0 l 56 0 m 157 0 q 159 84 158 32 q 160 192 160 136 q 161 292 161 249 l 161 358 q 160 426 161 397 q 159 479 160 454 q 157 532 158 504 l 47 544 l 47 593 l 242 678 l 263 664 l 279 503 l 279 500 l 279 292 q 280 192 279 249 q 281 84 281 136 q 283 0 282 32 l 157 0 m 472 0 l 472 50 l 624 78 l 656 78 l 794 50 l 794 0 l 472 0 m 574 0 q 576 83 575 32 q 577 191 576 135 q 578 292 578 247 l 578 410 q 551 541 578 504 q 464 578 525 578 q 399 568 431 578 q 335 537 368 558 q 265 482 303 515 l 243 529 l 256 529 q 331 606 289 572 q 422 658 374 639 q 517 678 469 678 q 651 617 607 678 q 694 421 694 557 l 694 292 q 695 191 694 247 q 697 83 696 135 q 699 0 697 32 l 574 0 m 889 0 l 889 50 l 1040 78 l 1072 78 l 1211 50 l 1211 0 l 889 0 m 990 0 q 992 83 992 32 q 994 191 993 135 q 994 292 994 247 l 994 413 q 967 544 994 510 q 878 578 939 578 q 817 569 847 578 q 753 539 786 560 q 682 482 721 518 l 654 526 l 665 526 q 746 610 703 576 q 837 661 789 644 q 933 678 885 678 q 1065 621 1018 678 q 1111 435 1111 564 l 1111 292 q 1112 191 1111 247 q 1113 83 1113 135 q 1115 0 1114 32 l 990 0 z "},"n":{"ha":842,"x_min":47,"x_max":800,"o":"m 56 0 l 56 50 l 207 78 l 239 78 l 378 50 l 378 0 l 56 0 m 157 0 q 159 84 158 32 q 160 192 160 136 q 161 292 161 249 l 161 358 q 160 426 161 397 q 159 479 160 454 q 157 532 158 504 l 47 544 l 47 593 l 242 678 l 263 664 l 279 503 l 279 501 l 279 292 q 280 192 279 249 q 281 84 281 136 q 283 0 282 32 l 157 0 m 478 0 l 478 50 l 629 78 l 661 78 l 800 50 l 800 0 l 478 0 m 579 0 q 581 83 581 32 q 583 191 582 135 q 583 292 583 247 l 583 410 q 556 542 583 506 q 468 578 529 578 q 403 568 435 578 q 338 538 371 558 q 265 482 304 517 l 247 535 l 258 535 q 337 608 293 576 q 428 659 381 640 q 522 678 476 678 q 656 617 613 678 q 700 421 700 557 l 700 292 q 701 191 700 247 q 702 83 701 135 q 704 0 703 32 l 579 0 z "},"o":{"ha":763,"x_min":63,"x_max":700,"o":"m 381 -18 q 227 20 300 -18 q 108 135 154 58 q 63 326 63 213 q 108 520 63 442 q 227 638 154 599 q 381 678 300 678 q 534 638 461 678 q 653 520 607 599 q 700 326 700 442 q 653 135 700 213 q 534 20 607 58 q 381 -18 461 -18 m 381 44 q 482 76 440 44 q 546 171 524 108 q 568 326 568 233 q 546 485 568 421 q 482 581 524 549 q 381 614 440 614 q 279 581 321 614 q 216 485 238 549 q 194 326 194 421 q 216 171 194 233 q 279 76 238 108 q 381 44 321 44 z "},"p":{"ha":810,"x_min":49,"x_max":747,"o":"m 49 -333 l 49 -283 l 204 -256 l 238 -256 l 406 -283 l 406 -333 l 49 -333 m 158 -333 q 160 -235 160 -283 q 162 -137 161 -186 q 163 -39 163 -87 l 163 358 q 162 426 163 397 q 160 479 161 454 q 158 532 160 504 l 49 544 l 49 593 l 243 678 l 264 664 l 275 546 l 281 542 l 281 108 l 276 100 l 276 -37 q 277 -135 276 -85 q 278 -234 278 -185 q 281 -333 279 -283 l 158 -333 m 461 -18 q 387 -6 424 -18 q 314 35 350 6 q 244 115 278 64 l 217 115 l 229 189 q 332 91 282 121 q 433 61 382 61 q 528 89 486 61 q 597 174 571 117 q 622 321 622 232 q 574 526 622 454 q 449 599 525 599 q 390 588 422 599 q 317 550 357 576 q 228 475 278 524 l 215 542 l 244 542 q 321 619 282 589 q 400 663 360 649 q 482 678 440 678 q 617 636 557 678 q 712 517 676 594 q 747 332 747 440 q 710 147 747 225 q 608 25 672 68 q 461 -18 543 -18 z "},"q":{"ha":774,"x_min":63,"x_max":772,"o":"m 415 -333 l 415 -283 l 583 -256 l 617 -256 l 772 -283 l 772 -333 l 415 -333 m 346 -18 q 197 25 261 -18 q 98 144 133 68 q 63 322 63 221 q 101 509 63 429 q 206 633 139 589 q 354 678 272 678 q 426 667 390 678 q 496 630 461 656 q 564 560 531 604 l 581 560 l 567 499 q 463 578 507 557 q 379 599 419 599 q 284 569 328 599 q 214 480 240 540 q 188 325 188 419 q 213 176 188 235 q 281 89 238 117 q 381 61 325 61 q 474 88 433 61 q 563 174 515 114 l 575 115 l 563 115 q 501 40 533 69 q 430 -4 468 10 q 346 -18 392 -18 m 542 -333 q 544 -235 543 -285 q 545 -135 544 -185 q 546 -37 546 -86 l 546 100 l 542 119 l 542 575 l 542 578 l 640 678 l 663 664 l 658 476 l 658 -37 q 659 -135 658 -86 q 660 -235 660 -185 q 663 -333 661 -285 l 542 -333 z "},"r":{"ha":588,"x_min":47,"x_max":578,"o":"m 58 0 l 58 50 l 210 78 l 244 78 l 396 50 l 396 0 l 58 0 m 157 0 q 159 84 158 32 q 160 192 160 136 q 161 292 161 249 l 161 358 q 160 426 161 397 q 159 479 160 454 q 157 532 158 504 l 47 544 l 47 593 l 242 678 l 263 664 l 279 490 l 279 488 l 279 292 q 280 192 279 249 q 281 84 281 136 q 283 0 282 32 l 157 0 m 276 386 l 256 481 l 271 481 q 326 587 293 543 q 399 654 360 631 q 478 678 439 678 q 538 664 510 678 q 578 626 565 650 q 558 551 578 578 q 496 525 538 525 q 451 534 472 525 q 411 560 431 543 l 374 593 l 442 606 q 339 519 378 572 q 276 386 300 465 z "},"s":{"ha":603,"x_min":65,"x_max":549,"o":"m 278 -18 q 171 -5 219 -18 q 71 35 122 8 l 65 188 l 142 188 l 178 22 l 121 22 l 121 96 q 194 57 156 69 q 281 44 233 44 q 368 58 333 44 q 419 95 403 71 q 436 150 436 119 q 404 222 436 194 q 307 271 372 249 l 243 294 q 155 339 193 314 q 96 399 117 364 q 75 482 75 435 q 103 578 75 533 q 185 650 131 622 q 317 678 239 678 q 420 663 374 678 q 511 621 467 649 l 506 479 l 433 479 l 406 621 l 457 621 l 457 561 q 388 601 424 588 q 315 614 353 614 q 219 588 251 614 q 186 519 186 563 q 215 450 186 474 q 314 400 243 426 l 357 385 q 469 328 426 360 q 530 261 511 297 q 549 181 549 225 q 518 83 549 128 q 428 10 488 38 q 278 -18 368 -18 z "},"t":{"ha":451,"x_min":13,"x_max":449,"o":"m 186 586 l 186 660 l 435 660 l 435 586 l 186 586 m 285 -18 q 169 21 213 -18 q 126 140 126 60 q 127 192 126 167 q 128 258 128 218 l 128 586 l 13 586 l 13 647 l 185 668 l 128 622 l 172 849 l 256 849 l 246 632 l 246 604 l 246 156 q 267 78 246 103 q 322 54 288 54 q 367 64 346 54 q 415 92 389 74 l 449 56 q 406 15 431 32 q 351 -10 381 -1 q 285 -18 321 -18 z "},"u":{"ha":810,"x_min":35,"x_max":763,"o":"m 310 -18 q 176 38 225 -18 q 129 232 128 94 l 133 599 l 163 571 l 35 599 l 35 649 l 239 668 l 253 654 l 246 475 l 246 244 q 274 117 246 154 q 357 81 301 81 q 427 92 392 81 q 498 128 463 104 q 567 186 533 151 l 588 126 l 567 126 q 486 44 529 76 q 399 -3 443 13 q 310 -18 354 -18 m 569 -11 l 551 151 l 551 154 l 556 579 l 457 599 l 457 649 l 658 668 l 672 654 l 668 475 l 668 69 l 763 50 l 763 0 l 569 -11 z "},"v":{"ha":701,"x_min":0,"x_max":689,"o":"m 328 -8 l 47 660 l 186 660 l 399 103 l 369 103 l 376 124 l 564 660 l 640 660 l 388 -8 l 328 -8 m 0 606 l 0 660 l 336 660 l 336 606 l 169 582 l 135 582 l 0 606 m 425 606 l 425 660 l 689 660 l 689 606 l 590 582 l 563 582 l 425 606 z "},"w":{"ha":1061,"x_min":0,"x_max":1047,"o":"m 303 -8 l 54 660 l 185 660 l 365 124 l 338 124 l 344 144 l 533 660 l 581 660 l 781 125 l 754 125 l 760 144 l 918 660 l 997 660 l 769 -8 l 718 -8 l 524 522 l 551 522 l 544 504 l 354 -8 l 303 -8 m 0 606 l 0 660 l 317 660 l 317 606 l 165 582 l 136 582 l 0 606 m 404 606 l 404 660 l 711 660 l 711 606 l 579 582 l 550 582 l 404 606 m 793 606 l 793 660 l 1047 660 l 1047 606 l 949 582 l 921 582 l 793 606 z "},"x":{"ha":731,"x_min":14,"x_max":717,"o":"m 14 0 l 14 50 l 133 72 l 164 72 l 292 50 l 292 0 l 14 0 m 49 0 l 340 361 l 389 326 l 388 326 l 261 164 l 135 0 l 49 0 m 378 0 l 378 50 l 532 78 l 564 78 l 717 50 l 717 0 l 378 0 m 386 306 l 339 346 l 343 346 l 464 503 l 586 660 l 674 660 l 386 306 m 524 0 l 321 294 l 72 660 l 201 660 l 396 378 l 660 0 l 524 0 m 24 606 l 24 660 l 333 660 l 333 606 l 201 582 l 168 582 l 24 606 m 439 606 l 439 660 l 699 660 l 699 606 l 583 583 l 553 583 l 439 606 z "},"y":{"ha":711,"x_min":0,"x_max":711,"o":"m 128 -347 q 64 -335 93 -347 q 17 -302 35 -324 q 0 -254 0 -281 q 34 -208 7 -224 q 93 -193 61 -193 q 144 -205 121 -193 q 196 -246 168 -217 l 239 -290 l 185 -322 l 147 -290 q 227 -230 193 -267 q 286 -147 261 -193 q 328 -53 311 -101 l 350 11 l 354 21 l 479 367 l 585 660 l 661 660 l 413 4 q 323 -196 367 -118 q 232 -310 279 -274 q 128 -347 185 -347 m 349 -74 l 57 660 l 192 660 l 399 100 l 408 72 l 349 -74 m 6 610 l 6 660 l 339 660 l 339 608 l 175 589 l 140 589 l 6 610 m 440 610 l 440 660 l 711 660 l 711 610 l 613 589 l 585 589 l 440 610 z "},"z":{"ha":633,"x_min":40,"x_max":599,"o":"m 40 0 l 40 49 l 463 633 l 463 586 l 450 600 l 297 600 l 117 600 l 168 640 l 121 446 l 49 451 l 60 660 l 578 660 l 578 610 l 157 25 l 171 88 l 171 58 l 333 58 l 526 58 l 475 18 l 526 226 l 599 226 l 585 0 l 40 0 z "},"À":{"ha":922,"x_min":7,"x_max":907,"o":"m 7 0 l 7 57 l 146 78 l 174 78 l 325 57 l 325 0 l 7 0 m 99 0 l 419 938 l 507 938 l 826 0 l 690 0 l 415 821 l 443 821 l 436 800 l 164 0 l 99 0 m 246 301 l 246 367 l 643 367 l 643 301 l 246 301 m 529 0 l 529 57 l 704 78 l 735 78 l 907 57 l 907 0 l 529 0 m 553 1036 l 528 1001 q 440 1049 483 1025 q 353 1094 396 1072 q 299 1135 314 1117 q 283 1172 283 1154 q 299 1206 283 1193 q 336 1219 314 1219 q 374 1208 354 1219 q 422 1167 393 1196 q 490 1102 457 1135 q 553 1036 522 1069 z "},"Á":{"ha":922,"x_min":7,"x_max":907,"o":"m 7 0 l 7 57 l 146 78 l 174 78 l 325 57 l 325 0 l 7 0 m 99 0 l 419 938 l 507 938 l 826 0 l 690 0 l 415 821 l 443 821 l 436 800 l 164 0 l 99 0 m 246 301 l 246 367 l 643 367 l 643 301 l 246 301 m 529 0 l 529 57 l 704 78 l 735 78 l 907 57 l 907 0 l 529 0 m 367 1036 q 431 1103 399 1071 q 497 1167 464 1136 q 546 1208 526 1196 q 583 1219 565 1219 q 621 1206 606 1219 q 636 1172 636 1193 q 622 1136 636 1154 q 567 1096 607 1118 q 480 1049 524 1072 q 392 1001 436 1025 l 367 1036 z "},"Â":{"ha":922,"x_min":7,"x_max":907,"o":"m 7 0 l 7 57 l 146 78 l 174 78 l 325 57 l 325 0 l 7 0 m 99 0 l 419 938 l 507 938 l 826 0 l 690 0 l 415 821 l 443 821 l 436 800 l 164 0 l 99 0 m 246 301 l 246 367 l 643 367 l 643 301 l 246 301 m 529 0 l 529 57 l 704 78 l 735 78 l 907 57 l 907 0 l 529 0 m 483 1190 l 665 1031 l 639 996 l 401 1132 l 518 1132 l 281 996 l 254 1031 l 436 1190 l 483 1190 z "},"Ã":{"ha":922,"x_min":7,"x_max":907,"o":"m 7 0 l 7 57 l 146 78 l 174 78 l 325 57 l 325 0 l 7 0 m 99 0 l 419 938 l 507 938 l 826 0 l 690 0 l 415 821 l 443 821 l 436 800 l 164 0 l 99 0 m 246 301 l 246 367 l 643 367 l 643 301 l 246 301 m 529 0 l 529 57 l 704 78 l 735 78 l 907 57 l 907 0 l 529 0 m 210 1021 q 257 1151 222 1103 q 356 1200 292 1200 q 419 1185 393 1200 q 472 1149 446 1171 q 519 1108 496 1131 q 574 1086 543 1086 q 631 1116 608 1086 q 668 1197 653 1146 l 710 1183 q 663 1054 696 1103 q 565 1006 629 1006 q 501 1019 526 1006 q 451 1051 475 1033 q 401 1096 425 1074 q 346 1118 378 1118 q 290 1089 313 1118 q 251 1008 267 1060 l 210 1021 z "},"Ä":{"ha":922,"x_min":7,"x_max":907,"o":"m 7 0 l 7 57 l 146 78 l 174 78 l 325 57 l 325 0 l 7 0 m 99 0 l 419 938 l 507 938 l 826 0 l 690 0 l 415 821 l 443 821 l 436 800 l 164 0 l 99 0 m 246 301 l 246 367 l 643 367 l 643 301 l 246 301 m 529 0 l 529 57 l 704 78 l 735 78 l 907 57 l 907 0 l 529 0 m 304 1035 q 248 1056 272 1035 q 224 1111 224 1078 q 248 1166 224 1144 q 304 1188 272 1188 q 360 1166 338 1188 q 383 1111 383 1144 q 360 1056 383 1078 q 304 1035 338 1035 m 614 1035 q 558 1056 581 1035 q 535 1111 535 1078 q 558 1166 535 1144 q 614 1188 581 1188 q 670 1166 646 1188 q 694 1111 694 1144 q 670 1056 694 1078 q 614 1035 646 1035 z "},"Ā":{"ha":922,"x_min":7,"x_max":907,"o":"m 7 0 l 7 57 l 146 78 l 174 78 l 325 57 l 325 0 l 7 0 m 99 0 l 419 938 l 507 938 l 826 0 l 690 0 l 415 821 l 443 821 l 436 800 l 164 0 l 99 0 m 246 301 l 246 367 l 643 367 l 643 301 l 246 301 m 529 0 l 529 57 l 704 78 l 735 78 l 907 57 l 907 0 l 529 0 m 265 1054 l 265 1142 l 654 1142 l 654 1054 l 265 1054 z "},"Ă":{"ha":922,"x_min":7,"x_max":907,"o":"m 7 0 l 7 57 l 146 78 l 174 78 l 325 57 l 325 0 l 7 0 m 99 0 l 419 938 l 507 938 l 826 0 l 690 0 l 415 821 l 443 821 l 436 800 l 164 0 l 99 0 m 246 301 l 246 367 l 643 367 l 643 301 l 246 301 m 529 0 l 529 57 l 704 78 l 735 78 l 907 57 l 907 0 l 529 0 m 260 1193 l 303 1208 q 358 1131 318 1161 q 460 1101 399 1101 q 560 1131 522 1101 q 617 1208 599 1161 l 660 1193 q 631 1111 654 1151 q 565 1044 607 1071 q 460 1017 522 1017 q 355 1044 397 1017 q 290 1111 313 1071 q 260 1193 267 1151 z "},"Ắ":{"ha":922,"x_min":7,"x_max":907,"o":"m 7 0 l 7 57 l 146 78 l 174 78 l 325 57 l 325 0 l 7 0 m 99 0 l 419 938 l 507 938 l 826 0 l 690 0 l 415 821 l 443 821 l 436 800 l 164 0 l 99 0 m 246 301 l 246 367 l 643 367 l 643 301 l 246 301 m 529 0 l 529 57 l 704 78 l 735 78 l 907 57 l 907 0 l 529 0 m 460 1017 q 353 1044 396 1017 q 289 1111 311 1071 q 260 1193 267 1151 l 303 1208 q 359 1131 321 1161 q 460 1100 397 1100 q 563 1130 522 1100 q 618 1207 603 1160 l 660 1193 q 631 1111 654 1151 q 566 1044 608 1071 q 460 1017 524 1017 m 422 1185 l 490 1324 q 521 1369 506 1356 q 554 1383 536 1383 q 588 1371 572 1383 q 603 1339 603 1358 q 597 1308 603 1324 q 567 1268 590 1292 l 458 1157 l 422 1185 z "},"Ặ":{"ha":922,"x_min":7,"x_max":907,"o":"m 7 0 l 7 57 l 146 78 l 174 78 l 325 57 l 325 0 l 7 0 m 99 0 l 419 938 l 507 938 l 826 0 l 690 0 l 415 821 l 443 821 l 436 800 l 164 0 l 99 0 m 246 301 l 246 367 l 643 367 l 643 301 l 246 301 m 529 0 l 529 57 l 704 78 l 735 78 l 907 57 l 907 0 l 529 0 m 260 1193 l 303 1208 q 358 1131 318 1161 q 460 1101 399 1101 q 560 1131 522 1101 q 617 1208 599 1161 l 660 1193 q 631 1111 654 1151 q 565 1044 607 1071 q 460 1017 522 1017 q 355 1044 397 1017 q 290 1111 313 1071 q 260 1193 267 1151 z "},"Ằ":{"ha":922,"x_min":7,"x_max":907,"o":"m 7 0 l 7 57 l 146 78 l 174 78 l 325 57 l 325 0 l 7 0 m 99 0 l 419 938 l 507 938 l 826 0 l 690 0 l 415 821 l 443 821 l 436 800 l 164 0 l 99 0 m 246 301 l 246 367 l 643 367 l 643 301 l 246 301 m 529 0 l 529 57 l 704 78 l 735 78 l 907 57 l 907 0 l 529 0 m 460 1017 q 353 1044 396 1017 q 289 1111 311 1071 q 260 1193 267 1151 l 301 1207 q 357 1130 317 1160 q 460 1100 397 1100 q 560 1131 522 1100 q 617 1208 599 1161 l 660 1193 q 631 1111 654 1151 q 566 1044 608 1071 q 460 1017 524 1017 m 497 1185 l 461 1157 l 353 1268 q 324 1308 331 1292 q 317 1339 317 1324 q 332 1371 317 1358 q 365 1383 347 1383 q 399 1369 383 1383 q 429 1324 415 1356 l 497 1185 z "},"Ẳ":{"ha":922,"x_min":7,"x_max":907,"o":"m 7 0 l 7 57 l 146 78 l 174 78 l 325 57 l 325 0 l 7 0 m 99 0 l 419 938 l 507 938 l 826 0 l 690 0 l 415 821 l 443 821 l 436 800 l 164 0 l 99 0 m 246 301 l 246 367 l 643 367 l 643 301 l 246 301 m 529 0 l 529 57 l 704 78 l 735 78 l 907 57 l 907 0 l 529 0 z "},"Ẵ":{"ha":922,"x_min":7,"x_max":907,"o":"m 7 0 l 7 57 l 146 78 l 174 78 l 325 57 l 325 0 l 7 0 m 99 0 l 419 938 l 507 938 l 826 0 l 690 0 l 415 821 l 443 821 l 436 800 l 164 0 l 99 0 m 246 301 l 246 367 l 643 367 l 643 301 l 246 301 m 529 0 l 529 57 l 704 78 l 735 78 l 907 57 l 907 0 l 529 0 m 233 1215 q 275 1306 242 1272 q 365 1340 308 1340 q 424 1331 401 1340 q 469 1310 447 1322 q 516 1287 493 1297 q 567 1276 539 1276 q 619 1293 599 1276 q 653 1340 640 1310 l 686 1325 q 644 1235 676 1269 q 554 1201 613 1201 q 495 1210 519 1201 q 450 1232 471 1219 q 404 1255 428 1244 q 353 1265 381 1265 q 301 1249 322 1265 q 267 1201 279 1232 l 233 1215 m 460 1017 q 358 1040 397 1017 q 297 1097 319 1063 q 264 1167 275 1132 l 303 1182 q 362 1122 326 1144 q 460 1100 397 1100 q 559 1122 522 1100 q 618 1181 596 1144 l 656 1167 q 622 1097 644 1132 q 561 1040 600 1063 q 460 1017 522 1017 z "},"Ǎ":{"ha":922,"x_min":7,"x_max":907,"o":"m 7 0 l 7 57 l 146 78 l 174 78 l 325 57 l 325 0 l 7 0 m 99 0 l 419 938 l 507 938 l 826 0 l 690 0 l 415 821 l 443 821 l 436 800 l 164 0 l 99 0 m 246 301 l 246 367 l 643 367 l 643 301 l 246 301 m 529 0 l 529 57 l 704 78 l 735 78 l 907 57 l 907 0 l 529 0 m 300 1207 l 518 1046 l 401 1046 l 619 1207 l 653 1178 l 511 1014 l 408 1014 l 267 1178 l 300 1207 z "},"Ấ":{"ha":922,"x_min":7,"x_max":907,"o":"m 7 0 l 7 57 l 146 78 l 174 78 l 325 57 l 325 0 l 7 0 m 99 0 l 419 938 l 507 938 l 826 0 l 690 0 l 415 821 l 443 821 l 436 800 l 164 0 l 99 0 m 246 301 l 246 367 l 643 367 l 643 301 l 246 301 m 529 0 l 529 57 l 704 78 l 735 78 l 907 57 l 907 0 l 529 0 m 281 996 l 254 1031 l 436 1190 l 483 1190 l 665 1031 l 639 996 l 401 1132 l 518 1132 l 281 996 m 631 1114 l 601 1144 l 668 1228 q 703 1261 686 1251 q 735 1271 721 1271 q 767 1259 754 1271 q 779 1229 779 1247 q 768 1197 779 1213 q 715 1160 757 1182 l 631 1114 z "},"Ậ":{"ha":922,"x_min":7,"x_max":907,"o":"m 7 0 l 7 57 l 146 78 l 174 78 l 325 57 l 325 0 l 7 0 m 99 0 l 419 938 l 507 938 l 826 0 l 690 0 l 415 821 l 443 821 l 436 800 l 164 0 l 99 0 m 246 301 l 246 367 l 643 367 l 643 301 l 246 301 m 529 0 l 529 57 l 704 78 l 735 78 l 907 57 l 907 0 l 529 0 m 483 1190 l 665 1031 l 639 996 l 401 1132 l 518 1132 l 281 996 l 254 1031 l 436 1190 l 483 1190 z "},"Ầ":{"ha":922,"x_min":7,"x_max":907,"o":"m 7 0 l 7 57 l 146 78 l 174 78 l 325 57 l 325 0 l 7 0 m 99 0 l 419 938 l 507 938 l 826 0 l 690 0 l 415 821 l 443 821 l 436 800 l 164 0 l 99 0 m 246 301 l 246 367 l 643 367 l 643 301 l 246 301 m 529 0 l 529 57 l 704 78 l 735 78 l 907 57 l 907 0 l 529 0 m 639 996 l 401 1132 l 518 1132 l 281 996 l 254 1031 l 436 1190 l 483 1190 l 665 1031 l 639 996 m 275 1117 l 190 1160 q 138 1197 149 1181 q 126 1229 126 1213 q 140 1259 126 1247 q 171 1271 153 1271 q 203 1262 186 1271 q 239 1228 219 1253 l 306 1147 l 275 1117 z "},"Ẩ":{"ha":922,"x_min":7,"x_max":907,"o":"m 7 0 l 7 57 l 146 78 l 174 78 l 325 57 l 325 0 l 7 0 m 99 0 l 419 938 l 507 938 l 826 0 l 690 0 l 415 821 l 443 821 l 436 800 l 164 0 l 99 0 m 246 301 l 246 367 l 643 367 l 643 301 l 246 301 m 529 0 l 529 57 l 704 78 l 735 78 l 907 57 l 907 0 l 529 0 m 281 996 l 254 1031 l 436 1190 l 483 1190 l 665 1031 l 639 996 l 401 1132 l 518 1132 l 281 996 m 614 1136 q 671 1155 654 1144 q 688 1182 688 1165 q 660 1213 688 1201 q 572 1229 632 1224 l 586 1322 q 714 1284 672 1314 q 756 1201 756 1254 q 722 1129 756 1158 q 626 1093 688 1100 l 614 1136 z "},"Ẫ":{"ha":922,"x_min":7,"x_max":907,"o":"m 7 0 l 7 57 l 146 78 l 174 78 l 325 57 l 325 0 l 7 0 m 99 0 l 419 938 l 507 938 l 826 0 l 690 0 l 415 821 l 443 821 l 436 800 l 164 0 l 99 0 m 246 301 l 246 367 l 643 367 l 643 301 l 246 301 m 529 0 l 529 57 l 704 78 l 735 78 l 907 57 l 907 0 l 529 0 m 276 986 l 254 1021 l 436 1153 l 483 1153 l 665 1021 l 643 986 l 401 1094 l 518 1094 l 276 986 m 233 1201 q 275 1292 242 1258 q 365 1326 308 1326 q 424 1317 401 1326 q 469 1296 447 1308 q 516 1273 493 1283 q 567 1263 539 1263 q 619 1279 599 1263 q 653 1326 640 1296 l 686 1311 q 644 1222 676 1256 q 554 1188 613 1188 q 495 1197 519 1188 q 450 1218 471 1206 q 404 1241 428 1231 q 353 1251 381 1251 q 301 1235 322 1251 q 267 1188 279 1218 l 233 1201 z "},"Ạ":{"ha":922,"x_min":7,"x_max":907,"o":"m 7 0 l 7 57 l 146 78 l 174 78 l 325 57 l 325 0 l 7 0 m 99 0 l 419 938 l 507 938 l 826 0 l 690 0 l 415 821 l 443 821 l 436 800 l 164 0 l 99 0 m 246 301 l 246 367 l 643 367 l 643 301 l 246 301 m 529 0 l 529 57 l 704 78 l 735 78 l 907 57 l 907 0 l 529 0 z "},"Ả":{"ha":922,"x_min":7,"x_max":907,"o":"m 7 0 l 7 57 l 146 78 l 174 78 l 325 57 l 325 0 l 7 0 m 99 0 l 419 938 l 507 938 l 826 0 l 690 0 l 415 821 l 443 821 l 436 800 l 164 0 l 99 0 m 246 301 l 246 367 l 643 367 l 643 301 l 246 301 m 529 0 l 529 57 l 704 78 l 735 78 l 907 57 l 907 0 l 529 0 m 433 997 l 421 1040 q 478 1059 461 1049 q 494 1086 494 1069 q 467 1117 494 1106 q 379 1133 439 1128 l 393 1226 q 520 1189 478 1219 q 563 1106 563 1158 q 528 1034 563 1063 q 433 997 494 1006 z "},"Å":{"ha":922,"x_min":7,"x_max":907,"o":"m 7 0 l 7 57 l 146 78 l 174 78 l 325 57 l 325 0 l 7 0 m 99 0 l 419 938 l 507 938 l 826 0 l 690 0 l 415 821 l 443 821 l 436 800 l 164 0 l 99 0 m 246 301 l 246 367 l 643 367 l 643 301 l 246 301 m 529 0 l 529 57 l 704 78 l 735 78 l 907 57 l 907 0 l 529 0 m 460 1004 q 367 1038 408 1004 q 326 1132 326 1071 q 367 1227 326 1193 q 460 1261 408 1261 q 552 1228 511 1261 q 593 1132 593 1194 q 552 1038 593 1072 q 460 1004 511 1004 m 460 1053 q 513 1078 494 1053 q 532 1132 532 1103 q 514 1186 532 1163 q 460 1210 496 1210 q 406 1186 425 1210 q 388 1132 388 1163 q 406 1078 388 1103 q 460 1053 425 1053 z "},"Ą":{"ha":922,"x_min":7,"x_max":907,"o":"m 7 0 l 7 57 l 146 78 l 174 78 l 325 57 l 325 0 l 7 0 m 99 0 l 419 938 l 507 938 l 826 0 l 690 0 l 415 821 l 443 821 l 436 800 l 164 0 l 99 0 m 246 301 l 246 367 l 643 367 l 643 301 l 246 301 m 529 0 l 529 57 l 704 78 l 735 78 l 907 57 l 907 0 l 529 0 m 731 -307 q 647 -276 679 -307 q 614 -192 614 -244 q 633 -107 614 -147 q 683 -35 651 -67 q 754 17 715 -3 l 754 18 l 794 18 q 726 -53 750 -10 q 703 -142 703 -97 q 725 -206 703 -182 q 778 -229 747 -229 q 811 -225 794 -229 q 846 -211 828 -221 l 864 -246 q 806 -293 838 -279 q 731 -307 774 -307 z "},"Æ":{"ha":1278,"x_min":7,"x_max":1231,"o":"m 632 0 q 634 113 633 56 q 635 231 635 171 q 636 354 636 290 l 636 931 l 764 931 q 761 789 763 861 q 760 644 760 717 q 760 499 760 572 l 760 447 q 760 292 760 368 q 761 144 760 217 q 764 0 763 72 l 632 0 m 7 0 l 7 57 l 160 78 l 188 78 l 325 57 l 325 0 l 7 0 m 989 311 l 968 465 l 968 493 l 989 639 l 1053 639 l 1053 311 l 989 311 m 1122 685 l 1092 861 l 697 861 l 697 931 l 1193 931 l 1203 685 l 1122 685 m 697 0 l 697 69 l 1119 69 l 1150 247 l 1231 247 l 1221 0 l 697 0 m 442 874 l 442 931 l 697 931 l 697 853 l 589 853 l 442 874 m 511 0 l 511 57 l 683 78 l 697 78 l 697 0 l 511 0 m 83 0 l 588 931 l 664 931 l 367 378 l 164 0 l 83 0 m 325 346 l 325 410 l 697 410 l 697 346 l 325 346 m 697 442 l 697 507 l 1013 507 l 1013 442 l 697 442 z "},"Ç":{"ha":876,"x_min":65,"x_max":822,"o":"m 536 -21 q 344 15 431 -21 q 196 115 258 50 q 99 269 133 179 q 65 465 65 358 q 101 660 65 571 q 199 814 136 749 q 348 915 263 879 q 535 951 433 951 q 663 938 592 951 q 803 885 733 925 l 808 683 l 722 683 l 688 889 l 774 869 l 774 786 q 659 861 715 840 q 553 882 603 882 q 383 834 460 882 q 262 694 307 786 q 217 465 217 601 q 258 236 217 329 q 374 96 300 143 q 543 49 449 49 q 666 69 603 49 q 788 138 729 89 l 788 61 l 701 42 l 736 247 l 822 247 l 817 46 q 681 -5 753 11 q 536 -21 610 -21 m 500 -119 l 518 4 l 569 4 l 556 -107 l 528 -76 q 606 -92 571 -79 q 664 -131 642 -106 q 686 -194 686 -156 q 647 -274 686 -242 q 531 -307 607 -307 q 478 -302 500 -307 q 443 -293 457 -297 l 453 -247 q 485 -253 469 -250 q 519 -256 501 -256 q 580 -238 560 -256 q 600 -192 600 -221 q 576 -143 600 -160 q 500 -119 551 -126 z "},"Ć":{"ha":876,"x_min":65,"x_max":822,"o":"m 536 -21 q 344 15 431 -21 q 196 115 258 50 q 99 269 133 179 q 65 465 65 358 q 101 660 65 571 q 199 814 136 749 q 348 915 263 879 q 535 951 433 951 q 663 938 592 951 q 803 885 733 925 l 808 683 l 722 683 l 688 889 l 774 869 l 774 786 q 659 861 715 840 q 553 882 603 882 q 383 834 460 882 q 262 694 307 786 q 217 465 217 601 q 258 236 217 329 q 374 96 300 143 q 543 49 449 49 q 666 69 603 49 q 788 138 729 89 l 788 61 l 701 42 l 736 247 l 822 247 l 817 46 q 681 -5 753 11 q 536 -21 610 -21 m 442 1036 q 506 1103 474 1071 q 572 1167 539 1136 q 621 1208 601 1196 q 658 1219 640 1219 q 696 1206 681 1219 q 711 1172 711 1193 q 697 1136 711 1154 q 642 1096 682 1118 q 555 1049 599 1072 q 467 1001 511 1025 l 442 1036 z "},"Č":{"ha":876,"x_min":65,"x_max":822,"o":"m 536 -21 q 344 15 431 -21 q 196 115 258 50 q 99 269 133 179 q 65 465 65 358 q 101 660 65 571 q 199 814 136 749 q 348 915 263 879 q 535 951 433 951 q 663 938 592 951 q 803 885 733 925 l 808 683 l 722 683 l 688 889 l 774 869 l 774 786 q 659 861 715 840 q 553 882 603 882 q 383 834 460 882 q 262 694 307 786 q 217 465 217 601 q 258 236 217 329 q 374 96 300 143 q 543 49 449 49 q 666 69 603 49 q 788 138 729 89 l 788 61 l 701 42 l 736 247 l 822 247 l 817 46 q 681 -5 753 11 q 536 -21 610 -21 m 375 1207 l 593 1046 l 476 1046 l 694 1207 l 728 1178 l 586 1014 l 483 1014 l 342 1178 l 375 1207 z "},"Ĉ":{"ha":876,"x_min":65,"x_max":822,"o":"m 536 -21 q 344 15 431 -21 q 196 115 258 50 q 99 269 133 179 q 65 465 65 358 q 101 660 65 571 q 199 814 136 749 q 348 915 263 879 q 535 951 433 951 q 663 938 592 951 q 803 885 733 925 l 808 683 l 722 683 l 688 889 l 774 869 l 774 786 q 659 861 715 840 q 553 882 603 882 q 383 834 460 882 q 262 694 307 786 q 217 465 217 601 q 258 236 217 329 q 374 96 300 143 q 543 49 449 49 q 666 69 603 49 q 788 138 729 89 l 788 61 l 701 42 l 736 247 l 822 247 l 817 46 q 681 -5 753 11 q 536 -21 610 -21 m 558 1190 l 740 1031 l 714 996 l 476 1132 l 593 1132 l 356 996 l 329 1031 l 511 1190 l 558 1190 z "},"Ċ":{"ha":876,"x_min":65,"x_max":822,"o":"m 536 -21 q 344 15 431 -21 q 196 115 258 50 q 99 269 133 179 q 65 465 65 358 q 101 660 65 571 q 199 814 136 749 q 348 915 263 879 q 535 951 433 951 q 663 938 592 951 q 803 885 733 925 l 808 683 l 722 683 l 688 889 l 774 869 l 774 786 q 659 861 715 840 q 553 882 603 882 q 383 834 460 882 q 262 694 307 786 q 217 465 217 601 q 258 236 217 329 q 374 96 300 143 q 543 49 449 49 q 666 69 603 49 q 788 138 729 89 l 788 61 l 701 42 l 736 247 l 822 247 l 817 46 q 681 -5 753 11 q 536 -21 610 -21 m 535 1024 q 469 1049 496 1024 q 442 1113 442 1074 q 469 1177 442 1153 q 535 1201 496 1201 q 601 1177 575 1201 q 628 1113 628 1153 q 601 1049 628 1074 q 535 1024 575 1024 z "},"Ď":{"ha":986,"x_min":61,"x_max":921,"o":"m 61 0 l 61 57 l 243 78 l 257 78 l 257 0 l 61 0 m 188 0 q 191 142 190 71 q 192 290 192 214 q 192 447 192 367 l 192 499 q 192 643 192 571 q 191 788 192 715 q 188 931 190 860 l 328 931 q 325 789 326 861 q 324 644 324 717 q 324 499 324 572 l 324 447 q 324 292 324 368 q 325 144 324 217 q 328 0 326 72 l 188 0 m 257 0 l 257 65 l 436 65 q 617 113 543 65 q 731 249 692 160 q 769 464 769 338 q 685 763 769 660 q 449 867 600 867 l 257 867 l 257 931 l 471 931 q 706 876 604 931 q 864 719 807 822 q 921 464 921 615 q 858 210 921 314 q 688 53 796 107 q 444 0 581 0 l 257 0 m 61 874 l 61 931 l 257 931 l 257 853 l 243 853 l 61 874 m 313 1207 l 531 1046 l 414 1046 l 632 1207 l 665 1178 l 524 1014 l 421 1014 l 279 1178 l 313 1207 z "},"Đ":{"ha":986,"x_min":61,"x_max":921,"o":"m 536 443 l 61 443 l 61 508 l 536 508 l 536 443 m 61 0 l 61 57 l 243 78 l 257 78 l 257 0 l 61 0 m 188 0 q 191 142 190 71 q 192 290 192 214 q 192 447 192 367 l 192 499 q 192 643 192 571 q 191 788 192 715 q 188 931 190 860 l 328 931 q 325 789 326 861 q 324 644 324 717 q 324 499 324 572 l 324 447 q 324 292 324 368 q 325 144 324 217 q 328 0 326 72 l 188 0 m 257 0 l 257 65 l 436 65 q 617 113 543 65 q 731 249 692 160 q 769 464 769 338 q 685 763 769 660 q 449 867 600 867 l 257 867 l 257 931 l 471 931 q 706 876 604 931 q 864 719 807 822 q 921 464 921 615 q 858 210 921 314 q 688 53 796 107 q 444 0 581 0 l 257 0 m 61 874 l 61 931 l 257 931 l 257 853 l 243 853 l 61 874 z "},"Ḍ":{"ha":986,"x_min":61,"x_max":921,"o":"m 61 0 l 61 57 l 243 78 l 257 78 l 257 0 l 61 0 m 188 0 q 191 142 190 71 q 192 290 192 214 q 192 447 192 367 l 192 499 q 192 643 192 571 q 191 788 192 715 q 188 931 190 860 l 328 931 q 325 789 326 861 q 324 644 324 717 q 324 499 324 572 l 324 447 q 324 292 324 368 q 325 144 324 217 q 328 0 326 72 l 188 0 m 257 0 l 257 65 l 436 65 q 617 113 543 65 q 731 249 692 160 q 769 464 769 338 q 685 763 769 660 q 449 867 600 867 l 257 867 l 257 931 l 471 931 q 706 876 604 931 q 864 719 807 822 q 921 464 921 615 q 858 210 921 314 q 688 53 796 107 q 444 0 581 0 l 257 0 m 61 874 l 61 931 l 257 931 l 257 853 l 243 853 l 61 874 z "},"Ḏ":{"ha":986,"x_min":61,"x_max":921,"o":"m 61 0 l 61 57 l 243 78 l 257 78 l 257 0 l 61 0 m 188 0 q 191 142 190 71 q 192 290 192 214 q 192 447 192 367 l 192 499 q 192 643 192 571 q 191 788 192 715 q 188 931 190 860 l 328 931 q 325 789 326 861 q 324 644 324 717 q 324 499 324 572 l 324 447 q 324 292 324 368 q 325 144 324 217 q 328 0 326 72 l 188 0 m 257 0 l 257 65 l 436 65 q 617 113 543 65 q 731 249 692 160 q 769 464 769 338 q 685 763 769 660 q 449 867 600 867 l 257 867 l 257 931 l 471 931 q 706 876 604 931 q 864 719 807 822 q 921 464 921 615 q 858 210 921 314 q 688 53 796 107 q 444 0 581 0 l 257 0 m 61 874 l 61 931 l 257 931 l 257 853 l 243 853 l 61 874 z "},"È":{"ha":838,"x_min":61,"x_max":790,"o":"m 61 0 l 61 57 l 243 78 l 257 78 l 257 0 l 61 0 m 188 0 q 191 142 190 71 q 192 285 192 213 q 192 431 192 358 l 192 499 q 192 643 192 571 q 191 788 192 715 q 188 931 190 860 l 328 931 q 325 789 326 861 q 324 644 324 717 q 324 499 324 572 l 324 447 q 324 292 324 368 q 325 144 324 217 q 328 0 326 72 l 188 0 m 257 0 l 257 69 l 722 69 l 674 28 l 711 247 l 790 247 l 781 0 l 257 0 m 257 442 l 257 507 l 571 507 l 571 442 l 257 442 m 547 311 l 526 465 l 526 493 l 547 639 l 611 639 l 611 311 l 547 311 m 61 874 l 61 931 l 257 931 l 257 853 l 243 853 l 61 874 m 683 685 l 646 903 l 694 861 l 257 861 l 257 931 l 753 931 l 763 685 l 683 685 m 553 1036 l 528 1001 q 440 1049 483 1025 q 353 1094 396 1072 q 299 1135 314 1117 q 283 1172 283 1154 q 299 1206 283 1193 q 336 1219 314 1219 q 374 1208 354 1219 q 422 1167 393 1196 q 490 1102 457 1135 q 553 1036 522 1069 z "},"É":{"ha":838,"x_min":61,"x_max":790,"o":"m 61 0 l 61 57 l 243 78 l 257 78 l 257 0 l 61 0 m 188 0 q 191 142 190 71 q 192 285 192 213 q 192 431 192 358 l 192 499 q 192 643 192 571 q 191 788 192 715 q 188 931 190 860 l 328 931 q 325 789 326 861 q 324 644 324 717 q 324 499 324 572 l 324 447 q 324 292 324 368 q 325 144 324 217 q 328 0 326 72 l 188 0 m 257 0 l 257 69 l 722 69 l 674 28 l 711 247 l 790 247 l 781 0 l 257 0 m 257 442 l 257 507 l 571 507 l 571 442 l 257 442 m 547 311 l 526 465 l 526 493 l 547 639 l 611 639 l 611 311 l 547 311 m 61 874 l 61 931 l 257 931 l 257 853 l 243 853 l 61 874 m 683 685 l 646 903 l 694 861 l 257 861 l 257 931 l 753 931 l 763 685 l 683 685 m 367 1036 q 431 1103 399 1071 q 497 1167 464 1136 q 546 1208 526 1196 q 583 1219 565 1219 q 621 1206 606 1219 q 636 1172 636 1193 q 622 1136 636 1154 q 567 1096 607 1118 q 480 1049 524 1072 q 392 1001 436 1025 l 367 1036 z "},"Ê":{"ha":838,"x_min":61,"x_max":790,"o":"m 61 0 l 61 57 l 243 78 l 257 78 l 257 0 l 61 0 m 188 0 q 191 142 190 71 q 192 285 192 213 q 192 431 192 358 l 192 499 q 192 643 192 571 q 191 788 192 715 q 188 931 190 860 l 328 931 q 325 789 326 861 q 324 644 324 717 q 324 499 324 572 l 324 447 q 324 292 324 368 q 325 144 324 217 q 328 0 326 72 l 188 0 m 257 0 l 257 69 l 722 69 l 674 28 l 711 247 l 790 247 l 781 0 l 257 0 m 257 442 l 257 507 l 571 507 l 571 442 l 257 442 m 547 311 l 526 465 l 526 493 l 547 639 l 611 639 l 611 311 l 547 311 m 61 874 l 61 931 l 257 931 l 257 853 l 243 853 l 61 874 m 683 685 l 646 903 l 694 861 l 257 861 l 257 931 l 753 931 l 763 685 l 683 685 m 483 1190 l 665 1031 l 639 996 l 401 1132 l 518 1132 l 281 996 l 254 1031 l 436 1190 l 483 1190 z "},"Ě":{"ha":838,"x_min":61,"x_max":790,"o":"m 61 0 l 61 57 l 243 78 l 257 78 l 257 0 l 61 0 m 188 0 q 191 142 190 71 q 192 285 192 213 q 192 431 192 358 l 192 499 q 192 643 192 571 q 191 788 192 715 q 188 931 190 860 l 328 931 q 325 789 326 861 q 324 644 324 717 q 324 499 324 572 l 324 447 q 324 292 324 368 q 325 144 324 217 q 328 0 326 72 l 188 0 m 257 0 l 257 69 l 722 69 l 674 28 l 711 247 l 790 247 l 781 0 l 257 0 m 257 442 l 257 507 l 571 507 l 571 442 l 257 442 m 547 311 l 526 465 l 526 493 l 547 639 l 611 639 l 611 311 l 547 311 m 61 874 l 61 931 l 257 931 l 257 853 l 243 853 l 61 874 m 683 685 l 646 903 l 694 861 l 257 861 l 257 931 l 753 931 l 763 685 l 683 685 m 300 1207 l 518 1046 l 401 1046 l 619 1207 l 653 1178 l 511 1014 l 408 1014 l 267 1178 l 300 1207 z "},"Ë":{"ha":838,"x_min":61,"x_max":790,"o":"m 61 0 l 61 57 l 243 78 l 257 78 l 257 0 l 61 0 m 188 0 q 191 142 190 71 q 192 285 192 213 q 192 431 192 358 l 192 499 q 192 643 192 571 q 191 788 192 715 q 188 931 190 860 l 328 931 q 325 789 326 861 q 324 644 324 717 q 324 499 324 572 l 324 447 q 324 292 324 368 q 325 144 324 217 q 328 0 326 72 l 188 0 m 257 0 l 257 69 l 722 69 l 674 28 l 711 247 l 790 247 l 781 0 l 257 0 m 257 442 l 257 507 l 571 507 l 571 442 l 257 442 m 547 311 l 526 465 l 526 493 l 547 639 l 611 639 l 611 311 l 547 311 m 61 874 l 61 931 l 257 931 l 257 853 l 243 853 l 61 874 m 683 685 l 646 903 l 694 861 l 257 861 l 257 931 l 753 931 l 763 685 l 683 685 m 304 1035 q 248 1056 272 1035 q 224 1111 224 1078 q 248 1166 224 1144 q 304 1188 272 1188 q 360 1166 338 1188 q 383 1111 383 1144 q 360 1056 383 1078 q 304 1035 338 1035 m 614 1035 q 558 1056 581 1035 q 535 1111 535 1078 q 558 1166 535 1144 q 614 1188 581 1188 q 670 1166 646 1188 q 694 1111 694 1144 q 670 1056 694 1078 q 614 1035 646 1035 z "},"Ē":{"ha":838,"x_min":61,"x_max":790,"o":"m 61 0 l 61 57 l 243 78 l 257 78 l 257 0 l 61 0 m 188 0 q 191 142 190 71 q 192 285 192 213 q 192 431 192 358 l 192 499 q 192 643 192 571 q 191 788 192 715 q 188 931 190 860 l 328 931 q 325 789 326 861 q 324 644 324 717 q 324 499 324 572 l 324 447 q 324 292 324 368 q 325 144 324 217 q 328 0 326 72 l 188 0 m 257 0 l 257 69 l 722 69 l 674 28 l 711 247 l 790 247 l 781 0 l 257 0 m 257 442 l 257 507 l 571 507 l 571 442 l 257 442 m 547 311 l 526 465 l 526 493 l 547 639 l 611 639 l 611 311 l 547 311 m 61 874 l 61 931 l 257 931 l 257 853 l 243 853 l 61 874 m 683 685 l 646 903 l 694 861 l 257 861 l 257 931 l 753 931 l 763 685 l 683 685 m 265 1054 l 265 1142 l 654 1142 l 654 1054 l 265 1054 z "},"Ė":{"ha":838,"x_min":61,"x_max":790,"o":"m 61 0 l 61 57 l 243 78 l 257 78 l 257 0 l 61 0 m 188 0 q 191 142 190 71 q 192 285 192 213 q 192 431 192 358 l 192 499 q 192 643 192 571 q 191 788 192 715 q 188 931 190 860 l 328 931 q 325 789 326 861 q 324 644 324 717 q 324 499 324 572 l 324 447 q 324 292 324 368 q 325 144 324 217 q 328 0 326 72 l 188 0 m 257 0 l 257 69 l 722 69 l 674 28 l 711 247 l 790 247 l 781 0 l 257 0 m 257 442 l 257 507 l 571 507 l 571 442 l 257 442 m 547 311 l 526 465 l 526 493 l 547 639 l 611 639 l 611 311 l 547 311 m 61 874 l 61 931 l 257 931 l 257 853 l 243 853 l 61 874 m 683 685 l 646 903 l 694 861 l 257 861 l 257 931 l 753 931 l 763 685 l 683 685 m 460 1024 q 394 1049 421 1024 q 367 1113 367 1074 q 394 1177 367 1153 q 460 1201 421 1201 q 526 1177 500 1201 q 553 1113 553 1153 q 526 1049 553 1074 q 460 1024 500 1024 z "},"Ę":{"ha":838,"x_min":61,"x_max":790,"o":"m 61 0 l 61 57 l 243 78 l 257 78 l 257 0 l 61 0 m 188 0 q 191 142 190 71 q 192 285 192 213 q 192 431 192 358 l 192 499 q 192 643 192 571 q 191 788 192 715 q 188 931 190 860 l 328 931 q 325 789 326 861 q 324 644 324 717 q 324 499 324 572 l 324 447 q 324 292 324 368 q 325 144 324 217 q 328 0 326 72 l 188 0 m 257 0 l 257 69 l 722 69 l 674 28 l 711 247 l 790 247 l 781 0 l 257 0 m 257 442 l 257 507 l 571 507 l 571 442 l 257 442 m 547 311 l 526 465 l 526 493 l 547 639 l 611 639 l 611 311 l 547 311 m 61 874 l 61 931 l 257 931 l 257 853 l 243 853 l 61 874 m 683 685 l 646 903 l 694 861 l 257 861 l 257 931 l 753 931 l 763 685 l 683 685 m 635 -307 q 551 -276 583 -307 q 518 -192 518 -244 q 537 -107 518 -147 q 588 -35 556 -67 q 658 17 619 -3 l 658 18 l 699 18 q 631 -53 654 -10 q 607 -142 607 -97 q 629 -206 607 -182 q 682 -229 651 -229 q 715 -225 699 -229 q 750 -211 732 -221 l 768 -246 q 710 -293 742 -279 q 635 -307 678 -307 z "},"Ĕ":{"ha":838,"x_min":61,"x_max":790,"o":"m 61 0 l 61 57 l 243 78 l 257 78 l 257 0 l 61 0 m 188 0 q 191 142 190 71 q 192 285 192 213 q 192 431 192 358 l 192 499 q 192 643 192 571 q 191 788 192 715 q 188 931 190 860 l 328 931 q 325 789 326 861 q 324 644 324 717 q 324 499 324 572 l 324 447 q 324 292 324 368 q 325 144 324 217 q 328 0 326 72 l 188 0 m 257 0 l 257 69 l 722 69 l 674 28 l 711 247 l 790 247 l 781 0 l 257 0 m 257 442 l 257 507 l 571 507 l 571 442 l 257 442 m 547 311 l 526 465 l 526 493 l 547 639 l 611 639 l 611 311 l 547 311 m 61 874 l 61 931 l 257 931 l 257 853 l 243 853 l 61 874 m 683 685 l 646 903 l 694 861 l 257 861 l 257 931 l 753 931 l 763 685 l 683 685 m 260 1193 l 303 1208 q 358 1131 318 1161 q 460 1101 399 1101 q 560 1131 522 1101 q 617 1208 599 1161 l 660 1193 q 631 1111 654 1151 q 565 1044 607 1071 q 460 1017 522 1017 q 355 1044 397 1017 q 290 1111 313 1071 q 260 1193 267 1151 z "},"Ế":{"ha":838,"x_min":61,"x_max":790,"o":"m 61 0 l 61 57 l 243 78 l 257 78 l 257 0 l 61 0 m 188 0 q 191 142 190 71 q 192 285 192 213 q 192 431 192 358 l 192 499 q 192 643 192 571 q 191 788 192 715 q 188 931 190 860 l 328 931 q 325 789 326 861 q 324 644 324 717 q 324 499 324 572 l 324 447 q 324 292 324 368 q 325 144 324 217 q 328 0 326 72 l 188 0 m 257 0 l 257 69 l 722 69 l 674 28 l 711 247 l 790 247 l 781 0 l 257 0 m 257 442 l 257 507 l 571 507 l 571 442 l 257 442 m 547 311 l 526 465 l 526 493 l 547 639 l 611 639 l 611 311 l 547 311 m 61 874 l 61 931 l 257 931 l 257 853 l 243 853 l 61 874 m 683 685 l 646 903 l 694 861 l 257 861 l 257 931 l 753 931 l 763 685 l 683 685 m 281 996 l 254 1031 l 436 1190 l 483 1190 l 665 1031 l 639 996 l 401 1132 l 518 1132 l 281 996 m 631 1114 l 601 1144 l 668 1228 q 703 1261 686 1251 q 735 1271 721 1271 q 767 1259 754 1271 q 779 1229 779 1247 q 768 1197 779 1213 q 715 1160 757 1182 l 631 1114 z "},"Ệ":{"ha":838,"x_min":61,"x_max":790,"o":"m 61 0 l 61 57 l 243 78 l 257 78 l 257 0 l 61 0 m 188 0 q 191 142 190 71 q 192 285 192 213 q 192 431 192 358 l 192 499 q 192 643 192 571 q 191 788 192 715 q 188 931 190 860 l 328 931 q 325 789 326 861 q 324 644 324 717 q 324 499 324 572 l 324 447 q 324 292 324 368 q 325 144 324 217 q 328 0 326 72 l 188 0 m 257 0 l 257 69 l 722 69 l 674 28 l 711 247 l 790 247 l 781 0 l 257 0 m 257 442 l 257 507 l 571 507 l 571 442 l 257 442 m 547 311 l 526 465 l 526 493 l 547 639 l 611 639 l 611 311 l 547 311 m 61 874 l 61 931 l 257 931 l 257 853 l 243 853 l 61 874 m 683 685 l 646 903 l 694 861 l 257 861 l 257 931 l 753 931 l 763 685 l 683 685 m 483 1190 l 665 1031 l 639 996 l 401 1132 l 518 1132 l 281 996 l 254 1031 l 436 1190 l 483 1190 z "},"Ề":{"ha":838,"x_min":61,"x_max":790,"o":"m 61 0 l 61 57 l 243 78 l 257 78 l 257 0 l 61 0 m 188 0 q 191 142 190 71 q 192 285 192 213 q 192 431 192 358 l 192 499 q 192 643 192 571 q 191 788 192 715 q 188 931 190 860 l 328 931 q 325 789 326 861 q 324 644 324 717 q 324 499 324 572 l 324 447 q 324 292 324 368 q 325 144 324 217 q 328 0 326 72 l 188 0 m 257 0 l 257 69 l 722 69 l 674 28 l 711 247 l 790 247 l 781 0 l 257 0 m 257 442 l 257 507 l 571 507 l 571 442 l 257 442 m 547 311 l 526 465 l 526 493 l 547 639 l 611 639 l 611 311 l 547 311 m 61 874 l 61 931 l 257 931 l 257 853 l 243 853 l 61 874 m 683 685 l 646 903 l 694 861 l 257 861 l 257 931 l 753 931 l 763 685 l 683 685 m 639 996 l 401 1132 l 518 1132 l 281 996 l 254 1031 l 436 1190 l 483 1190 l 665 1031 l 639 996 m 275 1117 l 190 1160 q 138 1197 149 1181 q 126 1229 126 1213 q 140 1259 126 1247 q 171 1271 153 1271 q 203 1262 186 1271 q 239 1228 219 1253 l 306 1147 l 275 1117 z "},"Ể":{"ha":838,"x_min":61,"x_max":790,"o":"m 61 0 l 61 57 l 243 78 l 257 78 l 257 0 l 61 0 m 188 0 q 191 142 190 71 q 192 285 192 213 q 192 431 192 358 l 192 499 q 192 643 192 571 q 191 788 192 715 q 188 931 190 860 l 328 931 q 325 789 326 861 q 324 644 324 717 q 324 499 324 572 l 324 447 q 324 292 324 368 q 325 144 324 217 q 328 0 326 72 l 188 0 m 257 0 l 257 69 l 722 69 l 674 28 l 711 247 l 790 247 l 781 0 l 257 0 m 257 442 l 257 507 l 571 507 l 571 442 l 257 442 m 547 311 l 526 465 l 526 493 l 547 639 l 611 639 l 611 311 l 547 311 m 61 874 l 61 931 l 257 931 l 257 853 l 243 853 l 61 874 m 683 685 l 646 903 l 694 861 l 257 861 l 257 931 l 753 931 l 763 685 l 683 685 m 281 996 l 254 1031 l 436 1190 l 483 1190 l 665 1031 l 639 996 l 401 1132 l 518 1132 l 281 996 m 614 1136 q 671 1155 654 1144 q 688 1182 688 1165 q 660 1213 688 1201 q 572 1229 632 1224 l 586 1322 q 714 1284 672 1314 q 756 1201 756 1254 q 722 1129 756 1158 q 626 1093 688 1100 l 614 1136 z "},"Ễ":{"ha":838,"x_min":61,"x_max":790,"o":"m 61 0 l 61 57 l 243 78 l 257 78 l 257 0 l 61 0 m 188 0 q 191 142 190 71 q 192 285 192 213 q 192 431 192 358 l 192 499 q 192 643 192 571 q 191 788 192 715 q 188 931 190 860 l 328 931 q 325 789 326 861 q 324 644 324 717 q 324 499 324 572 l 324 447 q 324 292 324 368 q 325 144 324 217 q 328 0 326 72 l 188 0 m 257 0 l 257 69 l 722 69 l 674 28 l 711 247 l 790 247 l 781 0 l 257 0 m 257 442 l 257 507 l 571 507 l 571 442 l 257 442 m 547 311 l 526 465 l 526 493 l 547 639 l 611 639 l 611 311 l 547 311 m 61 874 l 61 931 l 257 931 l 257 853 l 243 853 l 61 874 m 683 685 l 646 903 l 694 861 l 257 861 l 257 931 l 753 931 l 763 685 l 683 685 m 276 986 l 254 1021 l 436 1153 l 483 1153 l 665 1021 l 643 986 l 401 1094 l 518 1094 l 276 986 m 233 1201 q 275 1292 242 1258 q 365 1326 308 1326 q 424 1317 401 1326 q 469 1296 447 1308 q 516 1273 493 1283 q 567 1263 539 1263 q 619 1279 599 1263 q 653 1326 640 1296 l 686 1311 q 644 1222 676 1256 q 554 1188 613 1188 q 495 1197 519 1188 q 450 1218 471 1206 q 404 1241 428 1231 q 353 1251 381 1251 q 301 1235 322 1251 q 267 1188 279 1218 l 233 1201 z "},"Ẹ":{"ha":838,"x_min":61,"x_max":790,"o":"m 61 0 l 61 57 l 243 78 l 257 78 l 257 0 l 61 0 m 188 0 q 191 142 190 71 q 192 285 192 213 q 192 431 192 358 l 192 499 q 192 643 192 571 q 191 788 192 715 q 188 931 190 860 l 328 931 q 325 789 326 861 q 324 644 324 717 q 324 499 324 572 l 324 447 q 324 292 324 368 q 325 144 324 217 q 328 0 326 72 l 188 0 m 257 0 l 257 69 l 722 69 l 674 28 l 711 247 l 790 247 l 781 0 l 257 0 m 257 442 l 257 507 l 571 507 l 571 442 l 257 442 m 547 311 l 526 465 l 526 493 l 547 639 l 611 639 l 611 311 l 547 311 m 61 874 l 61 931 l 257 931 l 257 853 l 243 853 l 61 874 m 683 685 l 646 903 l 694 861 l 257 861 l 257 931 l 753 931 l 763 685 l 683 685 z "},"Ẻ":{"ha":838,"x_min":61,"x_max":790,"o":"m 61 0 l 61 57 l 243 78 l 257 78 l 257 0 l 61 0 m 188 0 q 191 142 190 71 q 192 285 192 213 q 192 431 192 358 l 192 499 q 192 643 192 571 q 191 788 192 715 q 188 931 190 860 l 328 931 q 325 789 326 861 q 324 644 324 717 q 324 499 324 572 l 324 447 q 324 292 324 368 q 325 144 324 217 q 328 0 326 72 l 188 0 m 257 0 l 257 69 l 722 69 l 674 28 l 711 247 l 790 247 l 781 0 l 257 0 m 257 442 l 257 507 l 571 507 l 571 442 l 257 442 m 547 311 l 526 465 l 526 493 l 547 639 l 611 639 l 611 311 l 547 311 m 61 874 l 61 931 l 257 931 l 257 853 l 243 853 l 61 874 m 683 685 l 646 903 l 694 861 l 257 861 l 257 931 l 753 931 l 763 685 l 683 685 m 433 997 l 421 1040 q 478 1059 461 1049 q 494 1086 494 1069 q 467 1117 494 1106 q 379 1133 439 1128 l 393 1226 q 520 1189 478 1219 q 563 1106 563 1158 q 528 1034 563 1063 q 433 997 494 1006 z "},"Ẽ":{"ha":838,"x_min":61,"x_max":790,"o":"m 61 0 l 61 57 l 243 78 l 257 78 l 257 0 l 61 0 m 188 0 q 191 142 190 71 q 192 285 192 213 q 192 431 192 358 l 192 499 q 192 643 192 571 q 191 788 192 715 q 188 931 190 860 l 328 931 q 325 789 326 861 q 324 644 324 717 q 324 499 324 572 l 324 447 q 324 292 324 368 q 325 144 324 217 q 328 0 326 72 l 188 0 m 257 0 l 257 69 l 722 69 l 674 28 l 711 247 l 790 247 l 781 0 l 257 0 m 257 442 l 257 507 l 571 507 l 571 442 l 257 442 m 547 311 l 526 465 l 526 493 l 547 639 l 611 639 l 611 311 l 547 311 m 61 874 l 61 931 l 257 931 l 257 853 l 243 853 l 61 874 m 683 685 l 646 903 l 694 861 l 257 861 l 257 931 l 753 931 l 763 685 l 683 685 m 210 1021 q 257 1151 222 1103 q 356 1200 292 1200 q 419 1185 393 1200 q 472 1149 446 1171 q 519 1108 496 1131 q 574 1086 543 1086 q 631 1116 608 1086 q 668 1197 653 1146 l 710 1183 q 663 1054 696 1103 q 565 1006 629 1006 q 501 1019 526 1006 q 451 1051 475 1033 q 401 1096 425 1074 q 346 1118 378 1118 q 290 1089 313 1118 q 251 1008 267 1060 l 210 1021 z "},"Ğ":{"ha":947,"x_min":65,"x_max":926,"o":"m 533 -21 q 343 15 429 -21 q 194 117 257 51 q 99 271 132 182 q 65 465 65 360 q 99 658 65 569 q 196 813 133 747 q 346 915 258 879 q 539 951 433 951 q 644 944 596 951 q 736 923 693 938 q 818 886 779 908 l 824 683 l 738 683 l 701 890 l 789 863 l 789 783 q 675 859 733 836 q 551 882 617 882 q 380 833 456 882 q 260 692 304 785 q 217 465 217 599 q 258 240 217 332 q 377 99 300 147 q 560 50 454 50 q 667 64 619 50 q 774 107 715 78 l 708 40 l 708 122 q 708 282 708 201 q 704 442 707 363 l 843 442 q 840 284 842 364 q 839 122 839 204 l 839 61 q 693 1 767 24 q 533 -21 619 -21 m 561 386 l 561 442 l 926 442 l 926 386 l 772 371 l 742 371 l 561 386 m 342 1193 l 385 1208 q 440 1131 400 1161 q 542 1101 481 1101 q 642 1131 604 1101 q 699 1208 681 1161 l 742 1193 q 713 1111 736 1151 q 647 1044 689 1071 q 542 1017 604 1017 q 437 1044 479 1017 q 372 1111 394 1071 q 342 1193 349 1151 z "},"Ġ":{"ha":947,"x_min":65,"x_max":926,"o":"m 533 -21 q 343 15 429 -21 q 194 117 257 51 q 99 271 132 182 q 65 465 65 360 q 99 658 65 569 q 196 813 133 747 q 346 915 258 879 q 539 951 433 951 q 644 944 596 951 q 736 923 693 938 q 818 886 779 908 l 824 683 l 738 683 l 701 890 l 789 863 l 789 783 q 675 859 733 836 q 551 882 617 882 q 380 833 456 882 q 260 692 304 785 q 217 465 217 599 q 258 240 217 332 q 377 99 300 147 q 560 50 454 50 q 667 64 619 50 q 774 107 715 78 l 708 40 l 708 122 q 708 282 708 201 q 704 442 707 363 l 843 442 q 840 284 842 364 q 839 122 839 204 l 839 61 q 693 1 767 24 q 533 -21 619 -21 m 561 386 l 561 442 l 926 442 l 926 386 l 772 371 l 742 371 l 561 386 m 542 1024 q 476 1049 503 1024 q 449 1113 449 1074 q 476 1177 449 1153 q 542 1201 503 1201 q 608 1177 582 1201 q 635 1113 635 1153 q 608 1049 635 1074 q 542 1024 582 1024 z "},"Ģ":{"ha":947,"x_min":65,"x_max":926,"o":"m 533 -21 q 343 15 429 -21 q 194 117 257 51 q 99 271 132 182 q 65 465 65 360 q 99 658 65 569 q 196 813 133 747 q 346 915 258 879 q 539 951 433 951 q 644 944 596 951 q 736 923 693 938 q 818 886 779 908 l 824 683 l 738 683 l 701 890 l 789 863 l 789 783 q 675 859 733 836 q 551 882 617 882 q 380 833 456 882 q 260 692 304 785 q 217 465 217 599 q 258 240 217 332 q 377 99 300 147 q 560 50 454 50 q 667 64 619 50 q 774 107 715 78 l 708 40 l 708 122 q 708 282 708 201 q 704 442 707 363 l 843 442 q 840 284 842 364 q 839 122 839 204 l 839 61 q 693 1 767 24 q 533 -21 619 -21 m 561 386 l 561 442 l 926 442 l 926 386 l 772 371 l 742 371 l 561 386 m 628 -174 q 608 -251 628 -217 q 554 -309 588 -285 q 481 -347 521 -333 l 464 -306 q 537 -256 511 -283 q 567 -201 563 -229 l 582 -242 q 508 -194 531 -224 q 486 -143 486 -165 q 502 -92 486 -112 q 553 -71 518 -71 q 586 -78 569 -71 q 619 -101 603 -85 q 626 -139 625 -122 q 628 -174 628 -156 z "},"Ǧ":{"ha":947,"x_min":65,"x_max":926,"o":"m 533 -21 q 343 15 429 -21 q 194 117 257 51 q 99 271 132 182 q 65 465 65 360 q 99 658 65 569 q 196 813 133 747 q 346 915 258 879 q 539 951 433 951 q 644 944 596 951 q 736 923 693 938 q 818 886 779 908 l 824 683 l 738 683 l 701 890 l 789 863 l 789 783 q 675 859 733 836 q 551 882 617 882 q 380 833 456 882 q 260 692 304 785 q 217 465 217 599 q 258 240 217 332 q 377 99 300 147 q 560 50 454 50 q 667 64 619 50 q 774 107 715 78 l 708 40 l 708 122 q 708 282 708 201 q 704 442 707 363 l 843 442 q 840 284 842 364 q 839 122 839 204 l 839 61 q 693 1 767 24 q 533 -21 619 -21 m 561 386 l 561 442 l 926 442 l 926 386 l 772 371 l 742 371 l 561 386 m 382 1207 l 600 1046 l 483 1046 l 701 1207 l 735 1178 l 593 1014 l 490 1014 l 349 1178 l 382 1207 z "},"Ĝ":{"ha":947,"x_min":65,"x_max":926,"o":"m 533 -21 q 343 15 429 -21 q 194 117 257 51 q 99 271 132 182 q 65 465 65 360 q 99 658 65 569 q 196 813 133 747 q 346 915 258 879 q 539 951 433 951 q 644 944 596 951 q 736 923 693 938 q 818 886 779 908 l 824 683 l 738 683 l 701 890 l 789 863 l 789 783 q 675 859 733 836 q 551 882 617 882 q 380 833 456 882 q 260 692 304 785 q 217 465 217 599 q 258 240 217 332 q 377 99 300 147 q 560 50 454 50 q 667 64 619 50 q 774 107 715 78 l 708 40 l 708 122 q 708 282 708 201 q 704 442 707 363 l 843 442 q 840 284 842 364 q 839 122 839 204 l 839 61 q 693 1 767 24 q 533 -21 619 -21 m 561 386 l 561 442 l 926 442 l 926 386 l 772 371 l 742 371 l 561 386 m 565 1190 l 747 1031 l 721 996 l 483 1132 l 600 1132 l 363 996 l 336 1031 l 518 1190 l 565 1190 z "},"Ḡ":{"ha":947,"x_min":65,"x_max":926,"o":"m 533 -21 q 343 15 429 -21 q 194 117 257 51 q 99 271 132 182 q 65 465 65 360 q 99 658 65 569 q 196 813 133 747 q 346 915 258 879 q 539 951 433 951 q 644 944 596 951 q 736 923 693 938 q 818 886 779 908 l 824 683 l 738 683 l 701 890 l 789 863 l 789 783 q 675 859 733 836 q 551 882 617 882 q 380 833 456 882 q 260 692 304 785 q 217 465 217 599 q 258 240 217 332 q 377 99 300 147 q 560 50 454 50 q 667 64 619 50 q 774 107 715 78 l 708 40 l 708 122 q 708 282 708 201 q 704 442 707 363 l 843 442 q 840 284 842 364 q 839 122 839 204 l 839 61 q 693 1 767 24 q 533 -21 619 -21 m 561 386 l 561 442 l 926 442 l 926 386 l 772 371 l 742 371 l 561 386 m 347 1054 l 347 1142 l 736 1142 l 736 1054 l 347 1054 z "},"Ħ":{"ha":1096,"x_min":42,"x_max":1054,"o":"m 188 0 q 191 142 190 71 q 192 285 192 213 q 192 431 192 358 l 192 499 q 192 643 192 571 q 191 788 192 715 q 188 931 190 860 l 328 931 q 325 789 326 861 q 324 644 324 717 q 324 500 324 572 l 324 457 q 324 295 324 372 q 325 145 324 218 q 328 0 326 72 l 188 0 m 768 0 q 772 143 771 71 q 772 293 772 215 q 772 457 772 371 l 772 500 q 772 643 772 571 q 772 788 772 715 q 768 931 771 860 l 907 931 q 904 789 906 861 q 903 644 903 717 q 903 499 903 572 l 903 431 q 903 288 903 360 q 904 144 903 215 q 907 0 906 72 l 768 0 m 61 0 l 61 57 l 243 78 l 271 78 l 453 57 l 453 0 l 61 0 m 61 874 l 61 931 l 453 931 l 453 874 l 271 853 l 243 853 l 61 874 m 642 0 l 642 57 l 824 78 l 853 78 l 1033 57 l 1033 0 l 642 0 m 642 874 l 642 931 l 1033 931 l 1033 874 l 853 853 l 824 853 l 642 874 m 42 647 l 42 713 l 1054 713 l 1054 647 l 42 647 m 257 415 l 257 481 l 838 481 l 838 415 l 257 415 z "},"Ḫ":{"ha":1094,"x_min":61,"x_max":1033,"o":"m 61 0 l 61 57 l 243 78 l 271 78 l 453 57 l 453 0 l 61 0 m 188 0 q 191 142 190 71 q 192 285 192 213 q 192 431 192 358 l 192 499 q 192 643 192 571 q 191 788 192 715 q 188 931 190 860 l 328 931 q 325 789 326 861 q 324 644 324 717 q 324 499 324 572 l 324 457 q 324 295 324 372 q 325 145 324 218 q 328 0 326 72 l 188 0 m 257 443 l 257 508 l 838 508 l 838 443 l 257 443 m 642 0 l 642 57 l 824 78 l 853 78 l 1033 57 l 1033 0 l 642 0 m 768 0 q 772 143 771 71 q 772 293 772 215 q 772 457 772 371 l 772 499 q 772 643 772 571 q 772 788 772 715 q 768 931 771 860 l 907 931 q 904 789 906 861 q 903 644 903 717 q 903 499 903 572 l 903 431 q 903 288 903 360 q 904 144 903 215 q 907 0 906 72 l 768 0 m 61 874 l 61 931 l 453 931 l 453 874 l 271 853 l 243 853 l 61 874 m 642 874 l 642 931 l 1033 931 l 1033 874 l 853 853 l 824 853 l 642 874 z "},"Ĥ":{"ha":1094,"x_min":61,"x_max":1033,"o":"m 61 0 l 61 57 l 243 78 l 271 78 l 453 57 l 453 0 l 61 0 m 188 0 q 191 142 190 71 q 192 285 192 213 q 192 431 192 358 l 192 499 q 192 643 192 571 q 191 788 192 715 q 188 931 190 860 l 328 931 q 325 789 326 861 q 324 644 324 717 q 324 499 324 572 l 324 457 q 324 295 324 372 q 325 145 324 218 q 328 0 326 72 l 188 0 m 257 443 l 257 508 l 838 508 l 838 443 l 257 443 m 642 0 l 642 57 l 824 78 l 853 78 l 1033 57 l 1033 0 l 642 0 m 768 0 q 772 143 771 71 q 772 293 772 215 q 772 457 772 371 l 772 499 q 772 643 772 571 q 772 788 772 715 q 768 931 771 860 l 907 931 q 904 789 906 861 q 903 644 903 717 q 903 499 903 572 l 903 431 q 903 288 903 360 q 904 144 903 215 q 907 0 906 72 l 768 0 m 61 874 l 61 931 l 453 931 l 453 874 l 271 853 l 243 853 l 61 874 m 642 874 l 642 931 l 1033 931 l 1033 874 l 853 853 l 824 853 l 642 874 m 571 1190 l 753 1031 l 726 996 l 489 1132 l 606 1132 l 368 996 l 342 1031 l 524 1190 l 571 1190 z "},"Ḥ":{"ha":1094,"x_min":61,"x_max":1033,"o":"m 61 0 l 61 57 l 243 78 l 271 78 l 453 57 l 453 0 l 61 0 m 188 0 q 191 142 190 71 q 192 285 192 213 q 192 431 192 358 l 192 499 q 192 643 192 571 q 191 788 192 715 q 188 931 190 860 l 328 931 q 325 789 326 861 q 324 644 324 717 q 324 499 324 572 l 324 457 q 324 295 324 372 q 325 145 324 218 q 328 0 326 72 l 188 0 m 257 443 l 257 508 l 838 508 l 838 443 l 257 443 m 642 0 l 642 57 l 824 78 l 853 78 l 1033 57 l 1033 0 l 642 0 m 768 0 q 772 143 771 71 q 772 293 772 215 q 772 457 772 371 l 772 499 q 772 643 772 571 q 772 788 772 715 q 768 931 771 860 l 907 931 q 904 789 906 861 q 903 644 903 717 q 903 499 903 572 l 903 431 q 903 288 903 360 q 904 144 903 215 q 907 0 906 72 l 768 0 m 61 874 l 61 931 l 453 931 l 453 874 l 271 853 l 243 853 l 61 874 m 642 874 l 642 931 l 1033 931 l 1033 874 l 853 853 l 824 853 l 642 874 z "},"Ì":{"ha":515,"x_min":61,"x_max":454,"o":"m 61 0 l 61 57 l 243 78 l 272 78 l 454 57 l 454 0 l 61 0 m 188 0 q 191 142 190 71 q 192 285 192 213 q 192 431 192 358 l 192 499 q 192 643 192 571 q 191 788 192 715 q 188 931 190 860 l 328 931 q 325 789 326 861 q 324 644 324 717 q 324 499 324 572 l 324 431 q 324 288 324 360 q 325 144 324 215 q 328 0 326 72 l 188 0 m 61 874 l 61 931 l 454 931 l 454 874 l 272 853 l 243 853 l 61 874 m 351 1036 l 326 1001 q 238 1049 282 1025 q 151 1094 194 1072 q 97 1135 113 1117 q 82 1172 82 1154 q 97 1206 82 1193 q 135 1219 113 1219 q 172 1208 153 1219 q 221 1167 192 1196 q 288 1102 256 1135 q 351 1036 321 1069 z "},"Í":{"ha":515,"x_min":61,"x_max":454,"o":"m 61 0 l 61 57 l 243 78 l 272 78 l 454 57 l 454 0 l 61 0 m 188 0 q 191 142 190 71 q 192 285 192 213 q 192 431 192 358 l 192 499 q 192 643 192 571 q 191 788 192 715 q 188 931 190 860 l 328 931 q 325 789 326 861 q 324 644 324 717 q 324 499 324 572 l 324 431 q 324 288 324 360 q 325 144 324 215 q 328 0 326 72 l 188 0 m 61 874 l 61 931 l 454 931 l 454 874 l 272 853 l 243 853 l 61 874 m 165 1036 q 230 1103 197 1071 q 296 1167 263 1136 q 344 1208 325 1196 q 382 1219 364 1219 q 419 1206 404 1219 q 435 1172 435 1193 q 420 1136 435 1154 q 365 1096 406 1118 q 278 1049 322 1072 q 190 1001 235 1025 l 165 1036 z "},"Î":{"ha":515,"x_min":53,"x_max":464,"o":"m 61 0 l 61 57 l 243 78 l 272 78 l 454 57 l 454 0 l 61 0 m 188 0 q 191 142 190 71 q 192 285 192 213 q 192 431 192 358 l 192 499 q 192 643 192 571 q 191 788 192 715 q 188 931 190 860 l 328 931 q 325 789 326 861 q 324 644 324 717 q 324 499 324 572 l 324 431 q 324 288 324 360 q 325 144 324 215 q 328 0 326 72 l 188 0 m 61 874 l 61 931 l 454 931 l 454 874 l 272 853 l 243 853 l 61 874 m 282 1190 l 464 1031 l 438 996 l 200 1132 l 317 1132 l 79 996 l 53 1031 l 235 1190 l 282 1190 z "},"Ï":{"ha":515,"x_min":50,"x_max":467,"o":"m 128 1035 q 74 1056 97 1035 q 50 1111 50 1078 q 74 1166 50 1144 q 128 1188 97 1188 q 185 1166 163 1188 q 207 1111 207 1144 q 185 1056 207 1078 q 128 1035 163 1035 m 388 1035 q 331 1056 353 1035 q 308 1111 308 1078 q 331 1166 308 1144 q 388 1188 353 1188 q 443 1166 419 1188 q 467 1111 467 1144 q 443 1056 467 1078 q 388 1035 419 1035 m 61 0 l 61 57 l 243 78 l 272 78 l 454 57 l 454 0 l 61 0 m 188 0 q 191 142 190 71 q 192 285 192 213 q 192 431 192 358 l 192 499 q 192 643 192 571 q 191 788 192 715 q 188 931 190 860 l 328 931 q 325 789 326 861 q 324 644 324 717 q 324 499 324 572 l 324 431 q 324 288 324 360 q 325 144 324 215 q 328 0 326 72 l 188 0 m 61 874 l 61 931 l 454 931 l 454 874 l 272 853 l 243 853 l 61 874 z "},"Ī":{"ha":515,"x_min":61,"x_max":454,"o":"m 61 0 l 61 57 l 243 78 l 272 78 l 454 57 l 454 0 l 61 0 m 188 0 q 191 142 190 71 q 192 285 192 213 q 192 431 192 358 l 192 499 q 192 643 192 571 q 191 788 192 715 q 188 931 190 860 l 328 931 q 325 789 326 861 q 324 644 324 717 q 324 499 324 572 l 324 431 q 324 288 324 360 q 325 144 324 215 q 328 0 326 72 l 188 0 m 61 874 l 61 931 l 454 931 l 454 874 l 272 853 l 243 853 l 61 874 m 64 1054 l 64 1142 l 453 1142 l 453 1054 l 64 1054 z "},"İ":{"ha":515,"x_min":61,"x_max":454,"o":"m 61 0 l 61 57 l 243 78 l 272 78 l 454 57 l 454 0 l 61 0 m 188 0 q 191 142 190 71 q 192 285 192 213 q 192 431 192 358 l 192 499 q 192 643 192 571 q 191 788 192 715 q 188 931 190 860 l 328 931 q 325 789 326 861 q 324 644 324 717 q 324 499 324 572 l 324 431 q 324 288 324 360 q 325 144 324 215 q 328 0 326 72 l 188 0 m 61 874 l 61 931 l 454 931 l 454 874 l 272 853 l 243 853 l 61 874 m 258 1024 q 192 1049 219 1024 q 165 1113 165 1074 q 192 1177 165 1153 q 258 1201 219 1201 q 325 1177 299 1201 q 351 1113 351 1153 q 325 1049 351 1074 q 258 1024 299 1024 z "},"Į":{"ha":515,"x_min":61,"x_max":454,"o":"m 61 0 l 61 57 l 243 78 l 272 78 l 454 57 l 454 0 l 61 0 m 188 0 q 191 142 190 71 q 192 285 192 213 q 192 431 192 358 l 192 499 q 192 643 192 571 q 191 788 192 715 q 188 931 190 860 l 328 931 q 325 789 326 861 q 324 644 324 717 q 324 499 324 572 l 324 431 q 324 288 324 360 q 325 144 324 215 q 328 0 326 72 l 188 0 m 61 874 l 61 931 l 454 931 l 454 874 l 272 853 l 243 853 l 61 874 m 294 -307 q 210 -276 243 -307 q 178 -192 178 -244 q 197 -107 178 -147 q 247 -35 215 -67 q 318 17 279 -3 l 318 18 l 358 18 q 290 -53 314 -10 q 267 -142 267 -97 q 289 -206 267 -182 q 342 -229 311 -229 q 375 -225 358 -229 q 410 -211 392 -221 l 428 -246 q 369 -293 401 -279 q 294 -307 338 -307 z "},"Ǐ":{"ha":515,"x_min":61,"x_max":454,"o":"m 61 0 l 61 57 l 243 78 l 272 78 l 454 57 l 454 0 l 61 0 m 188 0 q 191 142 190 71 q 192 285 192 213 q 192 431 192 358 l 192 499 q 192 643 192 571 q 191 788 192 715 q 188 931 190 860 l 328 931 q 325 789 326 861 q 324 644 324 717 q 324 499 324 572 l 324 431 q 324 288 324 360 q 325 144 324 215 q 328 0 326 72 l 188 0 m 61 874 l 61 931 l 454 931 l 454 874 l 272 853 l 243 853 l 61 874 m 99 1207 l 317 1046 l 200 1046 l 418 1207 l 451 1178 l 310 1014 l 207 1014 l 65 1178 l 99 1207 z "},"Ị":{"ha":515,"x_min":61,"x_max":454,"o":"m 61 0 l 61 57 l 243 78 l 272 78 l 454 57 l 454 0 l 61 0 m 188 0 q 191 142 190 71 q 192 285 192 213 q 192 431 192 358 l 192 499 q 192 643 192 571 q 191 788 192 715 q 188 931 190 860 l 328 931 q 325 789 326 861 q 324 644 324 717 q 324 499 324 572 l 324 431 q 324 288 324 360 q 325 144 324 215 q 328 0 326 72 l 188 0 m 61 874 l 61 931 l 454 931 l 454 874 l 272 853 l 243 853 l 61 874 z "},"Ỉ":{"ha":515,"x_min":61,"x_max":454,"o":"m 61 0 l 61 57 l 243 78 l 272 78 l 454 57 l 454 0 l 61 0 m 188 0 q 191 142 190 71 q 192 285 192 213 q 192 431 192 358 l 192 499 q 192 643 192 571 q 191 788 192 715 q 188 931 190 860 l 328 931 q 325 789 326 861 q 324 644 324 717 q 324 499 324 572 l 324 431 q 324 288 324 360 q 325 144 324 215 q 328 0 326 72 l 188 0 m 61 874 l 61 931 l 454 931 l 454 874 l 272 853 l 243 853 l 61 874 m 232 997 l 219 1040 q 276 1059 260 1049 q 293 1086 293 1069 q 265 1117 293 1106 q 178 1133 238 1128 l 192 1226 q 319 1189 276 1219 q 361 1106 361 1158 q 327 1034 361 1063 q 232 997 293 1006 z "},"Ĩ":{"ha":515,"x_min":8,"x_max":508,"o":"m 61 0 l 61 57 l 243 78 l 272 78 l 454 57 l 454 0 l 61 0 m 188 0 q 191 142 190 71 q 192 285 192 213 q 192 431 192 358 l 192 499 q 192 643 192 571 q 191 788 192 715 q 188 931 190 860 l 328 931 q 325 789 326 861 q 324 644 324 717 q 324 499 324 572 l 324 431 q 324 288 324 360 q 325 144 324 215 q 328 0 326 72 l 188 0 m 61 874 l 61 931 l 454 931 l 454 874 l 272 853 l 243 853 l 61 874 m 8 1021 q 56 1151 21 1103 q 154 1200 90 1200 q 218 1185 192 1200 q 271 1149 244 1171 q 318 1108 294 1131 q 372 1086 342 1086 q 429 1116 407 1086 q 467 1197 451 1146 l 508 1183 q 461 1054 494 1103 q 364 1006 428 1006 q 299 1019 325 1006 q 250 1051 274 1033 q 200 1096 224 1074 q 144 1118 176 1118 q 88 1089 111 1118 q 50 1008 65 1060 l 8 1021 z "},"Ĵ":{"ha":519,"x_min":-24,"x_max":479,"o":"m 97 -185 q 22 -170 57 -185 q -24 -117 -14 -156 q 6 -63 -17 -78 q 60 -49 28 -49 q 111 -58 88 -49 q 164 -89 135 -67 l 211 -125 l 211 -136 l 174 -136 l 174 -131 q 195 -86 186 -110 q 209 -28 204 -62 q 216 53 214 6 q 218 169 218 101 q 218 219 218 199 q 218 267 218 240 q 217 337 218 293 q 216 455 217 381 q 214 644 215 529 q 211 931 213 760 l 346 931 q 342 717 343 825 q 342 500 342 610 l 342 299 q 339 145 342 208 q 327 37 336 82 q 303 -41 318 -8 q 263 -104 288 -74 q 187 -166 228 -147 q 97 -185 146 -185 m 65 874 l 65 931 l 472 931 l 472 874 l 290 853 l 261 853 l 65 874 m 297 1190 l 479 1031 l 453 996 l 215 1132 l 332 1132 l 94 996 l 68 1031 l 250 1190 l 297 1190 z "},"Ķ":{"ha":926,"x_min":61,"x_max":919,"o":"m 188 0 q 191 142 190 71 q 192 285 192 213 q 192 431 192 358 l 192 499 q 192 643 192 571 q 191 788 192 715 q 188 931 190 860 l 322 931 q 319 789 321 861 q 318 644 318 717 q 318 499 318 572 l 318 396 q 318 277 318 342 q 319 142 318 213 q 322 0 321 72 l 188 0 m 61 0 l 61 57 l 243 78 l 272 78 l 453 57 l 453 0 l 61 0 m 61 874 l 61 931 l 453 931 l 453 874 l 272 853 l 243 853 l 61 874 m 563 0 l 563 57 l 731 78 l 751 78 l 919 57 l 919 0 l 563 0 m 579 874 l 579 931 l 899 931 l 899 874 l 744 853 l 717 847 l 579 874 m 256 243 l 250 335 l 256 335 l 293 381 l 742 931 l 826 931 l 256 243 m 714 0 l 439 515 l 515 606 l 851 0 l 714 0 m 574 -174 q 553 -251 574 -217 q 500 -309 533 -285 q 426 -347 467 -333 l 410 -306 q 483 -256 457 -283 q 513 -201 508 -229 l 528 -242 q 454 -194 476 -224 q 432 -143 432 -165 q 448 -92 432 -112 q 499 -71 464 -71 q 532 -78 515 -71 q 565 -101 549 -85 q 572 -139 571 -122 q 574 -174 574 -156 z "},"Ĺ":{"ha":828,"x_min":61,"x_max":767,"o":"m 61 0 l 61 57 l 243 78 l 257 78 l 257 0 l 61 0 m 188 0 q 191 144 190 72 q 192 287 192 215 q 192 429 192 358 l 192 499 q 192 644 192 572 q 191 789 192 717 q 188 931 190 861 l 328 931 q 325 788 326 860 q 324 643 324 715 q 324 499 324 571 l 324 403 q 324 278 324 344 q 325 141 324 211 q 328 0 326 71 l 188 0 m 257 0 l 257 69 l 683 69 l 633 29 l 682 261 l 767 261 l 753 0 l 257 0 m 61 874 l 61 931 l 454 931 l 454 874 l 272 853 l 243 853 l 61 874 m 171 1036 q 235 1103 203 1071 q 301 1167 268 1136 q 350 1208 331 1196 q 388 1219 369 1219 q 425 1206 410 1219 q 440 1172 440 1193 q 426 1136 440 1154 q 371 1096 411 1118 q 284 1049 328 1072 q 196 1001 240 1025 l 171 1036 z "},"Ľ":{"ha":828,"x_min":61,"x_max":767,"o":"m 665 972 q 704 958 693 972 q 715 921 715 944 q 708 871 715 901 q 690 806 701 840 q 668 739 679 772 l 642 664 l 597 664 l 601 954 q 634 968 618 964 q 665 972 650 972 m 61 0 l 61 57 l 243 78 l 257 78 l 257 0 l 61 0 m 188 0 q 191 144 190 72 q 192 287 192 215 q 192 429 192 358 l 192 499 q 192 644 192 572 q 191 789 192 717 q 188 931 190 861 l 328 931 q 325 788 326 860 q 324 643 324 715 q 324 499 324 571 l 324 403 q 324 278 324 344 q 325 141 324 211 q 328 0 326 71 l 188 0 m 257 0 l 257 69 l 683 69 l 633 29 l 682 261 l 767 261 l 753 0 l 257 0 m 61 874 l 61 931 l 454 931 l 454 874 l 272 853 l 243 853 l 61 874 z "},"Ļ":{"ha":828,"x_min":61,"x_max":767,"o":"m 61 0 l 61 57 l 243 78 l 257 78 l 257 0 l 61 0 m 188 0 q 191 144 190 72 q 192 287 192 215 q 192 429 192 358 l 192 499 q 192 644 192 572 q 191 789 192 717 q 188 931 190 861 l 328 931 q 325 788 326 860 q 324 643 324 715 q 324 499 324 571 l 324 403 q 324 278 324 344 q 325 141 324 211 q 328 0 326 71 l 188 0 m 257 0 l 257 69 l 683 69 l 633 29 l 682 261 l 767 261 l 753 0 l 257 0 m 61 874 l 61 931 l 454 931 l 454 874 l 272 853 l 243 853 l 61 874 m 522 -174 q 502 -251 522 -217 q 449 -309 482 -285 q 375 -347 415 -333 l 358 -306 q 431 -256 406 -283 q 461 -201 457 -229 l 476 -242 q 403 -194 425 -224 q 381 -143 381 -165 q 397 -92 381 -112 q 447 -71 413 -71 q 481 -78 464 -71 q 514 -101 497 -85 q 521 -139 519 -122 q 522 -174 522 -156 z "},"Ŀ":{"ha":828,"x_min":61,"x_max":771,"o":"m 61 0 l 61 57 l 243 78 l 257 78 l 257 0 l 61 0 m 188 0 q 191 144 190 72 q 192 287 192 215 q 192 429 192 358 l 192 499 q 192 644 192 572 q 191 789 192 717 q 188 931 190 861 l 328 931 q 325 788 326 860 q 324 643 324 715 q 324 499 324 571 l 324 403 q 324 278 324 344 q 325 141 324 211 q 328 0 326 71 l 188 0 m 257 0 l 257 69 l 683 69 l 633 29 l 682 261 l 767 261 l 753 0 l 257 0 m 61 874 l 61 931 l 454 931 l 454 874 l 272 853 l 243 853 l 61 874 z "},"Ḷ":{"ha":828,"x_min":61,"x_max":767,"o":"m 61 0 l 61 57 l 243 78 l 257 78 l 257 0 l 61 0 m 188 0 q 191 144 190 72 q 192 287 192 215 q 192 429 192 358 l 192 499 q 192 644 192 572 q 191 789 192 717 q 188 931 190 861 l 328 931 q 325 788 326 860 q 324 643 324 715 q 324 499 324 571 l 324 403 q 324 278 324 344 q 325 141 324 211 q 328 0 326 71 l 188 0 m 257 0 l 257 69 l 683 69 l 633 29 l 682 261 l 767 261 l 753 0 l 257 0 m 61 874 l 61 931 l 454 931 l 454 874 l 272 853 l 243 853 l 61 874 z "},"Ḹ":{"ha":828,"x_min":61,"x_max":767,"o":"m 61 0 l 61 57 l 243 78 l 257 78 l 257 0 l 61 0 m 188 0 q 191 144 190 72 q 192 287 192 215 q 192 429 192 358 l 192 499 q 192 644 192 572 q 191 789 192 717 q 188 931 190 861 l 328 931 q 325 788 326 860 q 324 643 324 715 q 324 499 324 571 l 324 403 q 324 278 324 344 q 325 141 324 211 q 328 0 326 71 l 188 0 m 257 0 l 257 69 l 683 69 l 633 29 l 682 261 l 767 261 l 753 0 l 257 0 m 61 874 l 61 931 l 454 931 l 454 874 l 272 853 l 243 853 l 61 874 m 69 1054 l 69 1142 l 458 1142 l 458 1054 l 69 1054 z "},"Ḻ":{"ha":828,"x_min":61,"x_max":767,"o":"m 61 0 l 61 57 l 243 78 l 257 78 l 257 0 l 61 0 m 188 0 q 191 144 190 72 q 192 287 192 215 q 192 429 192 358 l 192 499 q 192 644 192 572 q 191 789 192 717 q 188 931 190 861 l 328 931 q 325 788 326 860 q 324 643 324 715 q 324 499 324 571 l 324 403 q 324 278 324 344 q 325 141 324 211 q 328 0 326 71 l 188 0 m 257 0 l 257 69 l 683 69 l 633 29 l 682 261 l 767 261 l 753 0 l 257 0 m 61 874 l 61 931 l 454 931 l 454 874 l 272 853 l 243 853 l 61 874 z "},"Ł":{"ha":828,"x_min":61,"x_max":767,"o":"m 550 639 l 550 568 l 260 401 l 260 474 l 550 639 m 257 479 l 257 407 l 61 297 l 61 368 l 257 479 m 61 0 l 61 57 l 243 78 l 257 78 l 257 0 l 61 0 m 188 0 q 191 144 190 72 q 192 287 192 215 q 192 429 192 358 l 192 499 q 192 644 192 572 q 191 789 192 717 q 188 931 190 861 l 328 931 q 325 788 326 860 q 324 643 324 715 q 324 499 324 571 l 324 403 q 324 278 324 344 q 325 141 324 211 q 328 0 326 71 l 188 0 m 257 0 l 257 69 l 683 69 l 633 29 l 682 261 l 767 261 l 753 0 l 257 0 m 61 874 l 61 931 l 454 931 l 454 874 l 272 853 l 243 853 l 61 874 z "},"Ḿ":{"ha":1253,"x_min":54,"x_max":1190,"o":"m 54 0 l 54 57 l 200 78 l 229 78 l 365 57 l 365 0 l 54 0 m 68 874 l 68 931 l 239 931 l 239 853 l 222 853 l 68 874 m 179 0 l 179 931 l 239 931 l 251 513 l 251 0 l 179 0 m 561 0 l 201 886 l 193 886 l 193 931 l 311 931 l 646 106 l 599 106 l 610 135 l 917 931 l 983 931 l 983 886 l 972 886 l 954 840 l 631 0 l 561 0 m 813 0 l 813 57 l 979 78 l 1010 78 l 1190 57 l 1190 0 l 813 0 m 928 0 q 931 142 931 71 q 932 285 932 213 q 932 429 932 357 l 932 931 l 1064 931 q 1061 789 1063 861 q 1060 644 1060 717 q 1060 499 1060 572 l 1060 431 q 1060 288 1060 360 q 1061 144 1060 215 q 1064 0 1063 72 l 928 0 m 994 853 l 994 931 l 1190 931 l 1190 874 l 1010 853 l 994 853 m 518 1036 q 583 1103 550 1071 q 649 1167 615 1136 q 697 1208 678 1196 q 735 1219 717 1219 q 772 1206 757 1219 q 788 1172 788 1193 q 773 1136 788 1154 q 718 1096 758 1118 q 631 1049 675 1072 q 543 1001 588 1025 l 518 1036 z "},"Ṃ":{"ha":1253,"x_min":54,"x_max":1190,"o":"m 54 0 l 54 57 l 200 78 l 229 78 l 365 57 l 365 0 l 54 0 m 68 874 l 68 931 l 239 931 l 239 853 l 222 853 l 68 874 m 179 0 l 179 931 l 239 931 l 251 513 l 251 0 l 179 0 m 561 0 l 201 886 l 193 886 l 193 931 l 311 931 l 646 106 l 599 106 l 610 135 l 917 931 l 983 931 l 983 886 l 972 886 l 954 840 l 631 0 l 561 0 m 813 0 l 813 57 l 979 78 l 1010 78 l 1190 57 l 1190 0 l 813 0 m 928 0 q 931 142 931 71 q 932 285 932 213 q 932 429 932 357 l 932 931 l 1064 931 q 1061 789 1063 861 q 1060 644 1060 717 q 1060 499 1060 572 l 1060 431 q 1060 288 1060 360 q 1061 144 1060 215 q 1064 0 1063 72 l 928 0 m 994 853 l 994 931 l 1190 931 l 1190 874 l 1010 853 l 994 853 z "},"Ń":{"ha":1021,"x_min":54,"x_max":965,"o":"m 54 0 l 54 57 l 200 78 l 229 78 l 390 57 l 390 0 l 54 0 m 172 0 l 172 899 l 243 899 l 243 465 l 243 0 l 172 0 m 631 874 l 631 931 l 965 931 l 965 874 l 826 853 l 799 853 l 631 874 m 799 -10 l 231 793 l 228 793 l 181 863 l 61 874 l 61 931 l 290 931 l 800 206 l 776 199 l 776 465 l 776 931 l 847 931 l 847 -10 l 799 -10 m 422 1036 q 487 1103 454 1071 q 553 1167 519 1136 q 601 1208 582 1196 q 639 1219 621 1219 q 676 1206 661 1219 q 692 1172 692 1193 q 677 1136 692 1154 q 622 1096 663 1118 q 535 1049 579 1072 q 447 1001 492 1025 l 422 1036 z "},"Ň":{"ha":1021,"x_min":54,"x_max":965,"o":"m 54 0 l 54 57 l 200 78 l 229 78 l 390 57 l 390 0 l 54 0 m 172 0 l 172 899 l 243 899 l 243 465 l 243 0 l 172 0 m 631 874 l 631 931 l 965 931 l 965 874 l 826 853 l 799 853 l 631 874 m 799 -10 l 231 793 l 228 793 l 181 863 l 61 874 l 61 931 l 290 931 l 800 206 l 776 199 l 776 465 l 776 931 l 847 931 l 847 -10 l 799 -10 m 356 1207 l 574 1046 l 457 1046 l 675 1207 l 708 1178 l 567 1014 l 464 1014 l 322 1178 l 356 1207 z "},"Ǹ":{"ha":1021,"x_min":54,"x_max":965,"o":"m 54 0 l 54 57 l 200 78 l 229 78 l 390 57 l 390 0 l 54 0 m 172 0 l 172 899 l 243 899 l 243 465 l 243 0 l 172 0 m 631 874 l 631 931 l 965 931 l 965 874 l 826 853 l 799 853 l 631 874 m 799 -10 l 231 793 l 228 793 l 181 863 l 61 874 l 61 931 l 290 931 l 800 206 l 776 199 l 776 465 l 776 931 l 847 931 l 847 -10 l 799 -10 m 608 1036 l 583 1001 q 495 1049 539 1025 q 408 1094 451 1072 q 354 1135 369 1117 q 339 1172 339 1154 q 354 1206 339 1193 q 392 1219 369 1219 q 429 1208 410 1219 q 478 1167 449 1196 q 545 1102 513 1135 q 608 1036 578 1069 z "},"Ñ":{"ha":1021,"x_min":54,"x_max":965,"o":"m 54 0 l 54 57 l 200 78 l 229 78 l 390 57 l 390 0 l 54 0 m 172 0 l 172 899 l 243 899 l 243 465 l 243 0 l 172 0 m 631 874 l 631 931 l 965 931 l 965 874 l 826 853 l 799 853 l 631 874 m 799 -10 l 231 793 l 228 793 l 181 863 l 61 874 l 61 931 l 290 931 l 800 206 l 776 199 l 776 465 l 776 931 l 847 931 l 847 -10 l 799 -10 m 265 1021 q 313 1151 278 1103 q 411 1200 347 1200 q 475 1185 449 1200 q 528 1149 501 1171 q 575 1108 551 1131 q 629 1086 599 1086 q 686 1116 664 1086 q 724 1197 708 1146 l 765 1183 q 718 1054 751 1103 q 621 1006 685 1006 q 556 1019 582 1006 q 507 1051 531 1033 q 457 1096 481 1074 q 401 1118 433 1118 q 345 1089 368 1118 q 307 1008 322 1060 l 265 1021 z "},"Ņ":{"ha":1021,"x_min":54,"x_max":965,"o":"m 54 0 l 54 57 l 200 78 l 229 78 l 390 57 l 390 0 l 54 0 m 172 0 l 172 899 l 243 899 l 243 465 l 243 0 l 172 0 m 631 874 l 631 931 l 965 931 l 965 874 l 826 853 l 799 853 l 631 874 m 799 -10 l 231 793 l 228 793 l 181 863 l 61 874 l 61 931 l 290 931 l 800 206 l 776 199 l 776 465 l 776 931 l 847 931 l 847 -10 l 799 -10 m 593 -174 q 573 -251 593 -217 q 519 -309 553 -285 q 446 -347 486 -333 l 429 -306 q 502 -256 476 -283 q 532 -201 528 -229 l 547 -242 q 474 -194 496 -224 q 451 -143 451 -165 q 467 -92 451 -112 q 518 -71 483 -71 q 551 -78 535 -71 q 585 -101 568 -85 q 592 -139 590 -122 q 593 -174 593 -156 z "},"Ṅ":{"ha":1021,"x_min":54,"x_max":965,"o":"m 54 0 l 54 57 l 200 78 l 229 78 l 390 57 l 390 0 l 54 0 m 172 0 l 172 899 l 243 899 l 243 465 l 243 0 l 172 0 m 631 874 l 631 931 l 965 931 l 965 874 l 826 853 l 799 853 l 631 874 m 799 -10 l 231 793 l 228 793 l 181 863 l 61 874 l 61 931 l 290 931 l 800 206 l 776 199 l 776 465 l 776 931 l 847 931 l 847 -10 l 799 -10 m 515 1024 q 449 1049 476 1024 q 422 1113 422 1074 q 449 1177 422 1153 q 515 1201 476 1201 q 582 1177 556 1201 q 608 1113 608 1153 q 582 1049 608 1074 q 515 1024 556 1024 z "},"Ṇ":{"ha":1021,"x_min":54,"x_max":965,"o":"m 54 0 l 54 57 l 200 78 l 229 78 l 390 57 l 390 0 l 54 0 m 172 0 l 172 899 l 243 899 l 243 465 l 243 0 l 172 0 m 631 874 l 631 931 l 965 931 l 965 874 l 826 853 l 799 853 l 631 874 m 799 -10 l 231 793 l 228 793 l 181 863 l 61 874 l 61 931 l 290 931 l 800 206 l 776 199 l 776 465 l 776 931 l 847 931 l 847 -10 l 799 -10 z "},"Ṉ":{"ha":1021,"x_min":54,"x_max":965,"o":"m 54 0 l 54 57 l 200 78 l 229 78 l 390 57 l 390 0 l 54 0 m 172 0 l 172 899 l 243 899 l 243 465 l 243 0 l 172 0 m 631 874 l 631 931 l 965 931 l 965 874 l 826 853 l 799 853 l 631 874 m 799 -10 l 231 793 l 228 793 l 181 863 l 61 874 l 61 931 l 290 931 l 800 206 l 776 199 l 776 465 l 776 931 l 847 931 l 847 -10 l 799 -10 z "},"Ò":{"ha":982,"x_min":65,"x_max":917,"o":"m 492 -21 q 335 10 411 -21 q 197 103 258 42 q 101 255 136 164 q 65 465 65 346 q 101 669 65 579 q 198 822 138 760 q 335 918 258 885 q 492 951 411 951 q 648 920 572 951 q 784 827 724 889 q 881 675 844 765 q 917 465 917 585 q 881 261 917 351 q 785 108 846 171 q 649 12 725 44 q 492 -21 572 -21 m 492 49 q 616 84 564 49 q 701 178 668 119 q 749 312 733 238 q 764 465 764 386 q 749 617 764 543 q 701 751 733 692 q 616 847 668 811 q 492 882 564 882 q 367 847 419 882 q 282 751 315 811 q 233 617 249 692 q 217 465 217 543 q 233 312 217 386 q 282 178 249 238 q 367 84 315 119 q 492 49 419 49 m 585 1036 l 560 1001 q 472 1049 515 1025 q 385 1094 428 1072 q 331 1135 346 1117 q 315 1172 315 1154 q 331 1206 315 1193 q 368 1219 346 1219 q 406 1208 386 1219 q 454 1167 425 1196 q 522 1102 489 1135 q 585 1036 554 1069 z "},"Ó":{"ha":982,"x_min":65,"x_max":917,"o":"m 492 -21 q 335 10 411 -21 q 197 103 258 42 q 101 255 136 164 q 65 465 65 346 q 101 669 65 579 q 198 822 138 760 q 335 918 258 885 q 492 951 411 951 q 648 920 572 951 q 784 827 724 889 q 881 675 844 765 q 917 465 917 585 q 881 261 917 351 q 785 108 846 171 q 649 12 725 44 q 492 -21 572 -21 m 492 49 q 616 84 564 49 q 701 178 668 119 q 749 312 733 238 q 764 465 764 386 q 749 617 764 543 q 701 751 733 692 q 616 847 668 811 q 492 882 564 882 q 367 847 419 882 q 282 751 315 811 q 233 617 249 692 q 217 465 217 543 q 233 312 217 386 q 282 178 249 238 q 367 84 315 119 q 492 49 419 49 m 399 1036 q 463 1103 431 1071 q 529 1167 496 1136 q 578 1208 558 1196 q 615 1219 597 1219 q 653 1206 638 1219 q 668 1172 668 1193 q 653 1136 668 1154 q 599 1096 639 1118 q 512 1049 556 1072 q 424 1001 468 1025 l 399 1036 z "},"Ŏ":{"ha":982,"x_min":65,"x_max":917,"o":"m 492 -21 q 335 10 411 -21 q 197 103 258 42 q 101 255 136 164 q 65 465 65 346 q 101 669 65 579 q 198 822 138 760 q 335 918 258 885 q 492 951 411 951 q 648 920 572 951 q 784 827 724 889 q 881 675 844 765 q 917 465 917 585 q 881 261 917 351 q 785 108 846 171 q 649 12 725 44 q 492 -21 572 -21 m 492 49 q 616 84 564 49 q 701 178 668 119 q 749 312 733 238 q 764 465 764 386 q 749 617 764 543 q 701 751 733 692 q 616 847 668 811 q 492 882 564 882 q 367 847 419 882 q 282 751 315 811 q 233 617 249 692 q 217 465 217 543 q 233 312 217 386 q 282 178 249 238 q 367 84 315 119 q 492 49 419 49 m 292 1193 l 335 1208 q 390 1131 350 1161 q 492 1101 431 1101 q 592 1131 554 1101 q 649 1208 631 1161 l 692 1193 q 663 1111 686 1151 q 597 1044 639 1071 q 492 1017 554 1017 q 387 1044 429 1017 q 322 1111 344 1071 q 292 1193 299 1151 z "},"Ô":{"ha":982,"x_min":65,"x_max":917,"o":"m 492 -21 q 335 10 411 -21 q 197 103 258 42 q 101 255 136 164 q 65 465 65 346 q 101 669 65 579 q 198 822 138 760 q 335 918 258 885 q 492 951 411 951 q 648 920 572 951 q 784 827 724 889 q 881 675 844 765 q 917 465 917 585 q 881 261 917 351 q 785 108 846 171 q 649 12 725 44 q 492 -21 572 -21 m 492 49 q 616 84 564 49 q 701 178 668 119 q 749 312 733 238 q 764 465 764 386 q 749 617 764 543 q 701 751 733 692 q 616 847 668 811 q 492 882 564 882 q 367 847 419 882 q 282 751 315 811 q 233 617 249 692 q 217 465 217 543 q 233 312 217 386 q 282 178 249 238 q 367 84 315 119 q 492 49 419 49 m 515 1190 l 697 1031 l 671 996 l 433 1132 l 550 1132 l 313 996 l 286 1031 l 468 1190 l 515 1190 z "},"Õ":{"ha":982,"x_min":65,"x_max":917,"o":"m 492 -21 q 335 10 411 -21 q 197 103 258 42 q 101 255 136 164 q 65 465 65 346 q 101 669 65 579 q 198 822 138 760 q 335 918 258 885 q 492 951 411 951 q 648 920 572 951 q 784 827 724 889 q 881 675 844 765 q 917 465 917 585 q 881 261 917 351 q 785 108 846 171 q 649 12 725 44 q 492 -21 572 -21 m 492 49 q 616 84 564 49 q 701 178 668 119 q 749 312 733 238 q 764 465 764 386 q 749 617 764 543 q 701 751 733 692 q 616 847 668 811 q 492 882 564 882 q 367 847 419 882 q 282 751 315 811 q 233 617 249 692 q 217 465 217 543 q 233 312 217 386 q 282 178 249 238 q 367 84 315 119 q 492 49 419 49 m 242 1021 q 289 1151 254 1103 q 388 1200 324 1200 q 451 1185 425 1200 q 504 1149 478 1171 q 551 1108 528 1131 q 606 1086 575 1086 q 663 1116 640 1086 q 700 1197 685 1146 l 742 1183 q 694 1054 728 1103 q 597 1006 661 1006 q 533 1019 558 1006 q 483 1051 507 1033 q 433 1096 457 1074 q 378 1118 410 1118 q 322 1089 344 1118 q 283 1008 299 1060 l 242 1021 z "},"Ö":{"ha":982,"x_min":65,"x_max":917,"o":"m 492 -21 q 335 10 411 -21 q 197 103 258 42 q 101 255 136 164 q 65 465 65 346 q 101 669 65 579 q 198 822 138 760 q 335 918 258 885 q 492 951 411 951 q 648 920 572 951 q 784 827 724 889 q 881 675 844 765 q 917 465 917 585 q 881 261 917 351 q 785 108 846 171 q 649 12 725 44 q 492 -21 572 -21 m 492 49 q 616 84 564 49 q 701 178 668 119 q 749 312 733 238 q 764 465 764 386 q 749 617 764 543 q 701 751 733 692 q 616 847 668 811 q 492 882 564 882 q 367 847 419 882 q 282 751 315 811 q 233 617 249 692 q 217 465 217 543 q 233 312 217 386 q 282 178 249 238 q 367 84 315 119 q 492 49 419 49 m 336 1035 q 280 1056 304 1035 q 256 1111 256 1078 q 280 1166 256 1144 q 336 1188 304 1188 q 392 1166 369 1188 q 415 1111 415 1144 q 392 1056 415 1078 q 336 1035 369 1035 m 646 1035 q 590 1056 613 1035 q 567 1111 567 1078 q 590 1166 567 1144 q 646 1188 613 1188 q 702 1166 678 1188 q 726 1111 726 1144 q 702 1056 726 1078 q 646 1035 678 1035 z "},"Ō":{"ha":982,"x_min":65,"x_max":917,"o":"m 492 -21 q 335 10 411 -21 q 197 103 258 42 q 101 255 136 164 q 65 465 65 346 q 101 669 65 579 q 198 822 138 760 q 335 918 258 885 q 492 951 411 951 q 648 920 572 951 q 784 827 724 889 q 881 675 844 765 q 917 465 917 585 q 881 261 917 351 q 785 108 846 171 q 649 12 725 44 q 492 -21 572 -21 m 492 49 q 616 84 564 49 q 701 178 668 119 q 749 312 733 238 q 764 465 764 386 q 749 617 764 543 q 701 751 733 692 q 616 847 668 811 q 492 882 564 882 q 367 847 419 882 q 282 751 315 811 q 233 617 249 692 q 217 465 217 543 q 233 312 217 386 q 282 178 249 238 q 367 84 315 119 q 492 49 419 49 m 297 1054 l 297 1142 l 686 1142 l 686 1054 l 297 1054 z "},"Ő":{"ha":982,"x_min":65,"x_max":917,"o":"m 492 -21 q 335 10 411 -21 q 197 103 258 42 q 101 255 136 164 q 65 465 65 346 q 101 669 65 579 q 198 822 138 760 q 335 918 258 885 q 492 951 411 951 q 648 920 572 951 q 784 827 724 889 q 881 675 844 765 q 917 465 917 585 q 881 261 917 351 q 785 108 846 171 q 649 12 725 44 q 492 -21 572 -21 m 492 49 q 616 84 564 49 q 701 178 668 119 q 749 312 733 238 q 764 465 764 386 q 749 617 764 543 q 701 751 733 692 q 616 847 668 811 q 492 882 564 882 q 367 847 419 882 q 282 751 315 811 q 233 617 249 692 q 217 465 217 543 q 233 312 217 386 q 282 178 249 238 q 367 84 315 119 q 492 49 419 49 m 336 1014 l 414 1176 q 449 1222 429 1208 q 486 1235 469 1235 q 521 1222 506 1235 q 536 1188 536 1208 q 529 1160 536 1175 q 506 1126 522 1144 l 372 989 l 336 1014 m 547 1014 l 625 1176 q 660 1222 640 1208 q 699 1235 681 1235 q 733 1222 718 1235 q 747 1188 747 1208 q 740 1160 747 1175 q 717 1126 733 1144 l 583 989 l 547 1014 z "},"Ǒ":{"ha":982,"x_min":65,"x_max":917,"o":"m 492 -21 q 335 10 411 -21 q 197 103 258 42 q 101 255 136 164 q 65 465 65 346 q 101 669 65 579 q 198 822 138 760 q 335 918 258 885 q 492 951 411 951 q 648 920 572 951 q 784 827 724 889 q 881 675 844 765 q 917 465 917 585 q 881 261 917 351 q 785 108 846 171 q 649 12 725 44 q 492 -21 572 -21 m 492 49 q 616 84 564 49 q 701 178 668 119 q 749 312 733 238 q 764 465 764 386 q 749 617 764 543 q 701 751 733 692 q 616 847 668 811 q 492 882 564 882 q 367 847 419 882 q 282 751 315 811 q 233 617 249 692 q 217 465 217 543 q 233 312 217 386 q 282 178 249 238 q 367 84 315 119 q 492 49 419 49 m 332 1207 l 550 1046 l 433 1046 l 651 1207 l 685 1178 l 543 1014 l 440 1014 l 299 1178 l 332 1207 z "},"Ố":{"ha":982,"x_min":65,"x_max":917,"o":"m 492 -21 q 335 10 411 -21 q 197 103 258 42 q 101 255 136 164 q 65 465 65 346 q 101 669 65 579 q 198 822 138 760 q 335 918 258 885 q 492 951 411 951 q 648 920 572 951 q 784 827 724 889 q 881 675 844 765 q 917 465 917 585 q 881 261 917 351 q 785 108 846 171 q 649 12 725 44 q 492 -21 572 -21 m 492 49 q 616 84 564 49 q 701 178 668 119 q 749 312 733 238 q 764 465 764 386 q 749 617 764 543 q 701 751 733 692 q 616 847 668 811 q 492 882 564 882 q 367 847 419 882 q 282 751 315 811 q 233 617 249 692 q 217 465 217 543 q 233 312 217 386 q 282 178 249 238 q 367 84 315 119 q 492 49 419 49 m 313 996 l 286 1031 l 468 1190 l 515 1190 l 697 1031 l 671 996 l 433 1132 l 550 1132 l 313 996 m 663 1114 l 633 1144 l 700 1228 q 735 1261 718 1251 q 767 1271 753 1271 q 799 1259 786 1271 q 811 1229 811 1247 q 800 1197 811 1213 q 747 1160 789 1182 l 663 1114 z "},"Ộ":{"ha":982,"x_min":65,"x_max":917,"o":"m 492 -21 q 335 10 411 -21 q 197 103 258 42 q 101 255 136 164 q 65 465 65 346 q 101 669 65 579 q 198 822 138 760 q 335 918 258 885 q 492 951 411 951 q 648 920 572 951 q 784 827 724 889 q 881 675 844 765 q 917 465 917 585 q 881 261 917 351 q 785 108 846 171 q 649 12 725 44 q 492 -21 572 -21 m 492 49 q 616 84 564 49 q 701 178 668 119 q 749 312 733 238 q 764 465 764 386 q 749 617 764 543 q 701 751 733 692 q 616 847 668 811 q 492 882 564 882 q 367 847 419 882 q 282 751 315 811 q 233 617 249 692 q 217 465 217 543 q 233 312 217 386 q 282 178 249 238 q 367 84 315 119 q 492 49 419 49 m 515 1190 l 697 1031 l 671 996 l 433 1132 l 550 1132 l 313 996 l 286 1031 l 468 1190 l 515 1190 z "},"Ồ":{"ha":982,"x_min":65,"x_max":917,"o":"m 492 -21 q 335 10 411 -21 q 197 103 258 42 q 101 255 136 164 q 65 465 65 346 q 101 669 65 579 q 198 822 138 760 q 335 918 258 885 q 492 951 411 951 q 648 920 572 951 q 784 827 724 889 q 881 675 844 765 q 917 465 917 585 q 881 261 917 351 q 785 108 846 171 q 649 12 725 44 q 492 -21 572 -21 m 492 49 q 616 84 564 49 q 701 178 668 119 q 749 312 733 238 q 764 465 764 386 q 749 617 764 543 q 701 751 733 692 q 616 847 668 811 q 492 882 564 882 q 367 847 419 882 q 282 751 315 811 q 233 617 249 692 q 217 465 217 543 q 233 312 217 386 q 282 178 249 238 q 367 84 315 119 q 492 49 419 49 m 671 996 l 433 1132 l 550 1132 l 313 996 l 286 1031 l 468 1190 l 515 1190 l 697 1031 l 671 996 m 307 1117 l 222 1160 q 169 1197 181 1181 q 158 1229 158 1213 q 172 1259 158 1247 q 203 1271 185 1271 q 235 1262 218 1271 q 271 1228 251 1253 l 338 1147 l 307 1117 z "},"Ổ":{"ha":982,"x_min":65,"x_max":917,"o":"m 492 -21 q 335 10 411 -21 q 197 103 258 42 q 101 255 136 164 q 65 465 65 346 q 101 669 65 579 q 198 822 138 760 q 335 918 258 885 q 492 951 411 951 q 648 920 572 951 q 784 827 724 889 q 881 675 844 765 q 917 465 917 585 q 881 261 917 351 q 785 108 846 171 q 649 12 725 44 q 492 -21 572 -21 m 492 49 q 616 84 564 49 q 701 178 668 119 q 749 312 733 238 q 764 465 764 386 q 749 617 764 543 q 701 751 733 692 q 616 847 668 811 q 492 882 564 882 q 367 847 419 882 q 282 751 315 811 q 233 617 249 692 q 217 465 217 543 q 233 312 217 386 q 282 178 249 238 q 367 84 315 119 q 492 49 419 49 m 313 996 l 286 1031 l 468 1190 l 515 1190 l 697 1031 l 671 996 l 433 1132 l 550 1132 l 313 996 m 646 1136 q 703 1155 686 1144 q 719 1182 719 1165 q 692 1213 719 1201 q 604 1229 664 1224 l 618 1322 q 746 1284 704 1314 q 788 1201 788 1254 q 753 1129 788 1158 q 658 1093 719 1100 l 646 1136 z "},"Ỗ":{"ha":982,"x_min":65,"x_max":917,"o":"m 492 -21 q 335 10 411 -21 q 197 103 258 42 q 101 255 136 164 q 65 465 65 346 q 101 669 65 579 q 198 822 138 760 q 335 918 258 885 q 492 951 411 951 q 648 920 572 951 q 784 827 724 889 q 881 675 844 765 q 917 465 917 585 q 881 261 917 351 q 785 108 846 171 q 649 12 725 44 q 492 -21 572 -21 m 492 49 q 616 84 564 49 q 701 178 668 119 q 749 312 733 238 q 764 465 764 386 q 749 617 764 543 q 701 751 733 692 q 616 847 668 811 q 492 882 564 882 q 367 847 419 882 q 282 751 315 811 q 233 617 249 692 q 217 465 217 543 q 233 312 217 386 q 282 178 249 238 q 367 84 315 119 q 492 49 419 49 m 308 986 l 286 1021 l 468 1153 l 515 1153 l 697 1021 l 675 986 l 433 1094 l 550 1094 l 308 986 m 265 1201 q 307 1292 274 1258 q 397 1326 340 1326 q 456 1317 433 1326 q 501 1296 479 1308 q 548 1273 525 1283 q 599 1263 571 1263 q 651 1279 631 1263 q 685 1326 672 1296 l 718 1311 q 676 1222 708 1256 q 586 1188 644 1188 q 527 1197 551 1188 q 482 1218 503 1206 q 436 1241 460 1231 q 385 1251 413 1251 q 333 1235 354 1251 q 299 1188 311 1218 l 265 1201 z "},"Ọ":{"ha":982,"x_min":65,"x_max":917,"o":"m 492 -21 q 335 10 411 -21 q 197 103 258 42 q 101 255 136 164 q 65 465 65 346 q 101 669 65 579 q 198 822 138 760 q 335 918 258 885 q 492 951 411 951 q 648 920 572 951 q 784 827 724 889 q 881 675 844 765 q 917 465 917 585 q 881 261 917 351 q 785 108 846 171 q 649 12 725 44 q 492 -21 572 -21 m 492 49 q 616 84 564 49 q 701 178 668 119 q 749 312 733 238 q 764 465 764 386 q 749 617 764 543 q 701 751 733 692 q 616 847 668 811 q 492 882 564 882 q 367 847 419 882 q 282 751 315 811 q 233 617 249 692 q 217 465 217 543 q 233 312 217 386 q 282 178 249 238 q 367 84 315 119 q 492 49 419 49 z "},"Ỏ":{"ha":982,"x_min":65,"x_max":917,"o":"m 492 -21 q 335 10 411 -21 q 197 103 258 42 q 101 255 136 164 q 65 465 65 346 q 101 669 65 579 q 198 822 138 760 q 335 918 258 885 q 492 951 411 951 q 648 920 572 951 q 784 827 724 889 q 881 675 844 765 q 917 465 917 585 q 881 261 917 351 q 785 108 846 171 q 649 12 725 44 q 492 -21 572 -21 m 492 49 q 616 84 564 49 q 701 178 668 119 q 749 312 733 238 q 764 465 764 386 q 749 617 764 543 q 701 751 733 692 q 616 847 668 811 q 492 882 564 882 q 367 847 419 882 q 282 751 315 811 q 233 617 249 692 q 217 465 217 543 q 233 312 217 386 q 282 178 249 238 q 367 84 315 119 q 492 49 419 49 m 465 997 l 453 1040 q 510 1059 493 1049 q 526 1086 526 1069 q 499 1117 526 1106 q 411 1133 471 1128 l 425 1226 q 552 1189 510 1219 q 594 1106 594 1158 q 560 1034 594 1063 q 465 997 526 1006 z "},"Ơ":{"ha":982,"x_min":65,"x_max":917,"o":"m 492 -21 q 335 10 411 -21 q 197 103 258 42 q 101 255 136 164 q 65 465 65 346 q 101 669 65 579 q 198 822 138 760 q 335 918 258 885 q 492 951 411 951 q 648 920 572 951 q 784 827 724 889 q 881 675 844 765 q 917 465 917 585 q 881 261 917 351 q 785 108 846 171 q 649 12 725 44 q 492 -21 572 -21 m 492 49 q 616 84 564 49 q 701 178 668 119 q 749 312 733 238 q 764 465 764 386 q 749 617 764 543 q 701 751 733 692 q 616 847 668 811 q 492 882 564 882 q 367 847 419 882 q 282 751 315 811 q 233 617 249 692 q 217 465 217 543 q 233 312 217 386 q 282 178 249 238 q 367 84 315 119 q 492 49 419 49 m 735 799 l 735 836 q 803 868 782 843 q 825 938 825 893 q 817 985 825 968 q 800 1018 808 1003 q 792 1056 792 1033 q 806 1090 792 1074 q 846 1107 819 1107 q 868 1104 856 1107 q 894 1090 881 1101 q 910 1051 906 1071 q 914 1010 914 1032 q 890 903 914 950 q 826 830 867 857 q 735 799 786 803 z "},"Ớ":{"ha":982,"x_min":65,"x_max":917,"o":"m 492 -21 q 335 10 411 -21 q 197 103 258 42 q 101 255 136 164 q 65 465 65 346 q 101 669 65 579 q 198 822 138 760 q 335 918 258 885 q 492 951 411 951 q 648 920 572 951 q 784 827 724 889 q 881 675 844 765 q 917 465 917 585 q 881 261 917 351 q 785 108 846 171 q 649 12 725 44 q 492 -21 572 -21 m 492 49 q 616 84 564 49 q 701 178 668 119 q 749 312 733 238 q 764 465 764 386 q 749 617 764 543 q 701 751 733 692 q 616 847 668 811 q 492 882 564 882 q 367 847 419 882 q 282 751 315 811 q 233 617 249 692 q 217 465 217 543 q 233 312 217 386 q 282 178 249 238 q 367 84 315 119 q 492 49 419 49 m 735 799 l 735 836 q 803 868 782 843 q 825 938 825 893 q 817 985 825 968 q 800 1018 808 1003 q 792 1056 792 1033 q 806 1090 792 1074 q 846 1107 819 1107 q 868 1104 856 1107 q 894 1090 881 1101 q 910 1051 906 1071 q 914 1010 914 1032 q 890 903 914 950 q 826 830 867 857 q 735 799 786 803 m 399 1036 q 463 1103 431 1071 q 529 1167 496 1136 q 578 1208 558 1196 q 615 1219 597 1219 q 653 1206 638 1219 q 668 1172 668 1193 q 653 1136 668 1154 q 599 1096 639 1118 q 512 1049 556 1072 q 424 1001 468 1025 l 399 1036 z "},"Ợ":{"ha":982,"x_min":65,"x_max":917,"o":"m 492 -21 q 335 10 411 -21 q 197 103 258 42 q 101 255 136 164 q 65 465 65 346 q 101 669 65 579 q 198 822 138 760 q 335 918 258 885 q 492 951 411 951 q 648 920 572 951 q 784 827 724 889 q 881 675 844 765 q 917 465 917 585 q 881 261 917 351 q 785 108 846 171 q 649 12 725 44 q 492 -21 572 -21 m 492 49 q 616 84 564 49 q 701 178 668 119 q 749 312 733 238 q 764 465 764 386 q 749 617 764 543 q 701 751 733 692 q 616 847 668 811 q 492 882 564 882 q 367 847 419 882 q 282 751 315 811 q 233 617 249 692 q 217 465 217 543 q 233 312 217 386 q 282 178 249 238 q 367 84 315 119 q 492 49 419 49 m 735 799 l 735 836 q 803 868 782 843 q 825 938 825 893 q 817 985 825 968 q 800 1018 808 1003 q 792 1056 792 1033 q 806 1090 792 1074 q 846 1107 819 1107 q 868 1104 856 1107 q 894 1090 881 1101 q 910 1051 906 1071 q 914 1010 914 1032 q 890 903 914 950 q 826 830 867 857 q 735 799 786 803 z "},"Ờ":{"ha":982,"x_min":65,"x_max":917,"o":"m 492 -21 q 335 10 411 -21 q 197 103 258 42 q 101 255 136 164 q 65 465 65 346 q 101 669 65 579 q 198 822 138 760 q 335 918 258 885 q 492 951 411 951 q 648 920 572 951 q 784 827 724 889 q 881 675 844 765 q 917 465 917 585 q 881 261 917 351 q 785 108 846 171 q 649 12 725 44 q 492 -21 572 -21 m 492 49 q 616 84 564 49 q 701 178 668 119 q 749 312 733 238 q 764 465 764 386 q 749 617 764 543 q 701 751 733 692 q 616 847 668 811 q 492 882 564 882 q 367 847 419 882 q 282 751 315 811 q 233 617 249 692 q 217 465 217 543 q 233 312 217 386 q 282 178 249 238 q 367 84 315 119 q 492 49 419 49 m 735 799 l 735 836 q 803 868 782 843 q 825 938 825 893 q 817 985 825 968 q 800 1018 808 1003 q 792 1056 792 1033 q 806 1090 792 1074 q 846 1107 819 1107 q 868 1104 856 1107 q 894 1090 881 1101 q 910 1051 906 1071 q 914 1010 914 1032 q 890 903 914 950 q 826 830 867 857 q 735 799 786 803 m 585 1036 l 560 1001 q 472 1049 515 1025 q 385 1094 428 1072 q 331 1135 346 1117 q 315 1172 315 1154 q 331 1206 315 1193 q 368 1219 346 1219 q 406 1208 386 1219 q 454 1167 425 1196 q 522 1102 489 1135 q 585 1036 554 1069 z "},"Ở":{"ha":982,"x_min":65,"x_max":917,"o":"m 492 -21 q 335 10 411 -21 q 197 103 258 42 q 101 255 136 164 q 65 465 65 346 q 101 669 65 579 q 198 822 138 760 q 335 918 258 885 q 492 951 411 951 q 648 920 572 951 q 784 827 724 889 q 881 675 844 765 q 917 465 917 585 q 881 261 917 351 q 785 108 846 171 q 649 12 725 44 q 492 -21 572 -21 m 492 49 q 616 84 564 49 q 701 178 668 119 q 749 312 733 238 q 764 465 764 386 q 749 617 764 543 q 701 751 733 692 q 616 847 668 811 q 492 882 564 882 q 367 847 419 882 q 282 751 315 811 q 233 617 249 692 q 217 465 217 543 q 233 312 217 386 q 282 178 249 238 q 367 84 315 119 q 492 49 419 49 m 735 799 l 735 836 q 803 868 782 843 q 825 938 825 893 q 817 985 825 968 q 800 1018 808 1003 q 792 1056 792 1033 q 806 1090 792 1074 q 846 1107 819 1107 q 868 1104 856 1107 q 894 1090 881 1101 q 910 1051 906 1071 q 914 1010 914 1032 q 890 903 914 950 q 826 830 867 857 q 735 799 786 803 m 465 997 l 453 1040 q 510 1059 493 1049 q 526 1086 526 1069 q 499 1117 526 1106 q 411 1133 471 1128 l 425 1226 q 552 1189 510 1219 q 594 1106 594 1158 q 560 1034 594 1063 q 465 997 526 1006 z "},"Ỡ":{"ha":982,"x_min":65,"x_max":917,"o":"m 492 -21 q 335 10 411 -21 q 197 103 258 42 q 101 255 136 164 q 65 465 65 346 q 101 669 65 579 q 198 822 138 760 q 335 918 258 885 q 492 951 411 951 q 648 920 572 951 q 784 827 724 889 q 881 675 844 765 q 917 465 917 585 q 881 261 917 351 q 785 108 846 171 q 649 12 725 44 q 492 -21 572 -21 m 492 49 q 616 84 564 49 q 701 178 668 119 q 749 312 733 238 q 764 465 764 386 q 749 617 764 543 q 701 751 733 692 q 616 847 668 811 q 492 882 564 882 q 367 847 419 882 q 282 751 315 811 q 233 617 249 692 q 217 465 217 543 q 233 312 217 386 q 282 178 249 238 q 367 84 315 119 q 492 49 419 49 m 735 799 l 735 836 q 803 868 782 843 q 825 938 825 893 q 817 985 825 968 q 800 1018 808 1003 q 792 1056 792 1033 q 806 1090 792 1074 q 846 1107 819 1107 q 868 1104 856 1107 q 894 1090 881 1101 q 910 1051 906 1071 q 914 1010 914 1032 q 890 903 914 950 q 826 830 867 857 q 735 799 786 803 m 242 1021 q 289 1151 254 1103 q 388 1200 324 1200 q 451 1185 425 1200 q 504 1149 478 1171 q 551 1108 528 1131 q 606 1086 575 1086 q 663 1116 640 1086 q 700 1197 685 1146 l 742 1183 q 694 1054 728 1103 q 597 1006 661 1006 q 533 1019 558 1006 q 483 1051 507 1033 q 433 1096 457 1074 q 378 1118 410 1118 q 322 1089 344 1118 q 283 1008 299 1060 l 242 1021 z "},"Ø":{"ha":982,"x_min":65,"x_max":917,"o":"m 897 913 l 132 -29 l 72 18 l 839 960 l 897 913 m 203 465 q 219 312 203 386 q 271 178 236 238 q 360 84 306 119 q 492 49 415 49 q 622 84 568 49 q 711 178 676 119 q 762 312 746 238 q 778 465 778 386 q 762 617 778 543 q 711 751 746 692 q 622 847 676 811 q 492 882 568 882 q 360 847 415 882 q 271 751 306 811 q 219 617 236 692 q 203 465 203 543 m 492 951 q 648 920 572 951 q 784 827 724 889 q 881 675 844 765 q 917 465 917 585 q 881 261 917 351 q 785 108 846 171 q 649 12 725 44 q 492 -21 572 -21 q 335 10 411 -21 q 197 103 258 42 q 101 255 136 164 q 65 465 65 346 q 101 669 65 579 q 198 822 138 760 q 335 918 258 885 q 492 951 411 951 z "},"Œ":{"ha":1303,"x_min":65,"x_max":1254,"o":"m 217 465 q 234 310 217 385 q 290 176 251 235 q 391 83 329 117 q 540 49 453 49 q 626 56 590 49 q 708 85 661 63 l 708 0 q 608 -15 653 -10 q 531 -21 564 -21 q 351 11 435 -21 q 203 106 267 43 q 102 258 139 168 q 65 465 65 349 q 102 671 65 581 q 203 824 139 761 q 351 919 267 886 q 531 951 435 951 q 608 947 563 951 q 708 931 653 942 l 708 846 q 626 875 661 868 q 542 882 590 882 q 391 848 453 882 q 291 755 329 814 q 235 621 253 696 q 217 465 217 546 m 651 0 q 655 142 654 71 q 656 285 656 213 q 656 431 656 358 l 656 499 q 656 643 656 571 q 655 788 656 715 q 651 931 654 860 l 792 931 q 789 789 790 861 q 788 644 788 717 q 788 499 788 572 l 788 447 q 788 292 788 368 q 789 144 788 217 q 792 0 790 72 l 651 0 m 1010 311 l 989 465 l 989 493 l 1010 639 l 1074 639 l 1074 311 l 1010 311 m 722 442 l 722 507 l 1033 507 l 1033 442 l 722 442 m 1147 685 l 1117 861 l 722 861 l 722 931 l 1217 931 l 1226 685 l 1147 685 m 1175 247 l 1254 247 l 1244 0 l 722 0 l 722 69 l 1144 69 l 1175 247 z "},"Ŕ":{"ha":904,"x_min":61,"x_max":885,"o":"m 61 0 l 61 57 l 243 78 l 272 78 l 454 57 l 454 0 l 61 0 m 188 0 q 191 142 190 71 q 192 285 192 213 q 192 431 192 358 l 192 499 q 192 643 192 571 q 191 788 192 715 q 188 931 190 860 l 328 931 q 325 787 326 858 q 324 642 324 715 q 324 486 324 568 l 324 444 q 324 292 324 367 q 325 144 324 217 q 328 0 326 72 l 188 0 m 781 -14 q 683 6 715 -14 q 638 75 650 25 l 582 297 q 546 383 569 354 q 485 421 522 411 q 392 431 449 431 l 258 431 l 258 493 l 431 493 q 554 518 506 493 q 626 587 603 543 q 650 686 650 631 q 601 820 650 774 q 446 867 553 867 l 257 867 l 257 931 l 450 931 q 699 867 610 931 q 788 688 788 803 q 757 576 788 629 q 665 489 726 524 q 510 446 603 454 l 510 457 q 585 443 551 454 q 643 410 618 432 q 686 356 668 389 q 718 275 704 322 l 785 44 l 738 74 l 885 57 l 885 0 q 855 -7 871 -4 q 821 -12 839 -10 q 781 -14 803 -14 m 61 874 l 61 931 l 257 931 l 257 853 l 243 853 l 61 874 m 356 1036 q 420 1103 388 1071 q 486 1167 453 1136 q 535 1208 515 1196 q 572 1219 554 1219 q 610 1206 594 1219 q 625 1172 625 1193 q 610 1136 625 1154 q 556 1096 596 1118 q 469 1049 513 1072 q 381 1001 425 1025 l 356 1036 z "},"Ř":{"ha":904,"x_min":61,"x_max":885,"o":"m 61 0 l 61 57 l 243 78 l 272 78 l 454 57 l 454 0 l 61 0 m 188 0 q 191 142 190 71 q 192 285 192 213 q 192 431 192 358 l 192 499 q 192 643 192 571 q 191 788 192 715 q 188 931 190 860 l 328 931 q 325 787 326 858 q 324 642 324 715 q 324 486 324 568 l 324 444 q 324 292 324 367 q 325 144 324 217 q 328 0 326 72 l 188 0 m 781 -14 q 683 6 715 -14 q 638 75 650 25 l 582 297 q 546 383 569 354 q 485 421 522 411 q 392 431 449 431 l 258 431 l 258 493 l 431 493 q 554 518 506 493 q 626 587 603 543 q 650 686 650 631 q 601 820 650 774 q 446 867 553 867 l 257 867 l 257 931 l 450 931 q 699 867 610 931 q 788 688 788 803 q 757 576 788 629 q 665 489 726 524 q 510 446 603 454 l 510 457 q 585 443 551 454 q 643 410 618 432 q 686 356 668 389 q 718 275 704 322 l 785 44 l 738 74 l 885 57 l 885 0 q 855 -7 871 -4 q 821 -12 839 -10 q 781 -14 803 -14 m 61 874 l 61 931 l 257 931 l 257 853 l 243 853 l 61 874 m 289 1207 l 507 1046 l 390 1046 l 608 1207 l 642 1178 l 500 1014 l 397 1014 l 256 1178 l 289 1207 z "},"Ŗ":{"ha":904,"x_min":61,"x_max":885,"o":"m 61 0 l 61 57 l 243 78 l 272 78 l 454 57 l 454 0 l 61 0 m 188 0 q 191 142 190 71 q 192 285 192 213 q 192 431 192 358 l 192 499 q 192 643 192 571 q 191 788 192 715 q 188 931 190 860 l 328 931 q 325 787 326 858 q 324 642 324 715 q 324 486 324 568 l 324 444 q 324 292 324 367 q 325 144 324 217 q 328 0 326 72 l 188 0 m 781 -14 q 683 6 715 -14 q 638 75 650 25 l 582 297 q 546 383 569 354 q 485 421 522 411 q 392 431 449 431 l 258 431 l 258 493 l 431 493 q 554 518 506 493 q 626 587 603 543 q 650 686 650 631 q 601 820 650 774 q 446 867 553 867 l 257 867 l 257 931 l 450 931 q 699 867 610 931 q 788 688 788 803 q 757 576 788 629 q 665 489 726 524 q 510 446 603 454 l 510 457 q 585 443 551 454 q 643 410 618 432 q 686 356 668 389 q 718 275 704 322 l 785 44 l 738 74 l 885 57 l 885 0 q 855 -7 871 -4 q 821 -12 839 -10 q 781 -14 803 -14 m 61 874 l 61 931 l 257 931 l 257 853 l 243 853 l 61 874 m 571 -174 q 551 -251 571 -217 q 497 -309 531 -285 q 424 -347 464 -333 l 407 -306 q 480 -256 454 -283 q 510 -201 506 -229 l 525 -242 q 451 -194 474 -224 q 429 -143 429 -165 q 445 -92 429 -112 q 496 -71 461 -71 q 529 -78 513 -71 q 563 -101 546 -85 q 569 -139 568 -122 q 571 -174 571 -156 z "},"Ṛ":{"ha":904,"x_min":61,"x_max":885,"o":"m 61 0 l 61 57 l 243 78 l 272 78 l 454 57 l 454 0 l 61 0 m 188 0 q 191 142 190 71 q 192 285 192 213 q 192 431 192 358 l 192 499 q 192 643 192 571 q 191 788 192 715 q 188 931 190 860 l 328 931 q 325 787 326 858 q 324 642 324 715 q 324 486 324 568 l 324 444 q 324 292 324 367 q 325 144 324 217 q 328 0 326 72 l 188 0 m 781 -14 q 683 6 715 -14 q 638 75 650 25 l 582 297 q 546 383 569 354 q 485 421 522 411 q 392 431 449 431 l 258 431 l 258 493 l 431 493 q 554 518 506 493 q 626 587 603 543 q 650 686 650 631 q 601 820 650 774 q 446 867 553 867 l 257 867 l 257 931 l 450 931 q 699 867 610 931 q 788 688 788 803 q 757 576 788 629 q 665 489 726 524 q 510 446 603 454 l 510 457 q 585 443 551 454 q 643 410 618 432 q 686 356 668 389 q 718 275 704 322 l 785 44 l 738 74 l 885 57 l 885 0 q 855 -7 871 -4 q 821 -12 839 -10 q 781 -14 803 -14 m 61 874 l 61 931 l 257 931 l 257 853 l 243 853 l 61 874 z "},"Ṝ":{"ha":904,"x_min":61,"x_max":885,"o":"m 61 0 l 61 57 l 243 78 l 272 78 l 454 57 l 454 0 l 61 0 m 188 0 q 191 142 190 71 q 192 285 192 213 q 192 431 192 358 l 192 499 q 192 643 192 571 q 191 788 192 715 q 188 931 190 860 l 328 931 q 325 787 326 858 q 324 642 324 715 q 324 486 324 568 l 324 444 q 324 292 324 367 q 325 144 324 217 q 328 0 326 72 l 188 0 m 781 -14 q 683 6 715 -14 q 638 75 650 25 l 582 297 q 546 383 569 354 q 485 421 522 411 q 392 431 449 431 l 258 431 l 258 493 l 431 493 q 554 518 506 493 q 626 587 603 543 q 650 686 650 631 q 601 820 650 774 q 446 867 553 867 l 257 867 l 257 931 l 450 931 q 699 867 610 931 q 788 688 788 803 q 757 576 788 629 q 665 489 726 524 q 510 446 603 454 l 510 457 q 585 443 551 454 q 643 410 618 432 q 686 356 668 389 q 718 275 704 322 l 785 44 l 738 74 l 885 57 l 885 0 q 855 -7 871 -4 q 821 -12 839 -10 q 781 -14 803 -14 m 61 874 l 61 931 l 257 931 l 257 853 l 243 853 l 61 874 m 254 1054 l 254 1142 l 643 1142 l 643 1054 l 254 1054 z "},"Ṟ":{"ha":904,"x_min":61,"x_max":885,"o":"m 61 0 l 61 57 l 243 78 l 272 78 l 454 57 l 454 0 l 61 0 m 188 0 q 191 142 190 71 q 192 285 192 213 q 192 431 192 358 l 192 499 q 192 643 192 571 q 191 788 192 715 q 188 931 190 860 l 328 931 q 325 787 326 858 q 324 642 324 715 q 324 486 324 568 l 324 444 q 324 292 324 367 q 325 144 324 217 q 328 0 326 72 l 188 0 m 781 -14 q 683 6 715 -14 q 638 75 650 25 l 582 297 q 546 383 569 354 q 485 421 522 411 q 392 431 449 431 l 258 431 l 258 493 l 431 493 q 554 518 506 493 q 626 587 603 543 q 650 686 650 631 q 601 820 650 774 q 446 867 553 867 l 257 867 l 257 931 l 450 931 q 699 867 610 931 q 788 688 788 803 q 757 576 788 629 q 665 489 726 524 q 510 446 603 454 l 510 457 q 585 443 551 454 q 643 410 618 432 q 686 356 668 389 q 718 275 704 322 l 785 44 l 738 74 l 885 57 l 885 0 q 855 -7 871 -4 q 821 -12 839 -10 q 781 -14 803 -14 m 61 874 l 61 931 l 257 931 l 257 853 l 243 853 l 61 874 z "},"Ś":{"ha":711,"x_min":56,"x_max":656,"o":"m 326 -21 q 176 1 249 -21 q 56 53 104 22 l 64 247 l 150 247 l 186 33 l 94 72 l 94 139 q 172 88 138 108 q 240 58 206 68 q 322 49 275 49 q 436 68 388 49 q 511 126 485 88 q 538 217 538 164 q 519 292 538 261 q 464 346 501 322 q 367 392 426 369 l 313 414 q 188 480 242 442 q 103 571 133 518 q 74 694 74 624 q 115 832 74 775 q 226 920 156 889 q 386 951 297 951 q 513 932 456 951 q 614 879 569 913 l 606 697 l 521 697 l 482 907 l 572 861 l 572 792 q 477 862 521 842 q 378 882 433 882 q 283 864 325 882 q 215 811 240 846 q 190 725 190 776 q 209 649 190 682 q 263 592 228 617 q 347 547 297 567 l 403 526 q 550 451 494 492 q 631 360 606 410 q 656 243 656 310 q 613 102 656 161 q 497 11 571 43 q 326 -21 424 -21 m 293 1036 q 358 1103 325 1071 q 424 1167 390 1136 q 472 1208 453 1196 q 510 1219 492 1219 q 547 1206 532 1219 q 563 1172 563 1193 q 548 1136 563 1154 q 493 1096 533 1118 q 406 1049 450 1072 q 318 1001 363 1025 l 293 1036 z "},"Š":{"ha":711,"x_min":56,"x_max":656,"o":"m 326 -21 q 176 1 249 -21 q 56 53 104 22 l 64 247 l 150 247 l 186 33 l 94 72 l 94 139 q 172 88 138 108 q 240 58 206 68 q 322 49 275 49 q 436 68 388 49 q 511 126 485 88 q 538 217 538 164 q 519 292 538 261 q 464 346 501 322 q 367 392 426 369 l 313 414 q 188 480 242 442 q 103 571 133 518 q 74 694 74 624 q 115 832 74 775 q 226 920 156 889 q 386 951 297 951 q 513 932 456 951 q 614 879 569 913 l 606 697 l 521 697 l 482 907 l 572 861 l 572 792 q 477 862 521 842 q 378 882 433 882 q 283 864 325 882 q 215 811 240 846 q 190 725 190 776 q 209 649 190 682 q 263 592 228 617 q 347 547 297 567 l 403 526 q 550 451 494 492 q 631 360 606 410 q 656 243 656 310 q 613 102 656 161 q 497 11 571 43 q 326 -21 424 -21 m 226 1207 l 444 1046 l 328 1046 l 546 1207 l 579 1178 l 438 1014 l 335 1014 l 193 1178 l 226 1207 z "},"Ş":{"ha":711,"x_min":56,"x_max":656,"o":"m 326 -21 q 176 1 249 -21 q 56 53 104 22 l 64 247 l 150 247 l 186 33 l 94 72 l 94 139 q 172 88 138 108 q 240 58 206 68 q 322 49 275 49 q 436 68 388 49 q 511 126 485 88 q 538 217 538 164 q 519 292 538 261 q 464 346 501 322 q 367 392 426 369 l 313 414 q 188 480 242 442 q 103 571 133 518 q 74 694 74 624 q 115 832 74 775 q 226 920 156 889 q 386 951 297 951 q 513 932 456 951 q 614 879 569 913 l 606 697 l 521 697 l 482 907 l 572 861 l 572 792 q 477 862 521 842 q 378 882 433 882 q 283 864 325 882 q 215 811 240 846 q 190 725 190 776 q 209 649 190 682 q 263 592 228 617 q 347 547 297 567 l 403 526 q 550 451 494 492 q 631 360 606 410 q 656 243 656 310 q 613 102 656 161 q 497 11 571 43 q 326 -21 424 -21 m 293 -119 l 311 4 l 363 4 l 349 -107 l 321 -76 q 399 -92 364 -79 q 457 -131 435 -106 q 479 -194 479 -156 q 440 -274 479 -242 q 324 -307 400 -307 q 272 -302 293 -307 q 236 -293 250 -297 l 246 -247 q 278 -253 263 -250 q 313 -256 294 -256 q 373 -238 353 -256 q 393 -192 393 -221 q 369 -143 393 -160 q 293 -119 344 -126 z "},"Ș":{"ha":711,"x_min":56,"x_max":656,"o":"m 326 -21 q 176 1 249 -21 q 56 53 104 22 l 64 247 l 150 247 l 186 33 l 94 72 l 94 139 q 172 88 138 108 q 240 58 206 68 q 322 49 275 49 q 436 68 388 49 q 511 126 485 88 q 538 217 538 164 q 519 292 538 261 q 464 346 501 322 q 367 392 426 369 l 313 414 q 188 480 242 442 q 103 571 133 518 q 74 694 74 624 q 115 832 74 775 q 226 920 156 889 q 386 951 297 951 q 513 932 456 951 q 614 879 569 913 l 606 697 l 521 697 l 482 907 l 572 861 l 572 792 q 477 862 521 842 q 378 882 433 882 q 283 864 325 882 q 215 811 240 846 q 190 725 190 776 q 209 649 190 682 q 263 592 228 617 q 347 547 297 567 l 403 526 q 550 451 494 492 q 631 360 606 410 q 656 243 656 310 q 613 102 656 161 q 497 11 571 43 q 326 -21 424 -21 m 417 -174 q 397 -251 417 -217 q 343 -309 376 -285 q 269 -347 310 -333 l 253 -306 q 326 -256 300 -283 q 356 -201 351 -229 l 371 -242 q 297 -194 319 -224 q 275 -143 275 -165 q 291 -92 275 -112 q 342 -71 307 -71 q 375 -78 358 -71 q 408 -101 392 -85 q 415 -139 414 -122 q 417 -174 417 -156 z "},"Ŝ":{"ha":711,"x_min":56,"x_max":656,"o":"m 326 -21 q 176 1 249 -21 q 56 53 104 22 l 64 247 l 150 247 l 186 33 l 94 72 l 94 139 q 172 88 138 108 q 240 58 206 68 q 322 49 275 49 q 436 68 388 49 q 511 126 485 88 q 538 217 538 164 q 519 292 538 261 q 464 346 501 322 q 367 392 426 369 l 313 414 q 188 480 242 442 q 103 571 133 518 q 74 694 74 624 q 115 832 74 775 q 226 920 156 889 q 386 951 297 951 q 513 932 456 951 q 614 879 569 913 l 606 697 l 521 697 l 482 907 l 572 861 l 572 792 q 477 862 521 842 q 378 882 433 882 q 283 864 325 882 q 215 811 240 846 q 190 725 190 776 q 209 649 190 682 q 263 592 228 617 q 347 547 297 567 l 403 526 q 550 451 494 492 q 631 360 606 410 q 656 243 656 310 q 613 102 656 161 q 497 11 571 43 q 326 -21 424 -21 m 410 1190 l 592 1031 l 565 996 l 328 1132 l 444 1132 l 207 996 l 181 1031 l 363 1190 l 410 1190 z "},"Ṡ":{"ha":711,"x_min":56,"x_max":656,"o":"m 326 -21 q 176 1 249 -21 q 56 53 104 22 l 64 247 l 150 247 l 186 33 l 94 72 l 94 139 q 172 88 138 108 q 240 58 206 68 q 322 49 275 49 q 436 68 388 49 q 511 126 485 88 q 538 217 538 164 q 519 292 538 261 q 464 346 501 322 q 367 392 426 369 l 313 414 q 188 480 242 442 q 103 571 133 518 q 74 694 74 624 q 115 832 74 775 q 226 920 156 889 q 386 951 297 951 q 513 932 456 951 q 614 879 569 913 l 606 697 l 521 697 l 482 907 l 572 861 l 572 792 q 477 862 521 842 q 378 882 433 882 q 283 864 325 882 q 215 811 240 846 q 190 725 190 776 q 209 649 190 682 q 263 592 228 617 q 347 547 297 567 l 403 526 q 550 451 494 492 q 631 360 606 410 q 656 243 656 310 q 613 102 656 161 q 497 11 571 43 q 326 -21 424 -21 m 386 1024 q 320 1049 347 1024 q 293 1113 293 1074 q 320 1177 293 1153 q 386 1201 347 1201 q 453 1177 426 1201 q 479 1113 479 1153 q 453 1049 479 1074 q 386 1024 426 1024 z "},"Ṣ":{"ha":711,"x_min":56,"x_max":656,"o":"m 326 -21 q 176 1 249 -21 q 56 53 104 22 l 64 247 l 150 247 l 186 33 l 94 72 l 94 139 q 172 88 138 108 q 240 58 206 68 q 322 49 275 49 q 436 68 388 49 q 511 126 485 88 q 538 217 538 164 q 519 292 538 261 q 464 346 501 322 q 367 392 426 369 l 313 414 q 188 480 242 442 q 103 571 133 518 q 74 694 74 624 q 115 832 74 775 q 226 920 156 889 q 386 951 297 951 q 513 932 456 951 q 614 879 569 913 l 606 697 l 521 697 l 482 907 l 572 861 l 572 792 q 477 862 521 842 q 378 882 433 882 q 283 864 325 882 q 215 811 240 846 q 190 725 190 776 q 209 649 190 682 q 263 592 228 617 q 347 547 297 567 l 403 526 q 550 451 494 492 q 631 360 606 410 q 656 243 656 310 q 613 102 656 161 q 497 11 571 43 q 326 -21 424 -21 z "},"ẞ":{"ha":953,"x_min":42,"x_max":908,"o":"m 42 0 l 42 57 l 224 78 l 251 78 l 251 0 l 42 0 m 168 0 q 172 144 171 72 q 172 288 172 215 q 172 431 172 360 l 172 579 q 213 790 172 708 q 336 912 254 872 q 540 951 418 951 q 668 935 606 951 q 782 890 731 919 l 782 854 q 676 774 711 824 q 642 653 642 724 q 652 582 642 611 q 682 531 663 553 q 729 488 701 510 l 781 447 q 854 376 826 411 q 895 304 882 342 q 908 222 908 267 q 881 110 908 167 q 797 17 854 54 q 651 -21 740 -21 q 552 -6 601 -21 q 469 39 503 10 l 478 224 l 547 224 l 578 21 l 506 100 q 581 56 553 68 q 639 43 608 43 q 720 62 686 43 q 773 114 754 81 q 792 189 792 147 q 782 244 792 218 q 753 293 772 269 q 706 339 735 317 l 657 376 q 586 445 615 410 q 542 522 557 481 q 526 611 526 563 q 553 728 526 674 q 631 823 579 782 q 754 886 682 864 l 754 853 q 653 874 701 865 q 546 882 604 882 q 405 852 458 882 q 328 757 351 822 q 304 583 304 692 l 304 429 q 304 285 304 357 q 306 142 304 213 q 308 0 307 71 l 168 0 z "},"Ť":{"ha":839,"x_min":28,"x_max":811,"o":"m 210 0 l 210 57 l 404 78 l 435 78 l 629 57 l 629 0 l 210 0 m 350 0 q 353 142 353 71 q 354 285 354 213 q 354 431 354 358 l 354 499 q 354 643 354 571 q 353 788 354 715 q 350 931 353 860 l 489 931 q 486 789 488 861 q 485 644 485 717 q 485 499 485 572 l 485 431 q 485 288 485 360 q 486 144 485 215 q 489 0 488 72 l 350 0 m 28 683 l 39 931 l 800 931 l 811 683 l 731 683 l 688 931 l 751 861 l 88 861 l 151 931 l 108 683 l 28 683 m 260 1207 l 478 1046 l 361 1046 l 579 1207 l 613 1178 l 471 1014 l 368 1014 l 226 1178 l 260 1207 z "},"Ţ":{"ha":839,"x_min":28,"x_max":811,"o":"m 210 0 l 210 57 l 404 78 l 435 78 l 629 57 l 629 0 l 210 0 m 350 0 q 353 142 353 71 q 354 285 354 213 q 354 431 354 358 l 354 499 q 354 643 354 571 q 353 788 354 715 q 350 931 353 860 l 489 931 q 486 789 488 861 q 485 644 485 717 q 485 499 485 572 l 485 431 q 485 288 485 360 q 486 144 485 215 q 489 0 488 72 l 350 0 m 28 683 l 39 931 l 800 931 l 811 683 l 731 683 l 688 931 l 751 861 l 88 861 l 151 931 l 108 683 l 28 683 m 383 -119 l 401 4 l 453 4 l 439 -107 l 411 -76 q 490 -92 454 -79 q 547 -131 525 -106 q 569 -194 569 -156 q 530 -274 569 -242 q 414 -307 490 -307 q 362 -302 383 -307 q 326 -293 340 -297 l 336 -247 q 369 -253 353 -250 q 403 -256 385 -256 q 463 -238 443 -256 q 483 -192 483 -221 q 459 -143 483 -160 q 383 -119 435 -126 z "},"Ț":{"ha":839,"x_min":28,"x_max":811,"o":"m 210 0 l 210 57 l 404 78 l 435 78 l 629 57 l 629 0 l 210 0 m 350 0 q 353 142 353 71 q 354 285 354 213 q 354 431 354 358 l 354 499 q 354 643 354 571 q 353 788 354 715 q 350 931 353 860 l 489 931 q 486 789 488 861 q 485 644 485 717 q 485 499 485 572 l 485 431 q 485 288 485 360 q 486 144 485 215 q 489 0 488 72 l 350 0 m 28 683 l 39 931 l 800 931 l 811 683 l 731 683 l 688 931 l 751 861 l 88 861 l 151 931 l 108 683 l 28 683 m 501 -174 q 481 -251 501 -217 q 428 -309 461 -285 q 354 -347 394 -333 l 338 -306 q 410 -256 385 -283 q 440 -201 436 -229 l 456 -242 q 382 -194 404 -224 q 360 -143 360 -165 q 376 -92 360 -112 q 426 -71 392 -71 q 460 -78 443 -71 q 493 -101 476 -85 q 500 -139 499 -122 q 501 -174 501 -156 z "},"Ṭ":{"ha":839,"x_min":28,"x_max":811,"o":"m 210 0 l 210 57 l 404 78 l 435 78 l 629 57 l 629 0 l 210 0 m 350 0 q 353 142 353 71 q 354 285 354 213 q 354 431 354 358 l 354 499 q 354 643 354 571 q 353 788 354 715 q 350 931 353 860 l 489 931 q 486 789 488 861 q 485 644 485 717 q 485 499 485 572 l 485 431 q 485 288 485 360 q 486 144 485 215 q 489 0 488 72 l 350 0 m 28 683 l 39 931 l 800 931 l 811 683 l 731 683 l 688 931 l 751 861 l 88 861 l 151 931 l 108 683 l 28 683 z "},"Ṯ":{"ha":839,"x_min":28,"x_max":811,"o":"m 210 0 l 210 57 l 404 78 l 435 78 l 629 57 l 629 0 l 210 0 m 350 0 q 353 142 353 71 q 354 285 354 213 q 354 431 354 358 l 354 499 q 354 643 354 571 q 353 788 354 715 q 350 931 353 860 l 489 931 q 486 789 488 861 q 485 644 485 717 q 485 499 485 572 l 485 431 q 485 288 485 360 q 486 144 485 215 q 489 0 488 72 l 350 0 m 28 683 l 39 931 l 800 931 l 811 683 l 731 683 l 688 931 l 751 861 l 88 861 l 151 931 l 108 683 l 28 683 z "},"Ù":{"ha":1010,"x_min":54,"x_max":963,"o":"m 510 -21 q 333 18 410 -21 q 215 139 257 57 q 172 350 172 221 l 172 500 q 172 644 172 572 q 172 788 172 715 q 168 931 171 860 l 307 931 q 304 790 306 861 q 303 646 303 718 q 303 500 303 574 l 303 390 q 331 203 303 272 q 411 106 360 135 q 533 78 463 78 q 665 110 613 78 q 744 217 718 143 q 771 414 771 292 l 771 931 l 842 931 l 842 381 q 799 147 842 235 q 681 19 756 58 q 510 -21 606 -21 m 54 874 l 54 931 l 447 931 l 447 874 l 265 853 l 236 853 l 54 874 m 629 874 l 629 931 l 963 931 l 963 874 l 810 854 l 782 854 l 629 874 m 628 1036 l 603 1001 q 515 1049 558 1025 q 428 1094 471 1072 q 374 1135 389 1117 q 358 1172 358 1154 q 374 1206 358 1193 q 411 1219 389 1219 q 449 1208 429 1219 q 497 1167 468 1196 q 565 1102 532 1135 q 628 1036 597 1069 z "},"Ú":{"ha":1010,"x_min":54,"x_max":963,"o":"m 510 -21 q 333 18 410 -21 q 215 139 257 57 q 172 350 172 221 l 172 500 q 172 644 172 572 q 172 788 172 715 q 168 931 171 860 l 307 931 q 304 790 306 861 q 303 646 303 718 q 303 500 303 574 l 303 390 q 331 203 303 272 q 411 106 360 135 q 533 78 463 78 q 665 110 613 78 q 744 217 718 143 q 771 414 771 292 l 771 931 l 842 931 l 842 381 q 799 147 842 235 q 681 19 756 58 q 510 -21 606 -21 m 54 874 l 54 931 l 447 931 l 447 874 l 265 853 l 236 853 l 54 874 m 629 874 l 629 931 l 963 931 l 963 874 l 810 854 l 782 854 l 629 874 m 442 1036 q 506 1103 474 1071 q 572 1167 539 1136 q 621 1208 601 1196 q 658 1219 640 1219 q 696 1206 681 1219 q 711 1172 711 1193 q 697 1136 711 1154 q 642 1096 682 1118 q 555 1049 599 1072 q 467 1001 511 1025 l 442 1036 z "},"Û":{"ha":1010,"x_min":54,"x_max":963,"o":"m 510 -21 q 333 18 410 -21 q 215 139 257 57 q 172 350 172 221 l 172 500 q 172 644 172 572 q 172 788 172 715 q 168 931 171 860 l 307 931 q 304 790 306 861 q 303 646 303 718 q 303 500 303 574 l 303 390 q 331 203 303 272 q 411 106 360 135 q 533 78 463 78 q 665 110 613 78 q 744 217 718 143 q 771 414 771 292 l 771 931 l 842 931 l 842 381 q 799 147 842 235 q 681 19 756 58 q 510 -21 606 -21 m 54 874 l 54 931 l 447 931 l 447 874 l 265 853 l 236 853 l 54 874 m 629 874 l 629 931 l 963 931 l 963 874 l 810 854 l 782 854 l 629 874 m 558 1190 l 740 1031 l 714 996 l 476 1132 l 593 1132 l 356 996 l 329 1031 l 511 1190 l 558 1190 z "},"Ü":{"ha":1010,"x_min":54,"x_max":963,"o":"m 510 -21 q 333 18 410 -21 q 215 139 257 57 q 172 350 172 221 l 172 500 q 172 644 172 572 q 172 788 172 715 q 168 931 171 860 l 307 931 q 304 790 306 861 q 303 646 303 718 q 303 500 303 574 l 303 390 q 331 203 303 272 q 411 106 360 135 q 533 78 463 78 q 665 110 613 78 q 744 217 718 143 q 771 414 771 292 l 771 931 l 842 931 l 842 381 q 799 147 842 235 q 681 19 756 58 q 510 -21 606 -21 m 54 874 l 54 931 l 447 931 l 447 874 l 265 853 l 236 853 l 54 874 m 629 874 l 629 931 l 963 931 l 963 874 l 810 854 l 782 854 l 629 874 m 379 1035 q 323 1056 347 1035 q 299 1111 299 1078 q 323 1166 299 1144 q 379 1188 347 1188 q 435 1166 413 1188 q 458 1111 458 1144 q 435 1056 458 1078 q 379 1035 413 1035 m 689 1035 q 633 1056 656 1035 q 610 1111 610 1078 q 633 1166 610 1144 q 689 1188 656 1188 q 745 1166 721 1188 q 769 1111 769 1144 q 745 1056 769 1078 q 689 1035 721 1035 z "},"Ū":{"ha":1010,"x_min":54,"x_max":963,"o":"m 510 -21 q 333 18 410 -21 q 215 139 257 57 q 172 350 172 221 l 172 500 q 172 644 172 572 q 172 788 172 715 q 168 931 171 860 l 307 931 q 304 790 306 861 q 303 646 303 718 q 303 500 303 574 l 303 390 q 331 203 303 272 q 411 106 360 135 q 533 78 463 78 q 665 110 613 78 q 744 217 718 143 q 771 414 771 292 l 771 931 l 842 931 l 842 381 q 799 147 842 235 q 681 19 756 58 q 510 -21 606 -21 m 54 874 l 54 931 l 447 931 l 447 874 l 265 853 l 236 853 l 54 874 m 629 874 l 629 931 l 963 931 l 963 874 l 810 854 l 782 854 l 629 874 m 340 1054 l 340 1142 l 729 1142 l 729 1054 l 340 1054 z "},"Ů":{"ha":1010,"x_min":54,"x_max":963,"o":"m 510 -21 q 333 18 410 -21 q 215 139 257 57 q 172 350 172 221 l 172 500 q 172 644 172 572 q 172 788 172 715 q 168 931 171 860 l 307 931 q 304 790 306 861 q 303 646 303 718 q 303 500 303 574 l 303 390 q 331 203 303 272 q 411 106 360 135 q 533 78 463 78 q 665 110 613 78 q 744 217 718 143 q 771 414 771 292 l 771 931 l 842 931 l 842 381 q 799 147 842 235 q 681 19 756 58 q 510 -21 606 -21 m 54 874 l 54 931 l 447 931 l 447 874 l 265 853 l 236 853 l 54 874 m 629 874 l 629 931 l 963 931 l 963 874 l 810 854 l 782 854 l 629 874 m 535 1004 q 442 1038 483 1004 q 401 1132 401 1071 q 442 1227 401 1193 q 535 1261 483 1261 q 627 1228 586 1261 q 668 1132 668 1194 q 627 1038 668 1072 q 535 1004 586 1004 m 535 1053 q 588 1078 569 1053 q 607 1132 607 1103 q 589 1186 607 1163 q 535 1210 571 1210 q 481 1186 500 1210 q 463 1132 463 1163 q 481 1078 463 1103 q 535 1053 500 1053 z "},"Ű":{"ha":1010,"x_min":54,"x_max":963,"o":"m 510 -21 q 333 18 410 -21 q 215 139 257 57 q 172 350 172 221 l 172 500 q 172 644 172 572 q 172 788 172 715 q 168 931 171 860 l 307 931 q 304 790 306 861 q 303 646 303 718 q 303 500 303 574 l 303 390 q 331 203 303 272 q 411 106 360 135 q 533 78 463 78 q 665 110 613 78 q 744 217 718 143 q 771 414 771 292 l 771 931 l 842 931 l 842 381 q 799 147 842 235 q 681 19 756 58 q 510 -21 606 -21 m 54 874 l 54 931 l 447 931 l 447 874 l 265 853 l 236 853 l 54 874 m 629 874 l 629 931 l 963 931 l 963 874 l 810 854 l 782 854 l 629 874 m 379 1014 l 457 1176 q 492 1222 472 1208 q 529 1235 513 1235 q 564 1222 549 1235 q 579 1188 579 1208 q 572 1160 579 1175 q 549 1126 565 1144 l 415 989 l 379 1014 m 590 1014 l 668 1176 q 703 1222 683 1208 q 742 1235 724 1235 q 776 1222 761 1235 q 790 1188 790 1208 q 783 1160 790 1175 q 760 1126 776 1144 l 626 989 l 590 1014 z "},"Ų":{"ha":1010,"x_min":54,"x_max":963,"o":"m 236 853 l 54 874 l 54 931 l 447 931 l 447 874 l 265 853 l 236 853 m 614 -307 q 530 -276 563 -307 q 497 -192 497 -244 q 510 -119 497 -153 q 545 -58 522 -86 q 596 -8 568 -29 l 596 -14 q 558 -19 578 -17 q 519 -21 539 -21 q 336 18 414 -21 q 215 139 258 57 q 172 350 172 221 l 172 500 q 172 644 172 572 q 172 788 172 717 q 168 931 171 860 l 307 931 q 304 788 306 860 q 303 644 303 717 q 303 500 303 572 l 303 390 q 331 203 303 272 q 409 106 358 135 q 528 78 460 78 q 663 110 610 78 q 744 217 717 143 q 771 414 771 292 l 771 931 l 842 931 l 842 381 q 822 215 842 283 q 769 101 803 146 q 689 25 735 56 q 631 -24 654 1 q 597 -79 608 -50 q 586 -142 586 -108 q 608 -206 586 -182 q 661 -229 631 -229 q 694 -225 678 -229 q 729 -211 711 -221 l 747 -246 q 689 -293 721 -279 q 614 -307 657 -307 m 792 854 l 629 874 l 629 931 l 963 931 l 963 874 l 821 854 l 792 854 z "},"Ŭ":{"ha":1010,"x_min":54,"x_max":963,"o":"m 510 -21 q 333 18 410 -21 q 215 139 257 57 q 172 350 172 221 l 172 500 q 172 644 172 572 q 172 788 172 715 q 168 931 171 860 l 307 931 q 304 790 306 861 q 303 646 303 718 q 303 500 303 574 l 303 390 q 331 203 303 272 q 411 106 360 135 q 533 78 463 78 q 665 110 613 78 q 744 217 718 143 q 771 414 771 292 l 771 931 l 842 931 l 842 381 q 799 147 842 235 q 681 19 756 58 q 510 -21 606 -21 m 54 874 l 54 931 l 447 931 l 447 874 l 265 853 l 236 853 l 54 874 m 629 874 l 629 931 l 963 931 l 963 874 l 810 854 l 782 854 l 629 874 m 335 1193 l 378 1208 q 433 1131 393 1161 q 535 1101 474 1101 q 635 1131 597 1101 q 692 1208 674 1161 l 735 1193 q 706 1111 729 1151 q 640 1044 682 1071 q 535 1017 597 1017 q 430 1044 472 1017 q 365 1111 388 1071 q 335 1193 342 1151 z "},"Ǔ":{"ha":1010,"x_min":54,"x_max":963,"o":"m 510 -21 q 333 18 410 -21 q 215 139 257 57 q 172 350 172 221 l 172 500 q 172 644 172 572 q 172 788 172 715 q 168 931 171 860 l 307 931 q 304 790 306 861 q 303 646 303 718 q 303 500 303 574 l 303 390 q 331 203 303 272 q 411 106 360 135 q 533 78 463 78 q 665 110 613 78 q 744 217 718 143 q 771 414 771 292 l 771 931 l 842 931 l 842 381 q 799 147 842 235 q 681 19 756 58 q 510 -21 606 -21 m 54 874 l 54 931 l 447 931 l 447 874 l 265 853 l 236 853 l 54 874 m 629 874 l 629 931 l 963 931 l 963 874 l 810 854 l 782 854 l 629 874 m 375 1207 l 593 1046 l 476 1046 l 694 1207 l 728 1178 l 586 1014 l 483 1014 l 342 1178 l 375 1207 z "},"Ǘ":{"ha":1010,"x_min":54,"x_max":963,"o":"m 510 -21 q 333 18 410 -21 q 215 139 257 57 q 172 350 172 221 l 172 500 q 172 644 172 572 q 172 788 172 715 q 168 931 171 860 l 307 931 q 304 790 306 861 q 303 646 303 718 q 303 500 303 574 l 303 390 q 331 203 303 272 q 411 106 360 135 q 533 78 463 78 q 665 110 613 78 q 744 217 718 143 q 771 414 771 292 l 771 931 l 842 931 l 842 381 q 799 147 842 235 q 681 19 756 58 q 510 -21 606 -21 m 54 874 l 54 931 l 447 931 l 447 874 l 265 853 l 236 853 l 54 874 m 629 874 l 629 931 l 963 931 l 963 874 l 810 854 l 782 854 l 629 874 m 379 1035 q 323 1056 347 1035 q 299 1111 299 1078 q 323 1166 299 1144 q 379 1188 347 1188 q 435 1166 413 1188 q 458 1111 458 1144 q 435 1056 458 1078 q 379 1035 413 1035 m 518 1179 l 486 1213 l 579 1336 q 616 1372 599 1361 q 651 1383 633 1383 q 688 1370 672 1383 q 703 1333 703 1357 q 697 1310 703 1322 q 681 1285 692 1297 q 651 1261 669 1272 l 518 1179 m 689 1035 q 633 1056 656 1035 q 610 1111 610 1078 q 633 1166 610 1144 q 689 1188 656 1188 q 745 1166 721 1188 q 769 1111 769 1144 q 745 1056 769 1078 q 689 1035 721 1035 z "},"Ǚ":{"ha":1010,"x_min":54,"x_max":963,"o":"m 510 -21 q 333 18 410 -21 q 215 139 257 57 q 172 350 172 221 l 172 500 q 172 644 172 572 q 172 788 172 715 q 168 931 171 860 l 307 931 q 304 790 306 861 q 303 646 303 718 q 303 500 303 574 l 303 390 q 331 203 303 272 q 411 106 360 135 q 533 78 463 78 q 665 110 613 78 q 744 217 718 143 q 771 414 771 292 l 771 931 l 842 931 l 842 381 q 799 147 842 235 q 681 19 756 58 q 510 -21 606 -21 m 54 874 l 54 931 l 447 931 l 447 874 l 265 853 l 236 853 l 54 874 m 629 874 l 629 931 l 963 931 l 963 874 l 810 854 l 782 854 l 629 874 m 379 1035 q 323 1056 347 1035 q 299 1111 299 1078 q 323 1166 299 1144 q 379 1188 347 1188 q 435 1166 413 1188 q 458 1111 458 1144 q 435 1056 458 1078 q 379 1035 413 1035 m 689 1035 q 633 1056 656 1035 q 610 1111 610 1078 q 633 1166 610 1144 q 689 1188 656 1188 q 745 1166 721 1188 q 769 1111 769 1144 q 745 1056 769 1078 q 689 1035 721 1035 m 375 1393 l 593 1232 l 476 1232 l 694 1393 l 728 1364 l 586 1200 l 483 1200 l 342 1364 l 375 1393 z "},"Ǜ":{"ha":1010,"x_min":54,"x_max":963,"o":"m 510 -21 q 333 18 410 -21 q 215 139 257 57 q 172 350 172 221 l 172 500 q 172 644 172 572 q 172 788 172 715 q 168 931 171 860 l 307 931 q 304 790 306 861 q 303 646 303 718 q 303 500 303 574 l 303 390 q 331 203 303 272 q 411 106 360 135 q 533 78 463 78 q 665 110 613 78 q 744 217 718 143 q 771 414 771 292 l 771 931 l 842 931 l 842 381 q 799 147 842 235 q 681 19 756 58 q 510 -21 606 -21 m 54 874 l 54 931 l 447 931 l 447 874 l 265 853 l 236 853 l 54 874 m 629 874 l 629 931 l 963 931 l 963 874 l 810 854 l 782 854 l 629 874 m 421 1261 q 392 1284 404 1272 q 375 1308 381 1296 q 369 1331 369 1319 q 385 1369 369 1354 q 422 1383 400 1383 q 458 1372 440 1383 q 494 1336 476 1361 l 588 1213 l 557 1181 l 421 1261 m 379 1035 q 323 1056 347 1035 q 299 1111 299 1078 q 323 1166 299 1144 q 379 1188 347 1188 q 435 1166 413 1188 q 458 1111 458 1144 q 435 1056 458 1078 q 379 1035 413 1035 m 689 1035 q 633 1056 656 1035 q 610 1111 610 1078 q 633 1166 610 1144 q 689 1188 656 1188 q 745 1166 721 1188 q 769 1111 769 1144 q 745 1056 769 1078 q 689 1035 721 1035 z "},"Ǖ":{"ha":1010,"x_min":54,"x_max":963,"o":"m 510 -21 q 333 18 410 -21 q 215 139 257 57 q 172 350 172 221 l 172 500 q 172 644 172 572 q 172 788 172 715 q 168 931 171 860 l 307 931 q 304 790 306 861 q 303 646 303 718 q 303 500 303 574 l 303 390 q 331 203 303 272 q 411 106 360 135 q 533 78 463 78 q 665 110 613 78 q 744 217 718 143 q 771 414 771 292 l 771 931 l 842 931 l 842 381 q 799 147 842 235 q 681 19 756 58 q 510 -21 606 -21 m 54 874 l 54 931 l 447 931 l 447 874 l 265 853 l 236 853 l 54 874 m 629 874 l 629 931 l 963 931 l 963 874 l 810 854 l 782 854 l 629 874 m 379 1035 q 323 1056 347 1035 q 299 1111 299 1078 q 323 1166 299 1144 q 379 1188 347 1188 q 435 1166 413 1188 q 458 1111 458 1144 q 435 1056 458 1078 q 379 1035 413 1035 m 689 1035 q 633 1056 656 1035 q 610 1111 610 1078 q 633 1166 610 1144 q 689 1188 656 1188 q 745 1166 721 1188 q 769 1111 769 1144 q 745 1056 769 1078 q 689 1035 721 1035 m 340 1268 l 340 1356 l 729 1356 l 729 1268 l 340 1268 z "},"Ụ":{"ha":1010,"x_min":54,"x_max":963,"o":"m 510 -21 q 333 18 410 -21 q 215 139 257 57 q 172 350 172 221 l 172 500 q 172 644 172 572 q 172 788 172 715 q 168 931 171 860 l 307 931 q 304 790 306 861 q 303 646 303 718 q 303 500 303 574 l 303 390 q 331 203 303 272 q 411 106 360 135 q 533 78 463 78 q 665 110 613 78 q 744 217 718 143 q 771 414 771 292 l 771 931 l 842 931 l 842 381 q 799 147 842 235 q 681 19 756 58 q 510 -21 606 -21 m 54 874 l 54 931 l 447 931 l 447 874 l 265 853 l 236 853 l 54 874 m 629 874 l 629 931 l 963 931 l 963 874 l 810 854 l 782 854 l 629 874 z "},"Ủ":{"ha":1010,"x_min":54,"x_max":963,"o":"m 510 -21 q 333 18 410 -21 q 215 139 257 57 q 172 350 172 221 l 172 500 q 172 644 172 572 q 172 788 172 715 q 168 931 171 860 l 307 931 q 304 790 306 861 q 303 646 303 718 q 303 500 303 574 l 303 390 q 331 203 303 272 q 411 106 360 135 q 533 78 463 78 q 665 110 613 78 q 744 217 718 143 q 771 414 771 292 l 771 931 l 842 931 l 842 381 q 799 147 842 235 q 681 19 756 58 q 510 -21 606 -21 m 54 874 l 54 931 l 447 931 l 447 874 l 265 853 l 236 853 l 54 874 m 629 874 l 629 931 l 963 931 l 963 874 l 810 854 l 782 854 l 629 874 m 508 997 l 496 1040 q 553 1059 536 1049 q 569 1086 569 1069 q 542 1117 569 1106 q 454 1133 514 1128 l 468 1226 q 595 1189 553 1219 q 638 1106 638 1158 q 603 1034 638 1063 q 508 997 569 1006 z "},"Ư":{"ha":1010,"x_min":54,"x_max":1021,"o":"m 510 -21 q 333 18 410 -21 q 215 139 257 57 q 172 350 172 221 l 172 500 q 172 644 172 572 q 172 788 172 715 q 168 931 171 860 l 307 931 q 304 790 306 861 q 303 646 303 718 q 303 500 303 574 l 303 390 q 331 203 303 272 q 411 106 360 135 q 533 78 463 78 q 665 110 613 78 q 744 217 718 143 q 771 414 771 292 l 771 931 l 842 931 l 842 381 q 799 147 842 235 q 681 19 756 58 q 510 -21 606 -21 m 821 858 l 821 931 q 908 935 883 931 q 932 965 932 940 q 924 1011 932 992 q 907 1047 915 1031 q 899 1083 899 1064 q 913 1117 899 1100 q 953 1135 928 1135 q 976 1132 964 1135 q 1001 1118 988 1129 q 1016 1078 1011 1099 q 1021 1038 1021 1057 q 967 908 1021 950 q 821 858 914 865 m 54 874 l 54 931 l 447 931 l 447 874 l 265 853 l 236 853 l 54 874 m 629 874 l 629 931 l 810 931 l 810 854 l 782 854 l 629 874 z "},"Ứ":{"ha":1010,"x_min":54,"x_max":1021,"o":"m 510 -21 q 333 18 410 -21 q 215 139 257 57 q 172 350 172 221 l 172 500 q 172 644 172 572 q 172 788 172 715 q 168 931 171 860 l 307 931 q 304 790 306 861 q 303 646 303 718 q 303 500 303 574 l 303 390 q 331 203 303 272 q 411 106 360 135 q 533 78 463 78 q 665 110 613 78 q 744 217 718 143 q 771 414 771 292 l 771 931 l 842 931 l 842 381 q 799 147 842 235 q 681 19 756 58 q 510 -21 606 -21 m 821 858 l 821 931 q 908 935 883 931 q 932 965 932 940 q 924 1011 932 992 q 907 1047 915 1031 q 899 1083 899 1064 q 913 1117 899 1100 q 953 1135 928 1135 q 976 1132 964 1135 q 1001 1118 988 1129 q 1016 1078 1011 1099 q 1021 1038 1021 1057 q 967 908 1021 950 q 821 858 914 865 m 54 874 l 54 931 l 447 931 l 447 874 l 265 853 l 236 853 l 54 874 m 629 874 l 629 931 l 810 931 l 810 854 l 782 854 l 629 874 m 442 1036 q 506 1103 474 1071 q 572 1167 539 1136 q 621 1208 601 1196 q 658 1219 640 1219 q 696 1206 681 1219 q 711 1172 711 1193 q 697 1136 711 1154 q 642 1096 682 1118 q 555 1049 599 1072 q 467 1001 511 1025 l 442 1036 z "},"Ự":{"ha":1010,"x_min":54,"x_max":1021,"o":"m 510 -21 q 333 18 410 -21 q 215 139 257 57 q 172 350 172 221 l 172 500 q 172 644 172 572 q 172 788 172 715 q 168 931 171 860 l 307 931 q 304 790 306 861 q 303 646 303 718 q 303 500 303 574 l 303 390 q 331 203 303 272 q 411 106 360 135 q 533 78 463 78 q 665 110 613 78 q 744 217 718 143 q 771 414 771 292 l 771 931 l 842 931 l 842 381 q 799 147 842 235 q 681 19 756 58 q 510 -21 606 -21 m 821 858 l 821 931 q 908 935 883 931 q 932 965 932 940 q 924 1011 932 992 q 907 1047 915 1031 q 899 1083 899 1064 q 913 1117 899 1100 q 953 1135 928 1135 q 976 1132 964 1135 q 1001 1118 988 1129 q 1016 1078 1011 1099 q 1021 1038 1021 1057 q 967 908 1021 950 q 821 858 914 865 m 54 874 l 54 931 l 447 931 l 447 874 l 265 853 l 236 853 l 54 874 m 629 874 l 629 931 l 810 931 l 810 854 l 782 854 l 629 874 z "},"Ừ":{"ha":1010,"x_min":54,"x_max":1021,"o":"m 510 -21 q 333 18 410 -21 q 215 139 257 57 q 172 350 172 221 l 172 500 q 172 644 172 572 q 172 788 172 715 q 168 931 171 860 l 307 931 q 304 790 306 861 q 303 646 303 718 q 303 500 303 574 l 303 390 q 331 203 303 272 q 411 106 360 135 q 533 78 463 78 q 665 110 613 78 q 744 217 718 143 q 771 414 771 292 l 771 931 l 842 931 l 842 381 q 799 147 842 235 q 681 19 756 58 q 510 -21 606 -21 m 821 858 l 821 931 q 908 935 883 931 q 932 965 932 940 q 924 1011 932 992 q 907 1047 915 1031 q 899 1083 899 1064 q 913 1117 899 1100 q 953 1135 928 1135 q 976 1132 964 1135 q 1001 1118 988 1129 q 1016 1078 1011 1099 q 1021 1038 1021 1057 q 967 908 1021 950 q 821 858 914 865 m 54 874 l 54 931 l 447 931 l 447 874 l 265 853 l 236 853 l 54 874 m 629 874 l 629 931 l 810 931 l 810 854 l 782 854 l 629 874 m 628 1036 l 603 1001 q 515 1049 558 1025 q 428 1094 471 1072 q 374 1135 389 1117 q 358 1172 358 1154 q 374 1206 358 1193 q 411 1219 389 1219 q 449 1208 429 1219 q 497 1167 468 1196 q 565 1102 532 1135 q 628 1036 597 1069 z "},"Ử":{"ha":1010,"x_min":54,"x_max":1021,"o":"m 510 -21 q 333 18 410 -21 q 215 139 257 57 q 172 350 172 221 l 172 500 q 172 644 172 572 q 172 788 172 715 q 168 931 171 860 l 307 931 q 304 790 306 861 q 303 646 303 718 q 303 500 303 574 l 303 390 q 331 203 303 272 q 411 106 360 135 q 533 78 463 78 q 665 110 613 78 q 744 217 718 143 q 771 414 771 292 l 771 931 l 842 931 l 842 381 q 799 147 842 235 q 681 19 756 58 q 510 -21 606 -21 m 821 858 l 821 931 q 908 935 883 931 q 932 965 932 940 q 924 1011 932 992 q 907 1047 915 1031 q 899 1083 899 1064 q 913 1117 899 1100 q 953 1135 928 1135 q 976 1132 964 1135 q 1001 1118 988 1129 q 1016 1078 1011 1099 q 1021 1038 1021 1057 q 967 908 1021 950 q 821 858 914 865 m 54 874 l 54 931 l 447 931 l 447 874 l 265 853 l 236 853 l 54 874 m 629 874 l 629 931 l 810 931 l 810 854 l 782 854 l 629 874 m 508 997 l 496 1040 q 553 1059 536 1049 q 569 1086 569 1069 q 542 1117 569 1106 q 454 1133 514 1128 l 468 1226 q 595 1189 553 1219 q 638 1106 638 1158 q 603 1034 638 1063 q 508 997 569 1006 z "},"Ữ":{"ha":1010,"x_min":54,"x_max":1021,"o":"m 510 -21 q 333 18 410 -21 q 215 139 257 57 q 172 350 172 221 l 172 500 q 172 644 172 572 q 172 788 172 715 q 168 931 171 860 l 307 931 q 304 790 306 861 q 303 646 303 718 q 303 500 303 574 l 303 390 q 331 203 303 272 q 411 106 360 135 q 533 78 463 78 q 665 110 613 78 q 744 217 718 143 q 771 414 771 292 l 771 931 l 842 931 l 842 381 q 799 147 842 235 q 681 19 756 58 q 510 -21 606 -21 m 821 858 l 821 931 q 908 935 883 931 q 932 965 932 940 q 924 1011 932 992 q 907 1047 915 1031 q 899 1083 899 1064 q 913 1117 899 1100 q 953 1135 928 1135 q 976 1132 964 1135 q 1001 1118 988 1129 q 1016 1078 1011 1099 q 1021 1038 1021 1057 q 967 908 1021 950 q 821 858 914 865 m 54 874 l 54 931 l 447 931 l 447 874 l 265 853 l 236 853 l 54 874 m 629 874 l 629 931 l 810 931 l 810 854 l 782 854 l 629 874 m 285 1021 q 332 1151 297 1103 q 431 1200 367 1200 q 494 1185 468 1200 q 547 1149 521 1171 q 594 1108 571 1131 q 649 1086 618 1086 q 706 1116 683 1086 q 743 1197 728 1146 l 785 1183 q 738 1054 771 1103 q 640 1006 704 1006 q 576 1019 601 1006 q 526 1051 550 1033 q 476 1096 500 1074 q 421 1118 453 1118 q 365 1089 388 1118 q 326 1008 342 1060 l 285 1021 z "},"Ũ":{"ha":1010,"x_min":54,"x_max":963,"o":"m 510 -21 q 333 18 410 -21 q 215 139 257 57 q 172 350 172 221 l 172 500 q 172 644 172 572 q 172 788 172 715 q 168 931 171 860 l 307 931 q 304 790 306 861 q 303 646 303 718 q 303 500 303 574 l 303 390 q 331 203 303 272 q 411 106 360 135 q 533 78 463 78 q 665 110 613 78 q 744 217 718 143 q 771 414 771 292 l 771 931 l 842 931 l 842 381 q 799 147 842 235 q 681 19 756 58 q 510 -21 606 -21 m 54 874 l 54 931 l 447 931 l 447 874 l 265 853 l 236 853 l 54 874 m 629 874 l 629 931 l 963 931 l 963 874 l 810 854 l 782 854 l 629 874 m 285 1021 q 332 1151 297 1103 q 431 1200 367 1200 q 494 1185 468 1200 q 547 1149 521 1171 q 594 1108 571 1131 q 649 1086 618 1086 q 706 1116 683 1086 q 743 1197 728 1146 l 785 1183 q 738 1054 771 1103 q 640 1006 704 1006 q 576 1019 601 1006 q 526 1051 550 1033 q 476 1096 500 1074 q 421 1118 453 1118 q 365 1089 388 1118 q 326 1008 342 1060 l 285 1021 z "},"Ẃ":{"ha":1336,"x_min":21,"x_max":1324,"o":"m 386 -10 l 115 931 l 251 931 l 453 178 l 428 178 l 435 200 l 678 931 l 728 931 l 971 172 l 947 172 l 953 194 l 1156 931 l 1226 931 l 972 -10 l 913 -10 l 658 753 l 685 753 l 678 732 l 446 -10 l 386 -10 m 21 874 l 21 931 l 399 931 l 399 874 l 231 853 l 201 853 l 21 874 m 514 874 l 514 931 l 892 931 l 892 874 l 722 853 l 692 853 l 514 874 m 1008 874 l 1008 931 l 1324 931 l 1324 874 l 1181 853 l 1153 853 l 1008 874 m 610 1036 q 674 1103 642 1071 q 740 1167 707 1136 q 789 1208 769 1196 q 826 1219 808 1219 q 864 1206 849 1219 q 879 1172 879 1193 q 865 1136 879 1154 q 810 1096 850 1118 q 723 1049 767 1072 q 635 1001 679 1025 l 610 1036 z "},"Ŵ":{"ha":1336,"x_min":21,"x_max":1324,"o":"m 386 -10 l 115 931 l 251 931 l 453 178 l 428 178 l 435 200 l 678 931 l 728 931 l 971 172 l 947 172 l 953 194 l 1156 931 l 1226 931 l 972 -10 l 913 -10 l 658 753 l 685 753 l 678 732 l 446 -10 l 386 -10 m 21 874 l 21 931 l 399 931 l 399 874 l 231 853 l 201 853 l 21 874 m 514 874 l 514 931 l 892 931 l 892 874 l 722 853 l 692 853 l 514 874 m 1008 874 l 1008 931 l 1324 931 l 1324 874 l 1181 853 l 1153 853 l 1008 874 m 726 1190 l 908 1031 l 882 996 l 644 1132 l 761 1132 l 524 996 l 497 1031 l 679 1190 l 726 1190 z "},"Ẅ":{"ha":1336,"x_min":21,"x_max":1324,"o":"m 386 -10 l 115 931 l 251 931 l 453 178 l 428 178 l 435 200 l 678 931 l 728 931 l 971 172 l 947 172 l 953 194 l 1156 931 l 1226 931 l 972 -10 l 913 -10 l 658 753 l 685 753 l 678 732 l 446 -10 l 386 -10 m 21 874 l 21 931 l 399 931 l 399 874 l 231 853 l 201 853 l 21 874 m 514 874 l 514 931 l 892 931 l 892 874 l 722 853 l 692 853 l 514 874 m 1008 874 l 1008 931 l 1324 931 l 1324 874 l 1181 853 l 1153 853 l 1008 874 m 547 1035 q 491 1056 515 1035 q 467 1111 467 1078 q 491 1166 467 1144 q 547 1188 515 1188 q 603 1166 581 1188 q 626 1111 626 1144 q 603 1056 626 1078 q 547 1035 581 1035 m 857 1035 q 801 1056 824 1035 q 778 1111 778 1078 q 801 1166 778 1144 q 857 1188 824 1188 q 913 1166 889 1188 q 938 1111 938 1144 q 913 1056 938 1078 q 857 1035 889 1035 z "},"Ẁ":{"ha":1336,"x_min":21,"x_max":1324,"o":"m 386 -10 l 115 931 l 251 931 l 453 178 l 428 178 l 435 200 l 678 931 l 728 931 l 971 172 l 947 172 l 953 194 l 1156 931 l 1226 931 l 972 -10 l 913 -10 l 658 753 l 685 753 l 678 732 l 446 -10 l 386 -10 m 21 874 l 21 931 l 399 931 l 399 874 l 231 853 l 201 853 l 21 874 m 514 874 l 514 931 l 892 931 l 892 874 l 722 853 l 692 853 l 514 874 m 1008 874 l 1008 931 l 1324 931 l 1324 874 l 1181 853 l 1153 853 l 1008 874 m 796 1036 l 771 1001 q 683 1049 726 1025 q 596 1094 639 1072 q 542 1135 557 1117 q 526 1172 526 1154 q 542 1206 526 1193 q 579 1219 557 1219 q 617 1208 597 1219 q 665 1167 636 1196 q 733 1102 700 1135 q 796 1036 765 1069 z "},"Ý":{"ha":879,"x_min":35,"x_max":865,"o":"m 232 0 l 232 57 l 426 78 l 456 78 l 651 57 l 651 0 l 232 0 m 372 0 q 374 94 374 46 q 376 193 375 142 q 376 301 376 244 q 376 418 376 357 l 507 418 q 507 301 507 357 q 508 194 507 246 q 509 94 508 143 q 511 0 510 46 l 372 0 m 400 311 l 96 931 l 247 931 l 497 386 l 450 386 l 461 408 l 707 931 l 779 931 l 481 311 l 400 311 m 35 874 l 35 931 l 413 931 l 413 874 l 232 853 l 203 853 l 35 874 m 547 874 l 547 931 l 865 931 l 865 874 l 728 853 l 700 853 l 547 874 m 386 1036 q 451 1103 418 1071 q 517 1167 483 1136 q 565 1208 546 1196 q 603 1219 585 1219 q 640 1206 625 1219 q 656 1172 656 1193 q 641 1136 656 1154 q 586 1096 626 1118 q 499 1049 543 1072 q 411 1001 456 1025 l 386 1036 z "},"Ÿ":{"ha":879,"x_min":35,"x_max":865,"o":"m 232 0 l 232 57 l 426 78 l 456 78 l 651 57 l 651 0 l 232 0 m 372 0 q 374 94 374 46 q 376 193 375 142 q 376 301 376 244 q 376 418 376 357 l 507 418 q 507 301 507 357 q 508 194 507 246 q 509 94 508 143 q 511 0 510 46 l 372 0 m 400 311 l 96 931 l 247 931 l 497 386 l 450 386 l 461 408 l 707 931 l 779 931 l 481 311 l 400 311 m 35 874 l 35 931 l 413 931 l 413 874 l 232 853 l 203 853 l 35 874 m 547 874 l 547 931 l 865 931 l 865 874 l 728 853 l 700 853 l 547 874 m 324 1035 q 267 1056 292 1035 q 243 1111 243 1078 q 267 1166 243 1144 q 324 1188 292 1188 q 380 1166 357 1188 q 403 1111 403 1144 q 380 1056 403 1078 q 324 1035 357 1035 m 633 1035 q 577 1056 600 1035 q 554 1111 554 1078 q 577 1166 554 1144 q 633 1188 600 1188 q 690 1166 665 1188 q 714 1111 714 1144 q 690 1056 714 1078 q 633 1035 665 1035 z "},"Ŷ":{"ha":879,"x_min":35,"x_max":865,"o":"m 232 0 l 232 57 l 426 78 l 456 78 l 651 57 l 651 0 l 232 0 m 372 0 q 374 94 374 46 q 376 193 375 142 q 376 301 376 244 q 376 418 376 357 l 507 418 q 507 301 507 357 q 508 194 507 246 q 509 94 508 143 q 511 0 510 46 l 372 0 m 400 311 l 96 931 l 247 931 l 497 386 l 450 386 l 461 408 l 707 931 l 779 931 l 481 311 l 400 311 m 35 874 l 35 931 l 413 931 l 413 874 l 232 853 l 203 853 l 35 874 m 547 874 l 547 931 l 865 931 l 865 874 l 728 853 l 700 853 l 547 874 m 503 1190 l 685 1031 l 658 996 l 421 1132 l 538 1132 l 300 996 l 274 1031 l 456 1190 l 503 1190 z "},"Ẏ":{"ha":879,"x_min":35,"x_max":865,"o":"m 232 0 l 232 57 l 426 78 l 456 78 l 651 57 l 651 0 l 232 0 m 372 0 q 374 94 374 46 q 376 193 375 142 q 376 301 376 244 q 376 418 376 357 l 507 418 q 507 301 507 357 q 508 194 507 246 q 509 94 508 143 q 511 0 510 46 l 372 0 m 400 311 l 96 931 l 247 931 l 497 386 l 450 386 l 461 408 l 707 931 l 779 931 l 481 311 l 400 311 m 35 874 l 35 931 l 413 931 l 413 874 l 232 853 l 203 853 l 35 874 m 547 874 l 547 931 l 865 931 l 865 874 l 728 853 l 700 853 l 547 874 m 479 1024 q 413 1049 440 1024 q 386 1113 386 1074 q 413 1177 386 1153 q 479 1201 440 1201 q 546 1177 519 1201 q 572 1113 572 1153 q 546 1049 572 1074 q 479 1024 519 1024 z "},"Ỵ":{"ha":879,"x_min":35,"x_max":865,"o":"m 232 0 l 232 57 l 426 78 l 456 78 l 651 57 l 651 0 l 232 0 m 372 0 q 374 94 374 46 q 376 193 375 142 q 376 301 376 244 q 376 418 376 357 l 507 418 q 507 301 507 357 q 508 194 507 246 q 509 94 508 143 q 511 0 510 46 l 372 0 m 400 311 l 96 931 l 247 931 l 497 386 l 450 386 l 461 408 l 707 931 l 779 931 l 481 311 l 400 311 m 35 874 l 35 931 l 413 931 l 413 874 l 232 853 l 203 853 l 35 874 m 547 874 l 547 931 l 865 931 l 865 874 l 728 853 l 700 853 l 547 874 z "},"Ỳ":{"ha":879,"x_min":35,"x_max":865,"o":"m 232 0 l 232 57 l 426 78 l 456 78 l 651 57 l 651 0 l 232 0 m 372 0 q 374 94 374 46 q 376 193 375 142 q 376 301 376 244 q 376 418 376 357 l 507 418 q 507 301 507 357 q 508 194 507 246 q 509 94 508 143 q 511 0 510 46 l 372 0 m 400 311 l 96 931 l 247 931 l 497 386 l 450 386 l 461 408 l 707 931 l 779 931 l 481 311 l 400 311 m 35 874 l 35 931 l 413 931 l 413 874 l 232 853 l 203 853 l 35 874 m 547 874 l 547 931 l 865 931 l 865 874 l 728 853 l 700 853 l 547 874 m 572 1036 l 547 1001 q 459 1049 503 1025 q 372 1094 415 1072 q 318 1135 333 1117 q 303 1172 303 1154 q 318 1206 303 1193 q 356 1219 333 1219 q 393 1208 374 1219 q 442 1167 413 1196 q 509 1102 476 1135 q 572 1036 542 1069 z "},"Ỷ":{"ha":879,"x_min":35,"x_max":865,"o":"m 232 0 l 232 57 l 426 78 l 456 78 l 651 57 l 651 0 l 232 0 m 372 0 q 374 94 374 46 q 376 193 375 142 q 376 301 376 244 q 376 418 376 357 l 507 418 q 507 301 507 357 q 508 194 507 246 q 509 94 508 143 q 511 0 510 46 l 372 0 m 400 311 l 96 931 l 247 931 l 497 386 l 450 386 l 461 408 l 707 931 l 779 931 l 481 311 l 400 311 m 35 874 l 35 931 l 413 931 l 413 874 l 232 853 l 203 853 l 35 874 m 547 874 l 547 931 l 865 931 l 865 874 l 728 853 l 700 853 l 547 874 m 453 997 l 440 1040 q 497 1059 481 1049 q 514 1086 514 1069 q 486 1117 514 1106 q 399 1133 458 1128 l 413 1226 q 540 1189 497 1219 q 582 1106 582 1158 q 548 1034 582 1063 q 453 997 514 1006 z "},"Ỹ":{"ha":879,"x_min":35,"x_max":865,"o":"m 232 0 l 232 57 l 426 78 l 456 78 l 651 57 l 651 0 l 232 0 m 372 0 q 374 94 374 46 q 376 193 375 142 q 376 301 376 244 q 376 418 376 357 l 507 418 q 507 301 507 357 q 508 194 507 246 q 509 94 508 143 q 511 0 510 46 l 372 0 m 400 311 l 96 931 l 247 931 l 497 386 l 450 386 l 461 408 l 707 931 l 779 931 l 481 311 l 400 311 m 35 874 l 35 931 l 413 931 l 413 874 l 232 853 l 203 853 l 35 874 m 547 874 l 547 931 l 865 931 l 865 874 l 728 853 l 700 853 l 547 874 m 229 1021 q 276 1151 242 1103 q 375 1200 311 1200 q 439 1185 413 1200 q 492 1149 465 1171 q 539 1108 515 1131 q 593 1086 563 1086 q 650 1116 628 1086 q 688 1197 672 1146 l 729 1183 q 682 1054 715 1103 q 585 1006 649 1006 q 520 1019 546 1006 q 471 1051 494 1033 q 421 1096 444 1074 q 365 1118 397 1118 q 309 1089 332 1118 q 271 1008 286 1060 l 229 1021 z "},"Ź":{"ha":765,"x_min":28,"x_max":738,"o":"m 28 0 l 28 50 l 575 896 l 561 840 l 561 861 l 342 861 l 122 861 l 172 901 l 126 683 l 42 683 l 53 931 l 707 931 l 707 882 l 161 35 l 175 86 l 175 69 l 414 69 l 657 69 l 607 29 l 653 247 l 738 247 l 726 0 l 28 0 m 276 1036 q 341 1103 308 1071 q 407 1167 374 1136 q 456 1208 436 1196 q 493 1219 475 1219 q 531 1206 515 1219 q 546 1172 546 1193 q 531 1136 546 1154 q 476 1096 517 1118 q 390 1049 433 1072 q 301 1001 346 1025 l 276 1036 z "},"Ž":{"ha":765,"x_min":28,"x_max":738,"o":"m 28 0 l 28 50 l 575 896 l 561 840 l 561 861 l 342 861 l 122 861 l 172 901 l 126 683 l 42 683 l 53 931 l 707 931 l 707 882 l 161 35 l 175 86 l 175 69 l 414 69 l 657 69 l 607 29 l 653 247 l 738 247 l 726 0 l 28 0 m 210 1207 l 428 1046 l 311 1046 l 529 1207 l 563 1178 l 421 1014 l 318 1014 l 176 1178 l 210 1207 z "},"Ż":{"ha":765,"x_min":28,"x_max":738,"o":"m 28 0 l 28 50 l 575 896 l 561 840 l 561 861 l 342 861 l 122 861 l 172 901 l 126 683 l 42 683 l 53 931 l 707 931 l 707 882 l 161 35 l 175 86 l 175 69 l 414 69 l 657 69 l 607 29 l 653 247 l 738 247 l 726 0 l 28 0 m 369 1024 q 303 1049 331 1024 q 276 1113 276 1074 q 303 1177 276 1153 q 369 1201 331 1201 q 436 1177 410 1201 q 463 1113 463 1153 q 436 1049 463 1074 q 369 1024 410 1024 z "},"Ẓ":{"ha":765,"x_min":28,"x_max":738,"o":"m 28 0 l 28 50 l 575 896 l 561 840 l 561 861 l 342 861 l 122 861 l 172 901 l 126 683 l 42 683 l 53 931 l 707 931 l 707 882 l 161 35 l 175 86 l 175 69 l 414 69 l 657 69 l 607 29 l 653 247 l 738 247 l 726 0 l 28 0 z "},"Ð":{"ha":986,"x_min":61,"x_max":921,"o":"m 536 443 l 61 443 l 61 508 l 536 508 l 536 443 m 61 0 l 61 57 l 243 78 l 257 78 l 257 0 l 61 0 m 188 0 q 191 142 190 71 q 192 290 192 214 q 192 447 192 367 l 192 499 q 192 643 192 571 q 191 788 192 715 q 188 931 190 860 l 328 931 q 325 789 326 861 q 324 644 324 717 q 324 499 324 572 l 324 447 q 324 292 324 368 q 325 144 324 217 q 328 0 326 72 l 188 0 m 257 0 l 257 65 l 436 65 q 617 113 543 65 q 731 249 692 160 q 769 464 769 338 q 685 763 769 660 q 449 867 600 867 l 257 867 l 257 931 l 471 931 q 706 876 604 931 q 864 719 807 822 q 921 464 921 615 q 858 210 921 314 q 688 53 796 107 q 444 0 581 0 l 257 0 m 61 874 l 61 931 l 257 931 l 257 853 l 243 853 l 61 874 z "},"Þ":{"ha":849,"x_min":61,"x_max":814,"o":"m 258 214 l 258 279 l 440 279 q 620 337 563 279 q 678 483 678 394 q 619 628 678 578 q 436 679 561 679 l 258 679 l 258 744 l 453 744 q 655 711 575 744 q 774 619 735 678 q 814 481 814 560 q 797 383 814 431 q 735 298 779 336 q 615 237 692 260 q 418 214 538 214 l 258 214 m 188 0 q 191 142 190 71 q 192 285 192 213 q 192 431 192 358 l 192 499 q 192 643 192 571 q 191 788 192 715 q 188 931 190 860 l 328 931 q 325 788 326 860 q 324 645 324 717 q 324 501 324 574 l 324 431 q 324 290 324 363 q 325 144 324 217 q 328 0 326 71 l 188 0 m 243 853 l 61 874 l 61 931 l 461 931 l 461 874 l 279 853 l 243 853 m 61 0 l 61 57 l 243 78 l 279 78 l 461 57 l 461 0 l 61 0 z "},"Ŋ":{"ha":1021,"x_min":54,"x_max":965,"o":"m 54 0 l 54 57 l 200 78 l 229 78 l 390 57 l 390 0 l 54 0 m 172 0 l 172 899 l 243 899 l 243 465 l 243 0 l 172 0 m 604 -185 q 528 -170 564 -185 q 483 -117 493 -156 q 513 -63 490 -78 q 567 -49 535 -49 q 618 -58 594 -49 q 671 -89 642 -67 l 718 -125 l 718 -136 l 679 -136 l 679 -131 q 738 -53 715 -92 q 770 38 760 -15 q 781 169 781 90 l 776 465 l 776 931 l 847 931 l 847 299 q 844 145 847 208 q 833 37 842 82 q 810 -41 825 -8 q 769 -104 794 -74 q 694 -166 735 -147 q 604 -185 653 -185 m 792 0 l 228 793 l 228 793 l 181 863 l 61 874 l 61 931 l 289 931 l 818 181 l 822 181 l 822 0 l 792 0 m 799 853 l 631 874 l 631 931 l 965 931 l 965 874 l 826 853 l 799 853 z "},"Ə":{"ha":913,"x_min":65,"x_max":847,"o":"m 65 386 q 68 453 65 418 q 75 508 71 489 l 760 508 l 761 443 l 214 443 q 208 393 210 417 q 206 333 206 369 q 224 227 206 278 q 274 136 242 176 q 353 72 307 96 q 456 49 400 49 q 589 92 533 49 q 674 225 644 135 q 703 457 703 315 q 662 691 703 600 q 554 825 621 782 q 410 868 488 868 q 267 838 332 868 q 153 756 201 808 l 114 797 q 247 909 167 867 q 438 951 328 951 q 597 919 522 951 q 727 826 671 888 q 815 676 783 765 q 847 472 847 588 q 817 267 847 358 q 732 112 786 176 q 607 13 678 47 q 454 -21 536 -21 q 295 6 367 -21 q 172 85 224 33 q 93 213 121 138 q 65 386 65 289 z "},"à":{"ha":707,"x_min":63,"x_max":699,"o":"m 249 -18 q 117 26 172 -18 q 63 156 63 69 q 80 232 63 196 q 147 301 97 268 q 293 361 197 333 q 365 383 329 372 q 437 403 401 393 q 508 424 472 414 l 508 374 q 415 344 461 360 q 324 314 369 329 q 232 270 261 294 q 194 222 203 246 q 186 175 186 197 q 218 97 186 121 q 297 74 250 74 q 342 81 321 74 q 397 110 364 89 q 486 174 431 132 l 506 104 l 464 104 q 390 35 422 63 q 324 -5 357 8 q 249 -18 292 -18 m 578 -14 q 485 24 519 -14 q 450 126 450 63 l 450 133 l 450 446 q 437 550 450 514 q 394 600 424 586 q 319 614 365 614 q 265 609 296 614 q 194 589 235 604 l 253 633 l 218 515 q 191 466 208 483 q 146 449 174 449 q 100 464 117 449 q 81 506 83 479 q 173 631 100 585 q 351 678 246 678 q 472 653 425 678 q 543 576 519 629 q 567 436 567 524 l 567 140 q 581 77 567 96 q 617 58 594 58 q 647 67 635 58 q 671 89 660 75 l 699 58 q 644 2 674 18 q 578 -14 614 -14 m 425 800 l 389 774 q 333 824 361 799 q 277 874 304 849 q 221 924 250 899 q 183 969 192 951 q 174 1000 174 986 q 190 1040 174 1028 q 226 1053 206 1053 q 264 1040 246 1053 q 301 996 282 1028 q 344 930 324 963 q 385 865 365 897 q 425 800 406 833 z "},"á":{"ha":707,"x_min":63,"x_max":699,"o":"m 249 -18 q 117 26 172 -18 q 63 156 63 69 q 80 232 63 196 q 147 301 97 268 q 293 361 197 333 q 365 383 329 372 q 437 403 401 393 q 508 424 472 414 l 508 374 q 415 344 461 360 q 324 314 369 329 q 232 270 261 294 q 194 222 203 246 q 186 175 186 197 q 218 97 186 121 q 297 74 250 74 q 342 81 321 74 q 397 110 364 89 q 486 174 431 132 l 506 104 l 464 104 q 390 35 422 63 q 324 -5 357 8 q 249 -18 292 -18 m 578 -14 q 485 24 519 -14 q 450 126 450 63 l 450 133 l 450 446 q 437 550 450 514 q 394 600 424 586 q 319 614 365 614 q 265 609 296 614 q 194 589 235 604 l 253 633 l 218 515 q 191 466 208 483 q 146 449 174 449 q 100 464 117 449 q 81 506 83 479 q 173 631 100 585 q 351 678 246 678 q 472 653 425 678 q 543 576 519 629 q 567 436 567 524 l 567 140 q 581 77 567 96 q 617 58 594 58 q 647 67 635 58 q 671 89 660 75 l 699 58 q 644 2 674 18 q 578 -14 614 -14 m 267 800 q 306 865 286 833 q 347 930 326 897 q 390 996 368 963 q 428 1040 410 1028 q 465 1053 447 1053 q 501 1040 485 1053 q 518 1000 518 1028 q 509 969 518 986 q 471 924 500 951 q 415 874 443 899 q 360 824 388 849 q 303 774 332 799 l 267 800 z "},"â":{"ha":707,"x_min":63,"x_max":699,"o":"m 249 -18 q 117 26 172 -18 q 63 156 63 69 q 80 232 63 196 q 147 301 97 268 q 293 361 197 333 q 365 383 329 372 q 437 403 401 393 q 508 424 472 414 l 508 374 q 415 344 461 360 q 324 314 369 329 q 232 270 261 294 q 194 222 203 246 q 186 175 186 197 q 218 97 186 121 q 297 74 250 74 q 342 81 321 74 q 397 110 364 89 q 486 174 431 132 l 506 104 l 464 104 q 390 35 422 63 q 324 -5 357 8 q 249 -18 292 -18 m 578 -14 q 485 24 519 -14 q 450 126 450 63 l 450 133 l 450 446 q 437 550 450 514 q 394 600 424 586 q 319 614 365 614 q 265 609 296 614 q 194 589 235 604 l 253 633 l 218 515 q 191 466 208 483 q 146 449 174 449 q 100 464 117 449 q 81 506 83 479 q 173 631 100 585 q 351 678 246 678 q 472 653 425 678 q 543 576 519 629 q 567 436 567 524 l 567 140 q 581 77 567 96 q 617 58 594 58 q 647 67 635 58 q 671 89 660 75 l 699 58 q 644 2 674 18 q 578 -14 614 -14 m 524 758 l 290 969 l 407 969 l 174 758 l 142 789 l 325 1033 l 372 1033 l 556 789 l 524 758 z "},"ã":{"ha":707,"x_min":63,"x_max":699,"o":"m 249 -18 q 117 26 172 -18 q 63 156 63 69 q 80 232 63 196 q 147 301 97 268 q 293 361 197 333 q 365 383 329 372 q 437 403 401 393 q 508 424 472 414 l 508 374 q 415 344 461 360 q 324 314 369 329 q 232 270 261 294 q 194 222 203 246 q 186 175 186 197 q 218 97 186 121 q 297 74 250 74 q 342 81 321 74 q 397 110 364 89 q 486 174 431 132 l 506 104 l 464 104 q 390 35 422 63 q 324 -5 357 8 q 249 -18 292 -18 m 578 -14 q 485 24 519 -14 q 450 126 450 63 l 450 133 l 450 446 q 437 550 450 514 q 394 600 424 586 q 319 614 365 614 q 265 609 296 614 q 194 589 235 604 l 253 633 l 218 515 q 191 466 208 483 q 146 449 174 449 q 100 464 117 449 q 81 506 83 479 q 173 631 100 585 q 351 678 246 678 q 472 653 425 678 q 543 576 519 629 q 567 436 567 524 l 567 140 q 581 77 567 96 q 617 58 594 58 q 647 67 635 58 q 671 89 660 75 l 699 58 q 644 2 674 18 q 578 -14 614 -14 m 122 814 q 165 944 133 896 q 254 993 197 993 q 313 979 289 993 q 356 946 336 965 q 402 901 381 922 q 451 879 424 879 q 503 909 483 879 q 538 990 524 939 l 575 976 q 532 847 563 896 q 443 799 501 799 q 385 812 408 799 q 342 844 363 825 q 297 890 319 868 q 246 911 274 911 q 195 882 215 911 q 160 801 175 853 l 122 814 z "},"ä":{"ha":707,"x_min":63,"x_max":699,"o":"m 249 -18 q 117 26 172 -18 q 63 156 63 69 q 80 232 63 196 q 147 301 97 268 q 293 361 197 333 q 365 383 329 372 q 437 403 401 393 q 508 424 472 414 l 508 374 q 415 344 461 360 q 324 314 369 329 q 232 270 261 294 q 194 222 203 246 q 186 175 186 197 q 218 97 186 121 q 297 74 250 74 q 342 81 321 74 q 397 110 364 89 q 486 174 431 132 l 506 104 l 464 104 q 390 35 422 63 q 324 -5 357 8 q 249 -18 292 -18 m 578 -14 q 485 24 519 -14 q 450 126 450 63 l 450 133 l 450 446 q 437 550 450 514 q 394 600 424 586 q 319 614 365 614 q 265 609 296 614 q 194 589 235 604 l 253 633 l 218 515 q 191 466 208 483 q 146 449 174 449 q 100 464 117 449 q 81 506 83 479 q 173 631 100 585 q 351 678 246 678 q 472 653 425 678 q 543 576 519 629 q 567 436 567 524 l 567 140 q 581 77 567 96 q 617 58 594 58 q 647 67 635 58 q 671 89 660 75 l 699 58 q 644 2 674 18 q 578 -14 614 -14 m 203 828 q 145 850 169 828 q 121 907 121 872 q 145 963 121 940 q 203 986 169 986 q 262 963 238 986 q 286 907 286 940 q 262 850 286 872 q 203 828 238 828 m 494 828 q 435 850 460 828 q 411 907 411 872 q 435 963 411 940 q 494 986 460 986 q 552 963 528 986 q 576 907 576 940 q 552 850 576 872 q 494 828 528 828 z "},"ā":{"ha":707,"x_min":63,"x_max":699,"o":"m 249 -18 q 117 26 172 -18 q 63 156 63 69 q 80 232 63 196 q 147 301 97 268 q 293 361 197 333 q 365 383 329 372 q 437 403 401 393 q 508 424 472 414 l 508 374 q 415 344 461 360 q 324 314 369 329 q 232 270 261 294 q 194 222 203 246 q 186 175 186 197 q 218 97 186 121 q 297 74 250 74 q 342 81 321 74 q 397 110 364 89 q 486 174 431 132 l 506 104 l 464 104 q 390 35 422 63 q 324 -5 357 8 q 249 -18 292 -18 m 578 -14 q 485 24 519 -14 q 450 126 450 63 l 450 133 l 450 446 q 437 550 450 514 q 394 600 424 586 q 319 614 365 614 q 265 609 296 614 q 194 589 235 604 l 253 633 l 218 515 q 191 466 208 483 q 146 449 174 449 q 100 464 117 449 q 81 506 83 479 q 173 631 100 585 q 351 678 246 678 q 472 653 425 678 q 543 576 519 629 q 567 436 567 524 l 567 140 q 581 77 567 96 q 617 58 594 58 q 647 67 635 58 q 671 89 660 75 l 699 58 q 644 2 674 18 q 578 -14 614 -14 m 182 828 l 182 915 l 515 915 l 515 828 l 182 828 z "},"ă":{"ha":707,"x_min":63,"x_max":699,"o":"m 249 -18 q 117 26 172 -18 q 63 156 63 69 q 80 232 63 196 q 147 301 97 268 q 293 361 197 333 q 365 383 329 372 q 437 403 401 393 q 508 424 472 414 l 508 374 q 415 344 461 360 q 324 314 369 329 q 232 270 261 294 q 194 222 203 246 q 186 175 186 197 q 218 97 186 121 q 297 74 250 74 q 342 81 321 74 q 397 110 364 89 q 486 174 431 132 l 506 104 l 464 104 q 390 35 422 63 q 324 -5 357 8 q 249 -18 292 -18 m 578 -14 q 485 24 519 -14 q 450 126 450 63 l 450 133 l 450 446 q 437 550 450 514 q 394 600 424 586 q 319 614 365 614 q 265 609 296 614 q 194 589 235 604 l 253 633 l 218 515 q 191 466 208 483 q 146 449 174 449 q 100 464 117 449 q 81 506 83 479 q 173 631 100 585 q 351 678 246 678 q 472 653 425 678 q 543 576 519 629 q 567 436 567 524 l 567 140 q 581 77 567 96 q 617 58 594 58 q 647 67 635 58 q 671 89 660 75 l 699 58 q 644 2 674 18 q 578 -14 614 -14 m 139 1004 l 181 1019 q 241 928 201 965 q 349 890 281 890 q 457 928 418 890 q 517 1019 496 965 l 558 1004 q 538 927 554 964 q 497 861 522 890 q 434 815 471 832 q 349 799 397 799 q 264 815 301 799 q 201 861 226 832 q 159 927 175 890 q 139 1004 143 964 z "},"ắ":{"ha":707,"x_min":63,"x_max":699,"o":"m 249 -18 q 117 26 172 -18 q 63 156 63 69 q 80 232 63 196 q 147 301 97 268 q 293 361 197 333 q 365 383 329 372 q 437 403 401 393 q 508 424 472 414 l 508 374 q 415 344 461 360 q 324 314 369 329 q 232 270 261 294 q 194 222 203 246 q 186 175 186 197 q 218 97 186 121 q 297 74 250 74 q 342 81 321 74 q 397 110 364 89 q 486 174 431 132 l 506 104 l 464 104 q 390 35 422 63 q 324 -5 357 8 q 249 -18 292 -18 m 578 -14 q 485 24 519 -14 q 450 126 450 63 l 450 133 l 450 446 q 437 550 450 514 q 394 600 424 586 q 319 614 365 614 q 265 609 296 614 q 194 589 235 604 l 253 633 l 218 515 q 191 466 208 483 q 146 449 174 449 q 100 464 117 449 q 81 506 83 479 q 173 631 100 585 q 351 678 246 678 q 472 653 425 678 q 543 576 519 629 q 567 436 567 524 l 567 140 q 581 77 567 96 q 617 58 594 58 q 647 67 635 58 q 671 89 660 75 l 699 58 q 644 2 674 18 q 578 -14 614 -14 m 349 797 q 242 824 285 797 q 178 892 200 851 q 149 975 156 933 l 192 990 q 248 912 210 943 q 349 881 286 881 q 451 911 411 881 q 507 989 492 942 l 549 975 q 520 892 543 933 q 455 824 497 851 q 349 797 413 797 m 311 965 l 376 1101 q 398 1138 388 1124 q 419 1158 408 1151 q 443 1165 431 1165 q 476 1152 460 1165 q 492 1119 492 1139 q 484 1088 492 1104 q 451 1046 476 1071 l 349 938 l 311 965 z "},"ặ":{"ha":707,"x_min":63,"x_max":699,"o":"m 249 -18 q 117 26 172 -18 q 63 156 63 69 q 80 232 63 196 q 147 301 97 268 q 293 361 197 333 q 365 383 329 372 q 437 403 401 393 q 508 424 472 414 l 508 374 q 415 344 461 360 q 324 314 369 329 q 232 270 261 294 q 194 222 203 246 q 186 175 186 197 q 218 97 186 121 q 297 74 250 74 q 342 81 321 74 q 397 110 364 89 q 486 174 431 132 l 506 104 l 464 104 q 390 35 422 63 q 324 -5 357 8 q 249 -18 292 -18 m 578 -14 q 485 24 519 -14 q 450 126 450 63 l 450 133 l 450 446 q 437 550 450 514 q 394 600 424 586 q 319 614 365 614 q 265 609 296 614 q 194 589 235 604 l 253 633 l 218 515 q 191 466 208 483 q 146 449 174 449 q 100 464 117 449 q 81 506 83 479 q 173 631 100 585 q 351 678 246 678 q 472 653 425 678 q 543 576 519 629 q 567 436 567 524 l 567 140 q 581 77 567 96 q 617 58 594 58 q 647 67 635 58 q 671 89 660 75 l 699 58 q 644 2 674 18 q 578 -14 614 -14 m 139 1004 l 181 1019 q 241 928 201 965 q 349 890 281 890 q 457 928 418 890 q 517 1019 496 965 l 558 1004 q 538 927 554 964 q 497 861 522 890 q 434 815 471 832 q 349 799 397 799 q 264 815 301 799 q 201 861 226 832 q 159 927 175 890 q 139 1004 143 964 z "},"ằ":{"ha":707,"x_min":63,"x_max":699,"o":"m 249 -18 q 117 26 172 -18 q 63 156 63 69 q 80 232 63 196 q 147 301 97 268 q 293 361 197 333 q 365 383 329 372 q 437 403 401 393 q 508 424 472 414 l 508 374 q 415 344 461 360 q 324 314 369 329 q 232 270 261 294 q 194 222 203 246 q 186 175 186 197 q 218 97 186 121 q 297 74 250 74 q 342 81 321 74 q 397 110 364 89 q 486 174 431 132 l 506 104 l 464 104 q 390 35 422 63 q 324 -5 357 8 q 249 -18 292 -18 m 578 -14 q 485 24 519 -14 q 450 126 450 63 l 450 133 l 450 446 q 437 550 450 514 q 394 600 424 586 q 319 614 365 614 q 265 609 296 614 q 194 589 235 604 l 253 633 l 218 515 q 191 466 208 483 q 146 449 174 449 q 100 464 117 449 q 81 506 83 479 q 173 631 100 585 q 351 678 246 678 q 472 653 425 678 q 543 576 519 629 q 567 436 567 524 l 567 140 q 581 77 567 96 q 617 58 594 58 q 647 67 635 58 q 671 89 660 75 l 699 58 q 644 2 674 18 q 578 -14 614 -14 m 149 975 l 192 990 q 248 912 210 943 q 349 881 286 881 q 451 911 411 881 q 507 989 492 942 l 549 975 q 520 892 543 933 q 455 824 497 851 q 349 797 413 797 q 242 824 285 797 q 178 892 200 851 q 149 975 156 933 m 246 1046 q 213 1088 221 1071 q 206 1119 206 1104 q 222 1152 206 1139 q 254 1165 238 1165 q 278 1158 267 1165 q 300 1138 289 1151 q 321 1101 311 1124 l 386 965 l 349 938 l 246 1046 z "},"ẳ":{"ha":707,"x_min":63,"x_max":699,"o":"m 249 -18 q 117 26 172 -18 q 63 156 63 69 q 80 232 63 196 q 147 301 97 268 q 293 361 197 333 q 365 383 329 372 q 437 403 401 393 q 508 424 472 414 l 508 374 q 415 344 461 360 q 324 314 369 329 q 232 270 261 294 q 194 222 203 246 q 186 175 186 197 q 218 97 186 121 q 297 74 250 74 q 342 81 321 74 q 397 110 364 89 q 486 174 431 132 l 506 104 l 464 104 q 390 35 422 63 q 324 -5 357 8 q 249 -18 292 -18 m 578 -14 q 485 24 519 -14 q 450 126 450 63 l 450 133 l 450 446 q 437 550 450 514 q 394 600 424 586 q 319 614 365 614 q 265 609 296 614 q 194 589 235 604 l 253 633 l 218 515 q 191 466 208 483 q 146 449 174 449 q 100 464 117 449 q 81 506 83 479 q 173 631 100 585 q 351 678 246 678 q 472 653 425 678 q 543 576 519 629 q 567 436 567 524 l 567 140 q 581 77 567 96 q 617 58 594 58 q 647 67 635 58 q 671 89 660 75 l 699 58 q 644 2 674 18 q 578 -14 614 -14 z "},"ẵ":{"ha":707,"x_min":63,"x_max":699,"o":"m 249 -18 q 117 26 172 -18 q 63 156 63 69 q 80 232 63 196 q 147 301 97 268 q 293 361 197 333 q 365 383 329 372 q 437 403 401 393 q 508 424 472 414 l 508 374 q 415 344 461 360 q 324 314 369 329 q 232 270 261 294 q 194 222 203 246 q 186 175 186 197 q 218 97 186 121 q 297 74 250 74 q 342 81 321 74 q 397 110 364 89 q 486 174 431 132 l 506 104 l 464 104 q 390 35 422 63 q 324 -5 357 8 q 249 -18 292 -18 m 578 -14 q 485 24 519 -14 q 450 126 450 63 l 450 133 l 450 446 q 437 550 450 514 q 394 600 424 586 q 319 614 365 614 q 265 609 296 614 q 194 589 235 604 l 253 633 l 218 515 q 191 466 208 483 q 146 449 174 449 q 100 464 117 449 q 81 506 83 479 q 173 631 100 585 q 351 678 246 678 q 472 653 425 678 q 543 576 519 629 q 567 436 567 524 l 567 140 q 581 77 567 96 q 617 58 594 58 q 647 67 635 58 q 671 89 660 75 l 699 58 q 644 2 674 18 q 578 -14 614 -14 m 349 797 q 242 824 285 797 q 178 892 200 851 q 149 975 156 933 l 192 990 q 248 912 210 943 q 349 881 286 881 q 451 911 411 881 q 507 989 492 942 l 549 975 q 520 892 543 933 q 455 824 497 851 q 349 797 413 797 m 122 1019 q 164 1110 131 1076 q 254 1144 197 1144 q 313 1135 290 1144 q 358 1114 336 1126 q 405 1091 382 1101 q 456 1081 428 1081 q 508 1097 488 1081 q 542 1144 529 1114 l 575 1129 q 533 1040 565 1074 q 443 1006 501 1006 q 384 1015 408 1006 q 339 1036 360 1024 q 293 1059 317 1049 q 242 1069 269 1069 q 190 1053 211 1069 q 156 1006 168 1036 l 122 1019 z "},"ǎ":{"ha":707,"x_min":63,"x_max":699,"o":"m 249 -18 q 117 26 172 -18 q 63 156 63 69 q 80 232 63 196 q 147 301 97 268 q 293 361 197 333 q 365 383 329 372 q 437 403 401 393 q 508 424 472 414 l 508 374 q 415 344 461 360 q 324 314 369 329 q 232 270 261 294 q 194 222 203 246 q 186 175 186 197 q 218 97 186 121 q 297 74 250 74 q 342 81 321 74 q 397 110 364 89 q 486 174 431 132 l 506 104 l 464 104 q 390 35 422 63 q 324 -5 357 8 q 249 -18 292 -18 m 578 -14 q 485 24 519 -14 q 450 126 450 63 l 450 133 l 450 446 q 437 550 450 514 q 394 600 424 586 q 319 614 365 614 q 265 609 296 614 q 194 589 235 604 l 253 633 l 218 515 q 191 466 208 483 q 146 449 174 449 q 100 464 117 449 q 81 506 83 479 q 173 631 100 585 q 351 678 246 678 q 472 653 425 678 q 543 576 519 629 q 567 436 567 524 l 567 140 q 581 77 567 96 q 617 58 594 58 q 647 67 635 58 q 671 89 660 75 l 699 58 q 644 2 674 18 q 578 -14 614 -14 m 189 1026 l 407 828 l 290 828 l 508 1026 l 542 999 l 400 793 l 297 793 l 156 999 l 189 1026 z "},"ấ":{"ha":707,"x_min":63,"x_max":699,"o":"m 249 -18 q 117 26 172 -18 q 63 156 63 69 q 80 232 63 196 q 147 301 97 268 q 293 361 197 333 q 365 383 329 372 q 437 403 401 393 q 508 424 472 414 l 508 374 q 415 344 461 360 q 324 314 369 329 q 232 270 261 294 q 194 222 203 246 q 186 175 186 197 q 218 97 186 121 q 297 74 250 74 q 342 81 321 74 q 397 110 364 89 q 486 174 431 132 l 506 104 l 464 104 q 390 35 422 63 q 324 -5 357 8 q 249 -18 292 -18 m 578 -14 q 485 24 519 -14 q 450 126 450 63 l 450 133 l 450 446 q 437 550 450 514 q 394 600 424 586 q 319 614 365 614 q 265 609 296 614 q 194 589 235 604 l 253 633 l 218 515 q 191 466 208 483 q 146 449 174 449 q 100 464 117 449 q 81 506 83 479 q 173 631 100 585 q 351 678 246 678 q 472 653 425 678 q 543 576 519 629 q 567 436 567 524 l 567 140 q 581 77 567 96 q 617 58 594 58 q 647 67 635 58 q 671 89 660 75 l 699 58 q 644 2 674 18 q 578 -14 614 -14 m 169 744 l 143 779 l 325 939 l 372 939 l 554 779 l 528 744 l 290 881 l 407 881 l 169 744 m 518 882 l 483 913 l 553 1035 q 585 1077 568 1064 q 618 1090 603 1090 q 653 1078 638 1090 q 668 1042 668 1065 q 660 1013 668 1029 q 625 974 653 996 l 518 882 z "},"ậ":{"ha":707,"x_min":63,"x_max":699,"o":"m 249 -18 q 117 26 172 -18 q 63 156 63 69 q 80 232 63 196 q 147 301 97 268 q 293 361 197 333 q 365 383 329 372 q 437 403 401 393 q 508 424 472 414 l 508 374 q 415 344 461 360 q 324 314 369 329 q 232 270 261 294 q 194 222 203 246 q 186 175 186 197 q 218 97 186 121 q 297 74 250 74 q 342 81 321 74 q 397 110 364 89 q 486 174 431 132 l 506 104 l 464 104 q 390 35 422 63 q 324 -5 357 8 q 249 -18 292 -18 m 578 -14 q 485 24 519 -14 q 450 126 450 63 l 450 133 l 450 446 q 437 550 450 514 q 394 600 424 586 q 319 614 365 614 q 265 609 296 614 q 194 589 235 604 l 253 633 l 218 515 q 191 466 208 483 q 146 449 174 449 q 100 464 117 449 q 81 506 83 479 q 173 631 100 585 q 351 678 246 678 q 472 653 425 678 q 543 576 519 629 q 567 436 567 524 l 567 140 q 581 77 567 96 q 617 58 594 58 q 647 67 635 58 q 671 89 660 75 l 699 58 q 644 2 674 18 q 578 -14 614 -14 m 524 758 l 290 969 l 407 969 l 174 758 l 142 789 l 325 1033 l 372 1033 l 556 789 l 524 758 z "},"ầ":{"ha":707,"x_min":43,"x_max":699,"o":"m 249 -18 q 117 26 172 -18 q 63 156 63 69 q 80 232 63 196 q 147 301 97 268 q 293 361 197 333 q 365 383 329 372 q 437 403 401 393 q 508 424 472 414 l 508 374 q 415 344 461 360 q 324 314 369 329 q 232 270 261 294 q 194 222 203 246 q 186 175 186 197 q 218 97 186 121 q 297 74 250 74 q 342 81 321 74 q 397 110 364 89 q 486 174 431 132 l 506 104 l 464 104 q 390 35 422 63 q 324 -5 357 8 q 249 -18 292 -18 m 578 -14 q 485 24 519 -14 q 450 126 450 63 l 450 133 l 450 446 q 437 550 450 514 q 394 600 424 586 q 319 614 365 614 q 265 609 296 614 q 194 589 235 604 l 253 633 l 218 515 q 191 466 208 483 q 146 449 174 449 q 100 464 117 449 q 81 506 83 479 q 173 631 100 585 q 351 678 246 678 q 472 653 425 678 q 543 576 519 629 q 567 436 567 524 l 567 140 q 581 77 567 96 q 617 58 594 58 q 647 67 635 58 q 671 89 660 75 l 699 58 q 644 2 674 18 q 578 -14 614 -14 m 86 974 q 51 1013 60 996 q 43 1042 43 1029 q 58 1078 43 1065 q 92 1090 74 1090 q 125 1077 108 1090 q 158 1035 142 1064 l 226 913 l 193 882 l 86 974 m 169 744 l 143 779 l 325 939 l 372 939 l 554 779 l 528 744 l 290 881 l 407 881 l 169 744 z "},"ẩ":{"ha":707,"x_min":63,"x_max":699,"o":"m 249 -18 q 117 26 172 -18 q 63 156 63 69 q 80 232 63 196 q 147 301 97 268 q 293 361 197 333 q 365 383 329 372 q 437 403 401 393 q 508 424 472 414 l 508 374 q 415 344 461 360 q 324 314 369 329 q 232 270 261 294 q 194 222 203 246 q 186 175 186 197 q 218 97 186 121 q 297 74 250 74 q 342 81 321 74 q 397 110 364 89 q 486 174 431 132 l 506 104 l 464 104 q 390 35 422 63 q 324 -5 357 8 q 249 -18 292 -18 m 578 -14 q 485 24 519 -14 q 450 126 450 63 l 450 133 l 450 446 q 437 550 450 514 q 394 600 424 586 q 319 614 365 614 q 265 609 296 614 q 194 589 235 604 l 253 633 l 218 515 q 191 466 208 483 q 146 449 174 449 q 100 464 117 449 q 81 506 83 479 q 173 631 100 585 q 351 678 246 678 q 472 653 425 678 q 543 576 519 629 q 567 436 567 524 l 567 140 q 581 77 567 96 q 617 58 594 58 q 647 67 635 58 q 671 89 660 75 l 699 58 q 644 2 674 18 q 578 -14 614 -14 m 169 744 l 143 779 l 325 939 l 372 939 l 554 779 l 528 744 l 290 881 l 407 881 l 169 744 m 508 906 q 565 932 549 915 q 582 972 582 949 q 571 1005 582 993 q 534 1024 560 1017 q 467 1039 508 1032 l 481 1132 q 575 1110 538 1128 q 631 1063 613 1092 q 650 993 650 1033 q 616 905 650 940 q 521 863 582 869 l 508 906 z "},"ẫ":{"ha":707,"x_min":63,"x_max":699,"o":"m 249 -18 q 117 26 172 -18 q 63 156 63 69 q 80 232 63 196 q 147 301 97 268 q 293 361 197 333 q 365 383 329 372 q 437 403 401 393 q 508 424 472 414 l 508 374 q 415 344 461 360 q 324 314 369 329 q 232 270 261 294 q 194 222 203 246 q 186 175 186 197 q 218 97 186 121 q 297 74 250 74 q 342 81 321 74 q 397 110 364 89 q 486 174 431 132 l 506 104 l 464 104 q 390 35 422 63 q 324 -5 357 8 q 249 -18 292 -18 m 578 -14 q 485 24 519 -14 q 450 126 450 63 l 450 133 l 450 446 q 437 550 450 514 q 394 600 424 586 q 319 614 365 614 q 265 609 296 614 q 194 589 235 604 l 253 633 l 218 515 q 191 466 208 483 q 146 449 174 449 q 100 464 117 449 q 81 506 83 479 q 173 631 100 585 q 351 678 246 678 q 472 653 425 678 q 543 576 519 629 q 567 436 567 524 l 567 140 q 581 77 567 96 q 617 58 594 58 q 647 67 635 58 q 671 89 660 75 l 699 58 q 644 2 674 18 q 578 -14 614 -14 m 169 744 l 143 779 l 325 938 l 372 938 l 554 779 l 528 744 l 290 879 l 407 879 l 169 744 m 122 979 q 164 1070 131 1036 q 254 1104 197 1104 q 313 1095 290 1104 q 358 1075 336 1086 q 405 1051 382 1061 q 456 1040 428 1040 q 508 1058 488 1040 q 542 1106 529 1075 l 575 1089 q 533 999 565 1033 q 443 965 501 965 q 384 974 408 965 q 339 996 360 983 q 293 1019 317 1010 q 242 1029 269 1029 q 190 1013 211 1029 q 156 965 168 996 l 122 979 z "},"ạ":{"ha":707,"x_min":63,"x_max":699,"o":"m 249 -18 q 117 26 172 -18 q 63 156 63 69 q 80 232 63 196 q 147 301 97 268 q 293 361 197 333 q 365 383 329 372 q 437 403 401 393 q 508 424 472 414 l 508 374 q 415 344 461 360 q 324 314 369 329 q 232 270 261 294 q 194 222 203 246 q 186 175 186 197 q 218 97 186 121 q 297 74 250 74 q 342 81 321 74 q 397 110 364 89 q 486 174 431 132 l 506 104 l 464 104 q 390 35 422 63 q 324 -5 357 8 q 249 -18 292 -18 m 578 -14 q 485 24 519 -14 q 450 126 450 63 l 450 133 l 450 446 q 437 550 450 514 q 394 600 424 586 q 319 614 365 614 q 265 609 296 614 q 194 589 235 604 l 253 633 l 218 515 q 191 466 208 483 q 146 449 174 449 q 100 464 117 449 q 81 506 83 479 q 173 631 100 585 q 351 678 246 678 q 472 653 425 678 q 543 576 519 629 q 567 436 567 524 l 567 140 q 581 77 567 96 q 617 58 594 58 q 647 67 635 58 q 671 89 660 75 l 699 58 q 644 2 674 18 q 578 -14 614 -14 z "},"ả":{"ha":707,"x_min":63,"x_max":699,"o":"m 249 -18 q 117 26 172 -18 q 63 156 63 69 q 80 232 63 196 q 147 301 97 268 q 293 361 197 333 q 365 383 329 372 q 437 403 401 393 q 508 424 472 414 l 508 374 q 415 344 461 360 q 324 314 369 329 q 232 270 261 294 q 194 222 203 246 q 186 175 186 197 q 218 97 186 121 q 297 74 250 74 q 342 81 321 74 q 397 110 364 89 q 486 174 431 132 l 506 104 l 464 104 q 390 35 422 63 q 324 -5 357 8 q 249 -18 292 -18 m 578 -14 q 485 24 519 -14 q 450 126 450 63 l 450 133 l 450 446 q 437 550 450 514 q 394 600 424 586 q 319 614 365 614 q 265 609 296 614 q 194 589 235 604 l 253 633 l 218 515 q 191 466 208 483 q 146 449 174 449 q 100 464 117 449 q 81 506 83 479 q 173 631 100 585 q 351 678 246 678 q 472 653 425 678 q 543 576 519 629 q 567 436 567 524 l 567 140 q 581 77 567 96 q 617 58 594 58 q 647 67 635 58 q 671 89 660 75 l 699 58 q 644 2 674 18 q 578 -14 614 -14 m 322 768 l 310 811 q 367 837 350 819 q 383 878 383 854 q 357 921 383 907 q 268 944 331 935 l 282 1038 q 409 995 367 1031 q 451 899 451 960 q 417 810 451 846 q 322 768 383 775 z "},"å":{"ha":707,"x_min":63,"x_max":699,"o":"m 249 -18 q 117 26 172 -18 q 63 156 63 69 q 80 232 63 196 q 147 301 97 268 q 293 361 197 333 q 365 383 329 372 q 437 403 401 393 q 508 424 472 414 l 508 374 q 415 344 461 360 q 324 314 369 329 q 232 270 261 294 q 194 222 203 246 q 186 175 186 197 q 218 97 186 121 q 297 74 250 74 q 342 81 321 74 q 397 110 364 89 q 486 174 431 132 l 506 104 l 464 104 q 390 35 422 63 q 324 -5 357 8 q 249 -18 292 -18 m 578 -14 q 485 24 519 -14 q 450 126 450 63 l 450 133 l 450 446 q 437 550 450 514 q 394 600 424 586 q 319 614 365 614 q 265 609 296 614 q 194 589 235 604 l 253 633 l 218 515 q 191 466 208 483 q 146 449 174 449 q 100 464 117 449 q 81 506 83 479 q 173 631 100 585 q 351 678 246 678 q 472 653 425 678 q 543 576 519 629 q 567 436 567 524 l 567 140 q 581 77 567 96 q 617 58 594 58 q 647 67 635 58 q 671 89 660 75 l 699 58 q 644 2 674 18 q 578 -14 614 -14 m 349 819 q 407 847 386 819 q 428 906 428 874 q 408 964 428 938 q 349 990 388 990 q 290 964 311 990 q 269 906 269 938 q 290 847 269 874 q 349 819 310 819 m 349 764 q 248 801 293 764 q 203 906 203 838 q 248 1008 203 971 q 349 1046 293 1046 q 450 1010 406 1046 q 494 906 494 974 q 450 801 494 839 q 349 764 406 764 z "},"ą":{"ha":707,"x_min":63,"x_max":699,"o":"m 249 -18 q 117 26 172 -18 q 63 156 63 69 q 80 232 63 196 q 147 301 97 268 q 293 361 197 333 q 365 383 329 372 q 437 403 401 393 q 508 424 472 414 l 508 374 q 415 344 461 360 q 324 314 369 329 q 232 270 261 294 q 194 222 203 246 q 186 175 186 197 q 218 97 186 121 q 297 74 250 74 q 342 81 321 74 q 397 110 364 89 q 486 174 431 132 l 506 104 l 464 104 q 390 35 422 63 q 324 -5 357 8 q 249 -18 292 -18 m 560 -307 q 476 -276 508 -307 q 443 -192 443 -244 q 490 -82 443 -129 q 596 -6 536 -35 l 596 -12 q 586 -13 592 -12 q 578 -14 581 -14 q 485 24 519 -14 q 450 126 450 63 l 450 133 l 450 446 q 437 550 450 514 q 394 600 424 586 q 319 614 365 614 q 265 609 296 614 q 194 589 235 604 l 253 633 l 218 515 q 191 466 208 483 q 146 449 174 449 q 100 464 117 449 q 81 506 83 479 q 131 597 94 558 q 224 657 168 636 q 351 678 281 678 q 472 653 425 678 q 543 576 519 629 q 567 436 567 524 l 567 140 q 581 77 567 96 q 617 58 594 58 q 644 67 631 58 q 671 89 657 75 l 699 56 q 669 24 682 36 q 633 -7 656 11 q 585 -47 608 -26 q 547 -92 563 -68 q 532 -147 532 -117 q 554 -206 532 -183 q 607 -229 576 -229 q 640 -225 624 -229 q 675 -211 657 -221 l 693 -246 q 635 -293 667 -279 q 560 -307 603 -307 z "},"æ":{"ha":1092,"x_min":63,"x_max":1035,"o":"m 249 -18 q 117 27 172 -18 q 63 158 63 72 q 81 232 63 199 q 150 297 100 265 q 293 363 200 329 q 358 385 322 374 q 433 406 394 396 q 506 421 471 415 l 506 371 q 406 344 458 361 q 322 315 354 328 q 233 268 263 292 q 195 222 204 244 q 186 179 186 200 q 219 99 186 125 q 297 74 253 74 q 349 81 325 74 q 404 109 372 89 q 488 168 436 129 l 517 135 l 514 135 q 408 40 451 72 q 328 -6 364 7 q 249 -18 292 -18 m 769 -18 q 601 22 672 -18 q 490 139 529 63 q 450 322 450 215 l 450 446 q 436 550 450 514 q 394 600 422 586 q 324 614 367 614 q 266 609 297 614 q 194 589 235 604 l 256 631 l 221 510 q 192 460 211 478 q 146 443 174 443 q 100 460 117 443 q 81 503 83 476 q 131 595 94 556 q 224 656 168 635 q 351 678 281 678 q 499 627 440 678 q 558 460 558 576 l 489 471 q 599 622 525 565 q 765 678 674 678 q 897 646 839 678 q 990 555 956 614 q 1024 411 1024 496 q 1022 367 1024 388 q 1015 333 1019 347 l 500 333 l 500 392 l 819 392 q 892 413 875 392 q 908 464 908 433 q 891 546 908 513 q 842 597 874 579 q 765 614 810 614 q 672 587 718 614 q 597 500 626 560 q 568 339 568 440 q 597 193 568 253 q 677 103 625 133 q 801 72 729 72 q 915 94 865 72 q 1006 163 965 115 l 1035 139 q 934 24 993 67 q 769 -18 875 -18 z "},"ç":{"ha":678,"x_min":63,"x_max":635,"o":"m 378 -18 q 208 23 279 -18 q 100 140 138 64 q 63 322 63 217 q 108 514 63 435 q 226 635 153 593 q 383 678 300 678 q 499 654 446 678 q 586 590 551 631 q 629 497 621 549 q 608 458 624 471 q 565 444 592 444 q 513 463 531 444 q 489 511 496 482 l 456 632 l 522 579 q 453 606 488 599 q 389 614 418 614 q 284 583 331 614 q 211 490 238 551 q 185 336 185 428 q 215 185 185 243 q 297 99 246 126 q 410 72 347 72 q 477 80 444 72 q 542 108 510 88 q 604 164 574 128 l 635 139 q 573 54 608 89 q 490 1 538 19 q 378 -18 443 -18 m 346 -119 l 364 4 l 415 4 l 401 -107 l 374 -76 q 452 -92 417 -79 q 510 -131 488 -106 q 532 -194 532 -156 q 492 -274 532 -242 q 376 -307 453 -307 q 324 -302 346 -307 q 289 -293 303 -297 l 299 -247 q 331 -253 315 -250 q 365 -256 347 -256 q 426 -238 406 -256 q 446 -192 446 -221 q 422 -143 446 -160 q 346 -119 397 -126 z "},"ć":{"ha":678,"x_min":63,"x_max":635,"o":"m 378 -18 q 208 23 279 -18 q 100 140 138 64 q 63 322 63 217 q 108 514 63 435 q 226 635 153 593 q 383 678 300 678 q 499 654 446 678 q 586 590 551 631 q 629 497 621 549 q 608 458 624 471 q 565 444 592 444 q 513 463 531 444 q 489 511 496 482 l 456 632 l 522 579 q 453 606 488 599 q 389 614 418 614 q 284 583 331 614 q 211 490 238 551 q 185 336 185 428 q 215 185 185 243 q 297 99 246 126 q 410 72 347 72 q 477 80 444 72 q 542 108 510 88 q 604 164 574 128 l 635 139 q 573 54 608 89 q 490 1 538 19 q 378 -18 443 -18 m 303 800 q 342 865 322 833 q 383 930 363 897 q 426 996 404 963 q 465 1040 446 1028 q 501 1053 483 1053 q 538 1040 521 1053 q 554 1000 554 1028 q 545 969 554 986 q 507 924 536 951 q 451 874 479 899 q 396 824 424 849 q 339 774 368 799 l 303 800 z "},"č":{"ha":678,"x_min":63,"x_max":635,"o":"m 378 -18 q 208 23 279 -18 q 100 140 138 64 q 63 322 63 217 q 108 514 63 435 q 226 635 153 593 q 383 678 300 678 q 499 654 446 678 q 586 590 551 631 q 629 497 621 549 q 608 458 624 471 q 565 444 592 444 q 513 463 531 444 q 489 511 496 482 l 456 632 l 522 579 q 453 606 488 599 q 389 614 418 614 q 284 583 331 614 q 211 490 238 551 q 185 336 185 428 q 215 185 185 243 q 297 99 246 126 q 410 72 347 72 q 477 80 444 72 q 542 108 510 88 q 604 164 574 128 l 635 139 q 573 54 608 89 q 490 1 538 19 q 378 -18 443 -18 m 225 1026 l 443 828 l 326 828 l 544 1026 l 578 999 l 436 793 l 333 793 l 192 999 l 225 1026 z "}}}
